G75*
%MOIN*%
%OFA0B0*%
%FSLAX24Y24*%
%IPPOS*%
%LPD*%
%AMOC8*
5,1,8,0,0,1.08239X$1,22.5*
%
%ADD10C,0.0080*%
%ADD11R,0.0200X0.0200*%
%ADD12C,0.0100*%
%ADD13C,0.0010*%
D10*
X011100Y000140D02*
X017100Y000140D01*
X017100Y003211D01*
X011100Y003211D02*
X011100Y000140D01*
D11*
X002100Y003892D03*
X002100Y004892D03*
X002100Y005892D03*
X002100Y006892D03*
X002100Y007892D03*
X002100Y008892D03*
X002100Y009892D03*
X002100Y010892D03*
X002100Y011892D03*
X002100Y012892D03*
X002100Y013892D03*
X002100Y014892D03*
X009100Y014892D03*
X009100Y013892D03*
X009100Y012892D03*
X009100Y011892D03*
X009100Y010892D03*
X009100Y009892D03*
X009100Y008892D03*
X009100Y007892D03*
X009100Y006892D03*
X009100Y005892D03*
X009100Y004892D03*
X009100Y003892D03*
D12*
X013220Y020392D02*
X013220Y021392D01*
X013220Y022392D02*
X013220Y023392D01*
X013220Y024392D02*
X013220Y025392D01*
X013220Y026392D02*
X013220Y027392D01*
X003980Y027392D02*
X003980Y026392D01*
X003980Y025392D02*
X003980Y024392D01*
X003980Y023392D02*
X003980Y022392D01*
D13*
X005346Y022496D02*
X005267Y022539D01*
X005267Y022538D02*
X005290Y022585D01*
X005309Y022633D01*
X005325Y022682D01*
X005338Y022733D01*
X005347Y022784D01*
X005353Y022835D01*
X005355Y022887D01*
X005444Y022887D01*
X005445Y022887D01*
X005443Y022836D01*
X005438Y022785D01*
X005430Y022735D01*
X005419Y022685D01*
X005405Y022636D01*
X005389Y022588D01*
X005369Y022541D01*
X005346Y022496D01*
X005338Y022500D01*
X005364Y022552D01*
X005385Y022605D01*
X005403Y022660D01*
X005417Y022716D01*
X005427Y022772D01*
X005434Y022829D01*
X005436Y022887D01*
X005427Y022887D01*
X005425Y022830D01*
X005418Y022774D01*
X005408Y022718D01*
X005394Y022662D01*
X005377Y022608D01*
X005355Y022555D01*
X005330Y022504D01*
X005323Y022509D01*
X005347Y022559D01*
X005368Y022611D01*
X005386Y022665D01*
X005400Y022719D01*
X005410Y022775D01*
X005416Y022831D01*
X005418Y022887D01*
X005409Y022887D01*
X005407Y022831D01*
X005401Y022776D01*
X005391Y022721D01*
X005377Y022667D01*
X005360Y022614D01*
X005339Y022563D01*
X005315Y022513D01*
X005307Y022517D01*
X005331Y022567D01*
X005351Y022618D01*
X005369Y022670D01*
X005382Y022723D01*
X005392Y022777D01*
X005398Y022832D01*
X005400Y022887D01*
X005391Y022887D01*
X005389Y022833D01*
X005383Y022779D01*
X005373Y022725D01*
X005360Y022672D01*
X005343Y022621D01*
X005323Y022570D01*
X005299Y022521D01*
X005291Y022526D01*
X005314Y022574D01*
X005335Y022624D01*
X005351Y022675D01*
X005364Y022727D01*
X005374Y022780D01*
X005380Y022833D01*
X005382Y022887D01*
X005373Y022887D01*
X005371Y022834D01*
X005365Y022781D01*
X005356Y022729D01*
X005343Y022677D01*
X005326Y022627D01*
X005306Y022578D01*
X005283Y022530D01*
X005275Y022534D01*
X005298Y022581D01*
X005318Y022630D01*
X005334Y022680D01*
X005347Y022731D01*
X005356Y022782D01*
X005362Y022835D01*
X005364Y022887D01*
X005444Y022896D02*
X005354Y022896D01*
X005355Y022897D02*
X005353Y022948D01*
X005347Y022998D01*
X005339Y023048D01*
X005326Y023098D01*
X005311Y023146D01*
X005292Y023193D01*
X005270Y023239D01*
X005246Y023283D01*
X005322Y023330D01*
X005322Y023331D01*
X005350Y023281D01*
X005375Y023229D01*
X005396Y023176D01*
X005413Y023122D01*
X005427Y023067D01*
X005437Y023011D01*
X005443Y022954D01*
X005445Y022897D01*
X005436Y022897D01*
X005434Y022953D01*
X005428Y023009D01*
X005418Y023065D01*
X005404Y023120D01*
X005387Y023173D01*
X005366Y023226D01*
X005342Y023277D01*
X005315Y023326D01*
X005307Y023321D01*
X005334Y023273D01*
X005358Y023222D01*
X005379Y023170D01*
X005396Y023117D01*
X005409Y023063D01*
X005419Y023008D01*
X005425Y022953D01*
X005427Y022897D01*
X005418Y022897D01*
X005416Y022952D01*
X005410Y023007D01*
X005400Y023061D01*
X005387Y023115D01*
X005370Y023167D01*
X005350Y023219D01*
X005326Y023268D01*
X005299Y023316D01*
X005292Y023312D01*
X005318Y023264D01*
X005342Y023215D01*
X005362Y023164D01*
X005378Y023112D01*
X005391Y023059D01*
X005401Y023006D01*
X005407Y022951D01*
X005409Y022897D01*
X005400Y022897D01*
X005398Y022951D01*
X005392Y023004D01*
X005383Y023058D01*
X005370Y023110D01*
X005353Y023161D01*
X005334Y023211D01*
X005310Y023260D01*
X005284Y023307D01*
X005276Y023302D01*
X005302Y023256D01*
X005325Y023208D01*
X005345Y023158D01*
X005361Y023107D01*
X005374Y023056D01*
X005383Y023003D01*
X005389Y022950D01*
X005391Y022897D01*
X005382Y022897D01*
X005380Y022950D01*
X005374Y023002D01*
X005365Y023054D01*
X005352Y023105D01*
X005336Y023155D01*
X005317Y023204D01*
X005294Y023252D01*
X005269Y023298D01*
X005261Y023293D01*
X005286Y023247D01*
X005309Y023200D01*
X005328Y023152D01*
X005344Y023102D01*
X005356Y023052D01*
X005365Y023001D01*
X005371Y022949D01*
X005373Y022897D01*
X005364Y022897D01*
X005362Y022948D01*
X005356Y022999D01*
X005347Y023050D01*
X005335Y023100D01*
X005319Y023149D01*
X005301Y023197D01*
X005278Y023243D01*
X005253Y023288D01*
X005346Y024496D02*
X005267Y024539D01*
X005267Y024538D02*
X005290Y024585D01*
X005309Y024633D01*
X005325Y024682D01*
X005338Y024733D01*
X005347Y024784D01*
X005353Y024835D01*
X005355Y024887D01*
X005444Y024887D01*
X005445Y024887D01*
X005443Y024836D01*
X005438Y024785D01*
X005430Y024735D01*
X005419Y024685D01*
X005405Y024636D01*
X005389Y024588D01*
X005369Y024541D01*
X005346Y024496D01*
X005338Y024500D01*
X005364Y024552D01*
X005385Y024605D01*
X005403Y024660D01*
X005417Y024716D01*
X005427Y024772D01*
X005434Y024829D01*
X005436Y024887D01*
X005427Y024887D01*
X005425Y024830D01*
X005418Y024774D01*
X005408Y024718D01*
X005394Y024662D01*
X005377Y024608D01*
X005355Y024555D01*
X005330Y024504D01*
X005323Y024509D01*
X005347Y024559D01*
X005368Y024611D01*
X005386Y024665D01*
X005400Y024719D01*
X005410Y024775D01*
X005416Y024831D01*
X005418Y024887D01*
X005409Y024887D01*
X005407Y024831D01*
X005401Y024776D01*
X005391Y024721D01*
X005377Y024667D01*
X005360Y024614D01*
X005339Y024563D01*
X005315Y024513D01*
X005307Y024517D01*
X005331Y024567D01*
X005351Y024618D01*
X005369Y024670D01*
X005382Y024723D01*
X005392Y024777D01*
X005398Y024832D01*
X005400Y024887D01*
X005391Y024887D01*
X005389Y024833D01*
X005383Y024779D01*
X005373Y024725D01*
X005360Y024672D01*
X005343Y024621D01*
X005323Y024570D01*
X005299Y024521D01*
X005291Y024526D01*
X005314Y024574D01*
X005335Y024624D01*
X005351Y024675D01*
X005364Y024727D01*
X005374Y024780D01*
X005380Y024833D01*
X005382Y024887D01*
X005373Y024887D01*
X005371Y024834D01*
X005365Y024781D01*
X005356Y024729D01*
X005343Y024677D01*
X005326Y024627D01*
X005306Y024578D01*
X005283Y024530D01*
X005275Y024534D01*
X005298Y024581D01*
X005318Y024630D01*
X005334Y024680D01*
X005347Y024731D01*
X005356Y024782D01*
X005362Y024835D01*
X005364Y024887D01*
X005444Y024896D02*
X005354Y024896D01*
X005355Y024897D02*
X005353Y024948D01*
X005347Y024998D01*
X005339Y025048D01*
X005326Y025098D01*
X005311Y025146D01*
X005292Y025193D01*
X005270Y025239D01*
X005246Y025283D01*
X005322Y025330D01*
X005322Y025331D01*
X005350Y025281D01*
X005375Y025229D01*
X005396Y025176D01*
X005413Y025122D01*
X005427Y025067D01*
X005437Y025011D01*
X005443Y024954D01*
X005445Y024897D01*
X005436Y024897D01*
X005434Y024953D01*
X005428Y025009D01*
X005418Y025065D01*
X005404Y025120D01*
X005387Y025173D01*
X005366Y025226D01*
X005342Y025277D01*
X005315Y025326D01*
X005307Y025321D01*
X005334Y025273D01*
X005358Y025222D01*
X005379Y025170D01*
X005396Y025117D01*
X005409Y025063D01*
X005419Y025008D01*
X005425Y024953D01*
X005427Y024897D01*
X005418Y024897D01*
X005416Y024952D01*
X005410Y025007D01*
X005400Y025061D01*
X005387Y025115D01*
X005370Y025167D01*
X005350Y025219D01*
X005326Y025268D01*
X005299Y025316D01*
X005292Y025312D01*
X005318Y025264D01*
X005342Y025215D01*
X005362Y025164D01*
X005378Y025112D01*
X005391Y025059D01*
X005401Y025006D01*
X005407Y024951D01*
X005409Y024897D01*
X005400Y024897D01*
X005398Y024951D01*
X005392Y025004D01*
X005383Y025058D01*
X005370Y025110D01*
X005353Y025161D01*
X005334Y025211D01*
X005310Y025260D01*
X005284Y025307D01*
X005276Y025302D01*
X005302Y025256D01*
X005325Y025208D01*
X005345Y025158D01*
X005361Y025107D01*
X005374Y025056D01*
X005383Y025003D01*
X005389Y024950D01*
X005391Y024897D01*
X005382Y024897D01*
X005380Y024950D01*
X005374Y025002D01*
X005365Y025054D01*
X005352Y025105D01*
X005336Y025155D01*
X005317Y025204D01*
X005294Y025252D01*
X005269Y025298D01*
X005261Y025293D01*
X005286Y025247D01*
X005309Y025200D01*
X005328Y025152D01*
X005344Y025102D01*
X005356Y025052D01*
X005365Y025001D01*
X005371Y024949D01*
X005373Y024897D01*
X005364Y024897D01*
X005362Y024948D01*
X005356Y024999D01*
X005347Y025050D01*
X005335Y025100D01*
X005319Y025149D01*
X005301Y025197D01*
X005278Y025243D01*
X005253Y025288D01*
X005346Y026496D02*
X005267Y026539D01*
X005267Y026538D02*
X005290Y026585D01*
X005309Y026633D01*
X005325Y026682D01*
X005338Y026733D01*
X005347Y026784D01*
X005353Y026835D01*
X005355Y026887D01*
X005444Y026887D01*
X005445Y026887D01*
X005443Y026836D01*
X005438Y026785D01*
X005430Y026735D01*
X005419Y026685D01*
X005405Y026636D01*
X005389Y026588D01*
X005369Y026541D01*
X005346Y026496D01*
X005338Y026500D01*
X005364Y026552D01*
X005385Y026605D01*
X005403Y026660D01*
X005417Y026716D01*
X005427Y026772D01*
X005434Y026829D01*
X005436Y026887D01*
X005427Y026887D01*
X005425Y026830D01*
X005418Y026774D01*
X005408Y026718D01*
X005394Y026662D01*
X005377Y026608D01*
X005355Y026555D01*
X005330Y026504D01*
X005323Y026509D01*
X005347Y026559D01*
X005368Y026611D01*
X005386Y026665D01*
X005400Y026719D01*
X005410Y026775D01*
X005416Y026831D01*
X005418Y026887D01*
X005409Y026887D01*
X005407Y026831D01*
X005401Y026776D01*
X005391Y026721D01*
X005377Y026667D01*
X005360Y026614D01*
X005339Y026563D01*
X005315Y026513D01*
X005307Y026517D01*
X005331Y026567D01*
X005351Y026618D01*
X005369Y026670D01*
X005382Y026723D01*
X005392Y026777D01*
X005398Y026832D01*
X005400Y026887D01*
X005391Y026887D01*
X005389Y026833D01*
X005383Y026779D01*
X005373Y026725D01*
X005360Y026672D01*
X005343Y026621D01*
X005323Y026570D01*
X005299Y026521D01*
X005291Y026526D01*
X005314Y026574D01*
X005335Y026624D01*
X005351Y026675D01*
X005364Y026727D01*
X005374Y026780D01*
X005380Y026833D01*
X005382Y026887D01*
X005373Y026887D01*
X005371Y026834D01*
X005365Y026781D01*
X005356Y026729D01*
X005343Y026677D01*
X005326Y026627D01*
X005306Y026578D01*
X005283Y026530D01*
X005275Y026534D01*
X005298Y026581D01*
X005318Y026630D01*
X005334Y026680D01*
X005347Y026731D01*
X005356Y026782D01*
X005362Y026835D01*
X005364Y026887D01*
X005444Y026896D02*
X005354Y026896D01*
X005355Y026897D02*
X005353Y026948D01*
X005347Y026998D01*
X005339Y027048D01*
X005326Y027098D01*
X005311Y027146D01*
X005292Y027193D01*
X005270Y027239D01*
X005246Y027283D01*
X005322Y027330D01*
X005322Y027331D01*
X005350Y027281D01*
X005375Y027229D01*
X005396Y027176D01*
X005413Y027122D01*
X005427Y027067D01*
X005437Y027011D01*
X005443Y026954D01*
X005445Y026897D01*
X005436Y026897D01*
X005434Y026953D01*
X005428Y027009D01*
X005418Y027065D01*
X005404Y027120D01*
X005387Y027173D01*
X005366Y027226D01*
X005342Y027277D01*
X005315Y027326D01*
X005307Y027321D01*
X005334Y027273D01*
X005358Y027222D01*
X005379Y027170D01*
X005396Y027117D01*
X005409Y027063D01*
X005419Y027008D01*
X005425Y026953D01*
X005427Y026897D01*
X005418Y026897D01*
X005416Y026952D01*
X005410Y027007D01*
X005400Y027061D01*
X005387Y027115D01*
X005370Y027167D01*
X005350Y027219D01*
X005326Y027268D01*
X005299Y027316D01*
X005292Y027312D01*
X005318Y027264D01*
X005342Y027215D01*
X005362Y027164D01*
X005378Y027112D01*
X005391Y027059D01*
X005401Y027006D01*
X005407Y026951D01*
X005409Y026897D01*
X005400Y026897D01*
X005398Y026951D01*
X005392Y027004D01*
X005383Y027058D01*
X005370Y027110D01*
X005353Y027161D01*
X005334Y027211D01*
X005310Y027260D01*
X005284Y027307D01*
X005276Y027302D01*
X005302Y027256D01*
X005325Y027208D01*
X005345Y027158D01*
X005361Y027107D01*
X005374Y027056D01*
X005383Y027003D01*
X005389Y026950D01*
X005391Y026897D01*
X005382Y026897D01*
X005380Y026950D01*
X005374Y027002D01*
X005365Y027054D01*
X005352Y027105D01*
X005336Y027155D01*
X005317Y027204D01*
X005294Y027252D01*
X005269Y027298D01*
X005261Y027293D01*
X005286Y027247D01*
X005309Y027200D01*
X005328Y027152D01*
X005344Y027102D01*
X005356Y027052D01*
X005365Y027001D01*
X005371Y026949D01*
X005373Y026897D01*
X005364Y026897D01*
X005362Y026948D01*
X005356Y026999D01*
X005347Y027050D01*
X005335Y027100D01*
X005319Y027149D01*
X005301Y027197D01*
X005278Y027243D01*
X005253Y027288D01*
X011854Y027288D02*
X011933Y027245D01*
X011933Y027246D02*
X011910Y027199D01*
X011891Y027151D01*
X011875Y027102D01*
X011862Y027051D01*
X011853Y027000D01*
X011847Y026949D01*
X011845Y026897D01*
X011756Y026897D01*
X011755Y026897D01*
X011757Y026948D01*
X011762Y026999D01*
X011770Y027049D01*
X011781Y027099D01*
X011795Y027148D01*
X011811Y027196D01*
X011831Y027243D01*
X011854Y027288D01*
X011862Y027284D01*
X011836Y027232D01*
X011815Y027179D01*
X011797Y027124D01*
X011783Y027068D01*
X011773Y027012D01*
X011766Y026955D01*
X011764Y026897D01*
X011773Y026897D01*
X011775Y026954D01*
X011782Y027010D01*
X011792Y027066D01*
X011806Y027122D01*
X011823Y027176D01*
X011845Y027229D01*
X011870Y027280D01*
X011877Y027275D01*
X011853Y027225D01*
X011832Y027173D01*
X011814Y027119D01*
X011800Y027065D01*
X011790Y027009D01*
X011784Y026953D01*
X011782Y026897D01*
X011791Y026897D01*
X011793Y026953D01*
X011799Y027008D01*
X011809Y027063D01*
X011823Y027117D01*
X011840Y027170D01*
X011861Y027221D01*
X011885Y027271D01*
X011893Y027267D01*
X011869Y027217D01*
X011849Y027166D01*
X011831Y027114D01*
X011818Y027061D01*
X011808Y027007D01*
X011802Y026952D01*
X011800Y026897D01*
X011809Y026897D01*
X011811Y026951D01*
X011817Y027005D01*
X011827Y027059D01*
X011840Y027112D01*
X011857Y027163D01*
X011877Y027214D01*
X011901Y027263D01*
X011909Y027258D01*
X011886Y027210D01*
X011865Y027160D01*
X011849Y027109D01*
X011836Y027057D01*
X011826Y027004D01*
X011820Y026951D01*
X011818Y026897D01*
X011827Y026897D01*
X011829Y026950D01*
X011835Y027003D01*
X011844Y027055D01*
X011857Y027107D01*
X011874Y027157D01*
X011894Y027206D01*
X011917Y027254D01*
X011925Y027250D01*
X011902Y027203D01*
X011882Y027154D01*
X011866Y027104D01*
X011853Y027053D01*
X011844Y027002D01*
X011838Y026949D01*
X011836Y026897D01*
X011756Y026888D02*
X011846Y026888D01*
X011845Y026887D02*
X011847Y026836D01*
X011853Y026786D01*
X011861Y026736D01*
X011874Y026686D01*
X011889Y026638D01*
X011908Y026591D01*
X011930Y026545D01*
X011954Y026501D01*
X011878Y026454D01*
X011878Y026453D01*
X011850Y026503D01*
X011825Y026555D01*
X011804Y026608D01*
X011787Y026662D01*
X011773Y026717D01*
X011763Y026773D01*
X011757Y026830D01*
X011755Y026887D01*
X011764Y026887D01*
X011766Y026831D01*
X011772Y026775D01*
X011782Y026719D01*
X011796Y026664D01*
X011813Y026611D01*
X011834Y026558D01*
X011858Y026507D01*
X011885Y026458D01*
X011893Y026463D01*
X011866Y026511D01*
X011842Y026562D01*
X011821Y026614D01*
X011804Y026667D01*
X011791Y026721D01*
X011781Y026776D01*
X011775Y026831D01*
X011773Y026887D01*
X011782Y026887D01*
X011784Y026832D01*
X011790Y026777D01*
X011800Y026723D01*
X011813Y026669D01*
X011830Y026617D01*
X011850Y026565D01*
X011874Y026516D01*
X011901Y026468D01*
X011908Y026472D01*
X011882Y026520D01*
X011858Y026569D01*
X011838Y026620D01*
X011822Y026672D01*
X011809Y026725D01*
X011799Y026778D01*
X011793Y026833D01*
X011791Y026887D01*
X011800Y026887D01*
X011802Y026833D01*
X011808Y026780D01*
X011817Y026726D01*
X011830Y026674D01*
X011847Y026623D01*
X011866Y026573D01*
X011890Y026524D01*
X011916Y026477D01*
X011924Y026482D01*
X011898Y026528D01*
X011875Y026576D01*
X011855Y026626D01*
X011839Y026677D01*
X011826Y026728D01*
X011817Y026781D01*
X011811Y026834D01*
X011809Y026887D01*
X011818Y026887D01*
X011820Y026834D01*
X011826Y026782D01*
X011835Y026730D01*
X011848Y026679D01*
X011864Y026629D01*
X011883Y026580D01*
X011906Y026532D01*
X011931Y026486D01*
X011939Y026491D01*
X011914Y026537D01*
X011891Y026584D01*
X011872Y026632D01*
X011856Y026682D01*
X011844Y026732D01*
X011835Y026783D01*
X011829Y026835D01*
X011827Y026887D01*
X011836Y026887D01*
X011838Y026836D01*
X011844Y026785D01*
X011853Y026734D01*
X011865Y026684D01*
X011881Y026635D01*
X011899Y026587D01*
X011922Y026541D01*
X011947Y026496D01*
X011854Y025288D02*
X011933Y025245D01*
X011933Y025246D02*
X011910Y025199D01*
X011891Y025151D01*
X011875Y025102D01*
X011862Y025051D01*
X011853Y025000D01*
X011847Y024949D01*
X011845Y024897D01*
X011756Y024897D01*
X011755Y024897D01*
X011757Y024948D01*
X011762Y024999D01*
X011770Y025049D01*
X011781Y025099D01*
X011795Y025148D01*
X011811Y025196D01*
X011831Y025243D01*
X011854Y025288D01*
X011862Y025284D01*
X011836Y025232D01*
X011815Y025179D01*
X011797Y025124D01*
X011783Y025068D01*
X011773Y025012D01*
X011766Y024955D01*
X011764Y024897D01*
X011773Y024897D01*
X011775Y024954D01*
X011782Y025010D01*
X011792Y025066D01*
X011806Y025122D01*
X011823Y025176D01*
X011845Y025229D01*
X011870Y025280D01*
X011877Y025275D01*
X011853Y025225D01*
X011832Y025173D01*
X011814Y025119D01*
X011800Y025065D01*
X011790Y025009D01*
X011784Y024953D01*
X011782Y024897D01*
X011791Y024897D01*
X011793Y024953D01*
X011799Y025008D01*
X011809Y025063D01*
X011823Y025117D01*
X011840Y025170D01*
X011861Y025221D01*
X011885Y025271D01*
X011893Y025267D01*
X011869Y025217D01*
X011849Y025166D01*
X011831Y025114D01*
X011818Y025061D01*
X011808Y025007D01*
X011802Y024952D01*
X011800Y024897D01*
X011809Y024897D01*
X011811Y024951D01*
X011817Y025005D01*
X011827Y025059D01*
X011840Y025112D01*
X011857Y025163D01*
X011877Y025214D01*
X011901Y025263D01*
X011909Y025258D01*
X011886Y025210D01*
X011865Y025160D01*
X011849Y025109D01*
X011836Y025057D01*
X011826Y025004D01*
X011820Y024951D01*
X011818Y024897D01*
X011827Y024897D01*
X011829Y024950D01*
X011835Y025003D01*
X011844Y025055D01*
X011857Y025107D01*
X011874Y025157D01*
X011894Y025206D01*
X011917Y025254D01*
X011925Y025250D01*
X011902Y025203D01*
X011882Y025154D01*
X011866Y025104D01*
X011853Y025053D01*
X011844Y025002D01*
X011838Y024949D01*
X011836Y024897D01*
X011756Y024888D02*
X011846Y024888D01*
X011845Y024887D02*
X011847Y024836D01*
X011853Y024786D01*
X011861Y024736D01*
X011874Y024686D01*
X011889Y024638D01*
X011908Y024591D01*
X011930Y024545D01*
X011954Y024501D01*
X011878Y024454D01*
X011878Y024453D01*
X011850Y024503D01*
X011825Y024555D01*
X011804Y024608D01*
X011787Y024662D01*
X011773Y024717D01*
X011763Y024773D01*
X011757Y024830D01*
X011755Y024887D01*
X011764Y024887D01*
X011766Y024831D01*
X011772Y024775D01*
X011782Y024719D01*
X011796Y024664D01*
X011813Y024611D01*
X011834Y024558D01*
X011858Y024507D01*
X011885Y024458D01*
X011893Y024463D01*
X011866Y024511D01*
X011842Y024562D01*
X011821Y024614D01*
X011804Y024667D01*
X011791Y024721D01*
X011781Y024776D01*
X011775Y024831D01*
X011773Y024887D01*
X011782Y024887D01*
X011784Y024832D01*
X011790Y024777D01*
X011800Y024723D01*
X011813Y024669D01*
X011830Y024617D01*
X011850Y024565D01*
X011874Y024516D01*
X011901Y024468D01*
X011908Y024472D01*
X011882Y024520D01*
X011858Y024569D01*
X011838Y024620D01*
X011822Y024672D01*
X011809Y024725D01*
X011799Y024778D01*
X011793Y024833D01*
X011791Y024887D01*
X011800Y024887D01*
X011802Y024833D01*
X011808Y024780D01*
X011817Y024726D01*
X011830Y024674D01*
X011847Y024623D01*
X011866Y024573D01*
X011890Y024524D01*
X011916Y024477D01*
X011924Y024482D01*
X011898Y024528D01*
X011875Y024576D01*
X011855Y024626D01*
X011839Y024677D01*
X011826Y024728D01*
X011817Y024781D01*
X011811Y024834D01*
X011809Y024887D01*
X011818Y024887D01*
X011820Y024834D01*
X011826Y024782D01*
X011835Y024730D01*
X011848Y024679D01*
X011864Y024629D01*
X011883Y024580D01*
X011906Y024532D01*
X011931Y024486D01*
X011939Y024491D01*
X011914Y024537D01*
X011891Y024584D01*
X011872Y024632D01*
X011856Y024682D01*
X011844Y024732D01*
X011835Y024783D01*
X011829Y024835D01*
X011827Y024887D01*
X011836Y024887D01*
X011838Y024836D01*
X011844Y024785D01*
X011853Y024734D01*
X011865Y024684D01*
X011881Y024635D01*
X011899Y024587D01*
X011922Y024541D01*
X011947Y024496D01*
X011854Y023288D02*
X011933Y023245D01*
X011933Y023246D02*
X011910Y023199D01*
X011891Y023151D01*
X011875Y023102D01*
X011862Y023051D01*
X011853Y023000D01*
X011847Y022949D01*
X011845Y022897D01*
X011756Y022897D01*
X011755Y022897D01*
X011757Y022948D01*
X011762Y022999D01*
X011770Y023049D01*
X011781Y023099D01*
X011795Y023148D01*
X011811Y023196D01*
X011831Y023243D01*
X011854Y023288D01*
X011862Y023284D01*
X011836Y023232D01*
X011815Y023179D01*
X011797Y023124D01*
X011783Y023068D01*
X011773Y023012D01*
X011766Y022955D01*
X011764Y022897D01*
X011773Y022897D01*
X011775Y022954D01*
X011782Y023010D01*
X011792Y023066D01*
X011806Y023122D01*
X011823Y023176D01*
X011845Y023229D01*
X011870Y023280D01*
X011877Y023275D01*
X011853Y023225D01*
X011832Y023173D01*
X011814Y023119D01*
X011800Y023065D01*
X011790Y023009D01*
X011784Y022953D01*
X011782Y022897D01*
X011791Y022897D01*
X011793Y022953D01*
X011799Y023008D01*
X011809Y023063D01*
X011823Y023117D01*
X011840Y023170D01*
X011861Y023221D01*
X011885Y023271D01*
X011893Y023267D01*
X011869Y023217D01*
X011849Y023166D01*
X011831Y023114D01*
X011818Y023061D01*
X011808Y023007D01*
X011802Y022952D01*
X011800Y022897D01*
X011809Y022897D01*
X011811Y022951D01*
X011817Y023005D01*
X011827Y023059D01*
X011840Y023112D01*
X011857Y023163D01*
X011877Y023214D01*
X011901Y023263D01*
X011909Y023258D01*
X011886Y023210D01*
X011865Y023160D01*
X011849Y023109D01*
X011836Y023057D01*
X011826Y023004D01*
X011820Y022951D01*
X011818Y022897D01*
X011827Y022897D01*
X011829Y022950D01*
X011835Y023003D01*
X011844Y023055D01*
X011857Y023107D01*
X011874Y023157D01*
X011894Y023206D01*
X011917Y023254D01*
X011925Y023250D01*
X011902Y023203D01*
X011882Y023154D01*
X011866Y023104D01*
X011853Y023053D01*
X011844Y023002D01*
X011838Y022949D01*
X011836Y022897D01*
X011756Y022888D02*
X011846Y022888D01*
X011845Y022887D02*
X011847Y022836D01*
X011853Y022786D01*
X011861Y022736D01*
X011874Y022686D01*
X011889Y022638D01*
X011908Y022591D01*
X011930Y022545D01*
X011954Y022501D01*
X011878Y022454D01*
X011878Y022453D01*
X011850Y022503D01*
X011825Y022555D01*
X011804Y022608D01*
X011787Y022662D01*
X011773Y022717D01*
X011763Y022773D01*
X011757Y022830D01*
X011755Y022887D01*
X011764Y022887D01*
X011766Y022831D01*
X011772Y022775D01*
X011782Y022719D01*
X011796Y022664D01*
X011813Y022611D01*
X011834Y022558D01*
X011858Y022507D01*
X011885Y022458D01*
X011893Y022463D01*
X011866Y022511D01*
X011842Y022562D01*
X011821Y022614D01*
X011804Y022667D01*
X011791Y022721D01*
X011781Y022776D01*
X011775Y022831D01*
X011773Y022887D01*
X011782Y022887D01*
X011784Y022832D01*
X011790Y022777D01*
X011800Y022723D01*
X011813Y022669D01*
X011830Y022617D01*
X011850Y022565D01*
X011874Y022516D01*
X011901Y022468D01*
X011908Y022472D01*
X011882Y022520D01*
X011858Y022569D01*
X011838Y022620D01*
X011822Y022672D01*
X011809Y022725D01*
X011799Y022778D01*
X011793Y022833D01*
X011791Y022887D01*
X011800Y022887D01*
X011802Y022833D01*
X011808Y022780D01*
X011817Y022726D01*
X011830Y022674D01*
X011847Y022623D01*
X011866Y022573D01*
X011890Y022524D01*
X011916Y022477D01*
X011924Y022482D01*
X011898Y022528D01*
X011875Y022576D01*
X011855Y022626D01*
X011839Y022677D01*
X011826Y022728D01*
X011817Y022781D01*
X011811Y022834D01*
X011809Y022887D01*
X011818Y022887D01*
X011820Y022834D01*
X011826Y022782D01*
X011835Y022730D01*
X011848Y022679D01*
X011864Y022629D01*
X011883Y022580D01*
X011906Y022532D01*
X011931Y022486D01*
X011939Y022491D01*
X011914Y022537D01*
X011891Y022584D01*
X011872Y022632D01*
X011856Y022682D01*
X011844Y022732D01*
X011835Y022783D01*
X011829Y022835D01*
X011827Y022887D01*
X011836Y022887D01*
X011838Y022836D01*
X011844Y022785D01*
X011853Y022734D01*
X011865Y022684D01*
X011881Y022635D01*
X011899Y022587D01*
X011922Y022541D01*
X011947Y022496D01*
X011854Y021288D02*
X011933Y021245D01*
X011933Y021246D02*
X011910Y021199D01*
X011891Y021151D01*
X011875Y021102D01*
X011862Y021051D01*
X011853Y021000D01*
X011847Y020949D01*
X011845Y020897D01*
X011756Y020897D01*
X011755Y020897D01*
X011757Y020948D01*
X011762Y020999D01*
X011770Y021049D01*
X011781Y021099D01*
X011795Y021148D01*
X011811Y021196D01*
X011831Y021243D01*
X011854Y021288D01*
X011862Y021284D01*
X011836Y021232D01*
X011815Y021179D01*
X011797Y021124D01*
X011783Y021068D01*
X011773Y021012D01*
X011766Y020955D01*
X011764Y020897D01*
X011773Y020897D01*
X011775Y020954D01*
X011782Y021010D01*
X011792Y021066D01*
X011806Y021122D01*
X011823Y021176D01*
X011845Y021229D01*
X011870Y021280D01*
X011877Y021275D01*
X011853Y021225D01*
X011832Y021173D01*
X011814Y021119D01*
X011800Y021065D01*
X011790Y021009D01*
X011784Y020953D01*
X011782Y020897D01*
X011791Y020897D01*
X011793Y020953D01*
X011799Y021008D01*
X011809Y021063D01*
X011823Y021117D01*
X011840Y021170D01*
X011861Y021221D01*
X011885Y021271D01*
X011893Y021267D01*
X011869Y021217D01*
X011849Y021166D01*
X011831Y021114D01*
X011818Y021061D01*
X011808Y021007D01*
X011802Y020952D01*
X011800Y020897D01*
X011809Y020897D01*
X011811Y020951D01*
X011817Y021005D01*
X011827Y021059D01*
X011840Y021112D01*
X011857Y021163D01*
X011877Y021214D01*
X011901Y021263D01*
X011909Y021258D01*
X011886Y021210D01*
X011865Y021160D01*
X011849Y021109D01*
X011836Y021057D01*
X011826Y021004D01*
X011820Y020951D01*
X011818Y020897D01*
X011827Y020897D01*
X011829Y020950D01*
X011835Y021003D01*
X011844Y021055D01*
X011857Y021107D01*
X011874Y021157D01*
X011894Y021206D01*
X011917Y021254D01*
X011925Y021250D01*
X011902Y021203D01*
X011882Y021154D01*
X011866Y021104D01*
X011853Y021053D01*
X011844Y021002D01*
X011838Y020949D01*
X011836Y020897D01*
X011756Y020888D02*
X011846Y020888D01*
X011845Y020887D02*
X011847Y020836D01*
X011853Y020786D01*
X011861Y020736D01*
X011874Y020686D01*
X011889Y020638D01*
X011908Y020591D01*
X011930Y020545D01*
X011954Y020501D01*
X011878Y020454D01*
X011878Y020453D01*
X011850Y020503D01*
X011825Y020555D01*
X011804Y020608D01*
X011787Y020662D01*
X011773Y020717D01*
X011763Y020773D01*
X011757Y020830D01*
X011755Y020887D01*
X011764Y020887D01*
X011766Y020831D01*
X011772Y020775D01*
X011782Y020719D01*
X011796Y020664D01*
X011813Y020611D01*
X011834Y020558D01*
X011858Y020507D01*
X011885Y020458D01*
X011893Y020463D01*
X011866Y020511D01*
X011842Y020562D01*
X011821Y020614D01*
X011804Y020667D01*
X011791Y020721D01*
X011781Y020776D01*
X011775Y020831D01*
X011773Y020887D01*
X011782Y020887D01*
X011784Y020832D01*
X011790Y020777D01*
X011800Y020723D01*
X011813Y020669D01*
X011830Y020617D01*
X011850Y020565D01*
X011874Y020516D01*
X011901Y020468D01*
X011908Y020472D01*
X011882Y020520D01*
X011858Y020569D01*
X011838Y020620D01*
X011822Y020672D01*
X011809Y020725D01*
X011799Y020778D01*
X011793Y020833D01*
X011791Y020887D01*
X011800Y020887D01*
X011802Y020833D01*
X011808Y020780D01*
X011817Y020726D01*
X011830Y020674D01*
X011847Y020623D01*
X011866Y020573D01*
X011890Y020524D01*
X011916Y020477D01*
X011924Y020482D01*
X011898Y020528D01*
X011875Y020576D01*
X011855Y020626D01*
X011839Y020677D01*
X011826Y020728D01*
X011817Y020781D01*
X011811Y020834D01*
X011809Y020887D01*
X011818Y020887D01*
X011820Y020834D01*
X011826Y020782D01*
X011835Y020730D01*
X011848Y020679D01*
X011864Y020629D01*
X011883Y020580D01*
X011906Y020532D01*
X011931Y020486D01*
X011939Y020491D01*
X011914Y020537D01*
X011891Y020584D01*
X011872Y020632D01*
X011856Y020682D01*
X011844Y020732D01*
X011835Y020783D01*
X011829Y020835D01*
X011827Y020887D01*
X011836Y020887D01*
X011838Y020836D01*
X011844Y020785D01*
X011853Y020734D01*
X011865Y020684D01*
X011881Y020635D01*
X011899Y020587D01*
X011922Y020541D01*
X011947Y020496D01*
M02*
