G75*
%MOIN*%
%OFA0B0*%
%FSLAX24Y24*%
%IPPOS*%
%LPD*%
%AMOC8*
5,1,8,0,0,1.08239X$1,22.5*
%
%ADD10C,0.0040*%
%ADD11C,0.0740*%
%ADD12R,0.0740X0.0740*%
%ADD13C,0.0480*%
%ADD14C,0.0100*%
%ADD15C,0.0060*%
%ADD16C,0.0270*%
D10*
X007773Y025912D02*
X007927Y026065D01*
X007927Y026372D01*
X008080Y026219D02*
X008234Y026372D01*
X008234Y025912D01*
X008387Y025912D02*
X008080Y025912D01*
X007773Y025912D02*
X007620Y026065D01*
X007620Y026372D01*
X007348Y026912D02*
X007348Y027142D01*
X007271Y027219D01*
X007041Y027219D01*
X007041Y026912D01*
X006887Y026912D02*
X006657Y026912D01*
X006580Y026989D01*
X006657Y027065D01*
X006887Y027065D01*
X006887Y027142D02*
X006887Y026912D01*
X006887Y027142D02*
X006811Y027219D01*
X006657Y027219D01*
X006427Y027372D02*
X006120Y027372D01*
X006120Y026912D01*
X006120Y027142D02*
X006273Y027142D01*
X007962Y026989D02*
X008038Y026912D01*
X008192Y026912D01*
X008268Y026989D01*
X008422Y026989D02*
X008499Y026912D01*
X008652Y026912D01*
X008729Y026989D01*
X008729Y027142D01*
X008652Y027219D01*
X008499Y027219D01*
X008422Y027142D01*
X008422Y026989D01*
X008268Y027296D02*
X008192Y027372D01*
X008038Y027372D01*
X007962Y027296D01*
X007962Y026989D01*
X008882Y026912D02*
X008882Y027219D01*
X009113Y027219D01*
X009189Y027142D01*
X009189Y026912D01*
X009343Y027219D02*
X009496Y027219D01*
X009419Y027296D02*
X009419Y026989D01*
X009496Y026912D01*
X009650Y026912D02*
X009650Y027219D01*
X009803Y027219D02*
X009650Y027065D01*
X009803Y027219D02*
X009880Y027219D01*
X010033Y027142D02*
X010033Y026989D01*
X010110Y026912D01*
X010264Y026912D01*
X010340Y026989D01*
X010340Y027142D01*
X010264Y027219D01*
X010110Y027219D01*
X010033Y027142D01*
X010494Y026912D02*
X010647Y026912D01*
X010570Y026912D02*
X010570Y027372D01*
X010494Y027372D01*
X017120Y026338D02*
X017120Y026261D01*
X017120Y026338D02*
X017580Y026338D01*
X017580Y026414D02*
X017580Y026261D01*
X017503Y026108D02*
X017580Y026031D01*
X017580Y025801D01*
X017427Y025877D02*
X017427Y026031D01*
X017503Y026108D01*
X017273Y026108D02*
X017273Y025877D01*
X017350Y025801D01*
X017427Y025877D01*
X017503Y025647D02*
X017427Y025570D01*
X017427Y025417D01*
X017350Y025340D01*
X017273Y025417D01*
X017273Y025647D01*
X017503Y025647D02*
X017580Y025570D01*
X017580Y025340D01*
X017427Y025187D02*
X017427Y024880D01*
X017503Y024880D02*
X017350Y024880D01*
X017273Y024957D01*
X017273Y025110D01*
X017350Y025187D01*
X017427Y025187D01*
X017580Y025110D02*
X017580Y024957D01*
X017503Y024880D01*
X017273Y024726D02*
X017273Y024650D01*
X017427Y024496D01*
X017580Y024496D02*
X017273Y024496D01*
X017196Y024343D02*
X017120Y024266D01*
X017120Y024036D01*
X017580Y024036D01*
X017580Y024266D01*
X017503Y024343D01*
X017196Y024343D01*
X017350Y023422D02*
X017273Y023345D01*
X017273Y023115D01*
X017580Y023115D01*
X017427Y022961D02*
X017427Y022655D01*
X017503Y022655D02*
X017350Y022655D01*
X017273Y022731D01*
X017273Y022885D01*
X017350Y022961D01*
X017427Y022961D01*
X017580Y022885D02*
X017580Y022731D01*
X017503Y022655D01*
X017580Y022501D02*
X017503Y022424D01*
X017196Y022424D01*
X017273Y022348D02*
X017273Y022501D01*
X017273Y022194D02*
X017273Y021964D01*
X017350Y021887D01*
X017427Y021964D01*
X017427Y022117D01*
X017503Y022194D01*
X017580Y022117D01*
X017580Y021887D01*
X017273Y021734D02*
X017273Y021657D01*
X017427Y021504D01*
X017580Y021504D02*
X017273Y021504D01*
X017350Y021350D02*
X017273Y021273D01*
X017273Y021120D01*
X017427Y021120D02*
X017427Y021350D01*
X017350Y021350D02*
X017580Y021350D01*
X017580Y021120D01*
X017503Y021043D01*
X017427Y021120D01*
X017503Y020890D02*
X017580Y020813D01*
X017580Y020660D01*
X017503Y020583D01*
X017196Y020583D01*
X017120Y020660D01*
X017120Y020813D01*
X017196Y020890D01*
X017350Y023422D02*
X017580Y023422D01*
X017503Y026568D02*
X017350Y026568D01*
X017273Y026645D01*
X017273Y026798D01*
X017350Y026875D01*
X017427Y026875D01*
X017427Y026568D01*
X017503Y026568D02*
X017580Y026645D01*
X017580Y026798D01*
X017580Y027028D02*
X017273Y027028D01*
X017427Y027028D02*
X017273Y027182D01*
X017273Y027258D01*
D11*
X001100Y003892D03*
X001100Y004892D03*
X001100Y005892D03*
X001100Y006892D03*
X001100Y007892D03*
X001100Y008892D03*
X001100Y009892D03*
X001100Y010892D03*
X001100Y011892D03*
X001100Y012892D03*
X001100Y013892D03*
X001100Y014892D03*
X002100Y014892D03*
X002100Y013892D03*
X002100Y012892D03*
X002100Y011892D03*
X002100Y010892D03*
X002100Y009892D03*
X002100Y008892D03*
X002100Y007892D03*
X002100Y006892D03*
X002100Y005892D03*
X002100Y004892D03*
X002100Y003892D03*
X003100Y003892D03*
X003100Y004892D03*
X003100Y005892D03*
X003100Y006892D03*
X003100Y007892D03*
X003100Y008892D03*
X003100Y009892D03*
X003100Y010892D03*
X003100Y011892D03*
X003100Y012892D03*
X003100Y013892D03*
X003100Y014892D03*
X008100Y014892D03*
X008100Y013892D03*
X008100Y012892D03*
X008100Y011892D03*
X008100Y010892D03*
X008100Y009892D03*
X008100Y008892D03*
X008100Y007892D03*
X008100Y006892D03*
X008100Y005892D03*
X008100Y004892D03*
X008100Y003892D03*
X009100Y003892D03*
X009100Y004892D03*
X009100Y005892D03*
X009100Y006892D03*
X009100Y007892D03*
X009100Y008892D03*
X009100Y009892D03*
X009100Y010892D03*
X009100Y011892D03*
X009100Y012892D03*
X009100Y013892D03*
X009100Y014892D03*
X010100Y014892D03*
X010100Y013892D03*
X010100Y012892D03*
X010100Y011892D03*
X010100Y010892D03*
X010100Y009892D03*
X010100Y008892D03*
X010100Y007892D03*
X010100Y006892D03*
X010100Y005892D03*
X010100Y004892D03*
X010100Y003892D03*
X012850Y007892D03*
X013350Y006892D03*
X013850Y007892D03*
X014350Y006892D03*
X014850Y007892D03*
X015350Y006892D03*
X015850Y007892D03*
X013100Y020892D03*
X012100Y020892D03*
X012100Y022892D03*
X013100Y022892D03*
X013100Y024892D03*
X012100Y024892D03*
X012100Y026892D03*
X013100Y026892D03*
X005100Y026892D03*
X004100Y026892D03*
X004100Y024892D03*
X005100Y024892D03*
X005100Y022892D03*
X004100Y022892D03*
D12*
X012350Y006892D03*
D13*
X012100Y009412D02*
X012100Y009892D01*
X013100Y009892D02*
X013100Y009412D01*
X013100Y012892D02*
X013100Y013372D01*
X012100Y013372D02*
X012100Y012892D01*
X012100Y014912D02*
X012100Y015392D01*
X013100Y015392D02*
X013100Y014912D01*
X013100Y018392D02*
X013100Y018872D01*
X012100Y018872D02*
X012100Y018392D01*
X009600Y017892D02*
X009600Y017412D01*
X008600Y017412D02*
X008600Y017892D01*
X008600Y020892D02*
X008600Y021372D01*
X009600Y021372D02*
X009600Y020892D01*
X006100Y020892D02*
X006100Y021372D01*
X005100Y021372D02*
X005100Y020892D01*
X005100Y017892D02*
X005100Y017412D01*
X006100Y017412D02*
X006100Y017892D01*
X002600Y017892D02*
X002600Y017412D01*
X001600Y017412D02*
X001600Y017892D01*
X001600Y020892D02*
X001600Y021372D01*
X002600Y021372D02*
X002600Y020892D01*
X015600Y018872D02*
X015600Y018392D01*
X016600Y018392D02*
X016600Y018872D01*
X016600Y015392D02*
X016600Y014912D01*
X015600Y014912D02*
X015600Y015392D01*
X015600Y013372D02*
X015600Y012892D01*
X016600Y012892D02*
X016600Y013372D01*
X016600Y009892D02*
X016600Y009412D01*
X015600Y009412D02*
X015600Y009892D01*
D14*
X010600Y010392D02*
X010600Y019892D01*
X009600Y020892D01*
X009600Y017892D02*
X009600Y005392D01*
X010100Y004892D01*
X009100Y004892D01*
X008100Y004892D01*
X008100Y003892D02*
X009100Y003892D01*
X010100Y003892D01*
X003100Y003892D02*
X002100Y003892D01*
X001100Y003892D01*
X001100Y005892D02*
X002100Y005892D01*
X003100Y005892D01*
X003100Y006892D02*
X002100Y006892D01*
X001100Y006892D01*
X001100Y008892D02*
X002100Y008892D01*
X003100Y008892D01*
X003100Y009892D02*
X002100Y009892D01*
X001100Y009892D01*
X001100Y010892D02*
X002100Y010892D01*
X003100Y010892D01*
X003100Y011892D02*
X002100Y011892D01*
X002100Y012892D02*
X003100Y012892D01*
X003100Y013892D02*
X002100Y013892D01*
X002100Y014892D02*
X003100Y014892D01*
D15*
X003600Y013392D02*
X003600Y019892D01*
X002600Y020892D01*
X002100Y021392D02*
X003600Y022892D01*
X004100Y022892D01*
X005100Y022892D02*
X005600Y022392D01*
X005600Y013392D01*
X003600Y011392D01*
X001600Y011392D01*
X001600Y012392D01*
X001100Y012892D01*
X001100Y013892D02*
X000600Y014392D01*
X000600Y025392D01*
X004600Y025392D01*
X005100Y024892D01*
X004600Y024392D02*
X004100Y024892D01*
X004600Y024392D02*
X004600Y018392D01*
X005100Y017892D01*
X004100Y019392D02*
X004100Y012892D01*
X003100Y011892D01*
X003100Y008892D02*
X006100Y011892D01*
X006100Y013892D01*
X009100Y016892D01*
X009100Y023892D01*
X012100Y026892D01*
X013100Y026892D02*
X014100Y025892D01*
X014100Y019392D01*
X015600Y017892D01*
X015600Y015392D01*
X014600Y016892D02*
X014600Y007892D01*
X014850Y007892D01*
X014100Y007392D02*
X014100Y006892D01*
X014350Y006892D01*
X014100Y007392D02*
X012600Y007392D01*
X012100Y007892D01*
X012600Y008392D01*
X012600Y012392D01*
X013100Y012892D01*
X013600Y014892D02*
X013600Y010392D01*
X013100Y009892D01*
X012100Y009892D02*
X011600Y010392D01*
X011600Y023392D01*
X012600Y024392D01*
X012600Y025392D01*
X013600Y025392D01*
X013600Y023392D01*
X013100Y022892D01*
X012600Y023892D02*
X013100Y024392D01*
X013100Y024892D01*
X012600Y023892D02*
X012600Y015892D01*
X012100Y015392D01*
X013100Y015392D02*
X013600Y014892D01*
X014600Y016892D02*
X013100Y018392D01*
X013100Y019892D02*
X013100Y020892D01*
X013100Y019892D02*
X015100Y017892D01*
X015100Y010392D01*
X015600Y009892D01*
X015850Y007892D02*
X016100Y007892D01*
X016100Y012392D01*
X016100Y017892D01*
X015600Y018392D01*
X016600Y018392D02*
X017100Y017892D01*
X017100Y008392D01*
X015600Y006892D01*
X015350Y006892D01*
X012350Y006892D02*
X012100Y006892D01*
X010600Y008392D01*
X010600Y010392D01*
X006600Y014892D02*
X006600Y020392D01*
X006100Y020892D01*
X007100Y019392D02*
X007100Y023892D01*
X004100Y026892D01*
X001100Y022892D02*
X001100Y014892D01*
X001600Y017892D02*
X002100Y018392D01*
X002100Y021392D01*
X007100Y019392D02*
X008600Y017892D01*
X015600Y012892D02*
X016100Y012392D01*
D16*
X006600Y014892D03*
X004100Y019392D03*
X001100Y022892D03*
X003600Y013392D03*
M02*
