G75*
%MOIN*%
%OFA0B0*%
%FSLAX24Y24*%
%IPPOS*%
%LPD*%
%AMOC8*
5,1,8,0,0,1.08239X$1,22.5*
%
%ADD10C,0.0000*%
%ADD11C,0.0080*%
%ADD12C,0.0050*%
%ADD13C,0.0120*%
%ADD14C,0.0060*%
%ADD15C,0.0010*%
%ADD16C,0.0100*%
D10*
X000100Y001892D02*
X000100Y027888D01*
X017970Y027888D01*
X017970Y001892D01*
X000100Y001892D01*
X011220Y004392D02*
X011222Y004442D01*
X011228Y004492D01*
X011238Y004541D01*
X011252Y004589D01*
X011269Y004636D01*
X011290Y004681D01*
X011315Y004725D01*
X011343Y004766D01*
X011375Y004805D01*
X011409Y004842D01*
X011446Y004876D01*
X011486Y004906D01*
X011528Y004933D01*
X011572Y004957D01*
X011618Y004978D01*
X011665Y004994D01*
X011713Y005007D01*
X011763Y005016D01*
X011812Y005021D01*
X011863Y005022D01*
X011913Y005019D01*
X011962Y005012D01*
X012011Y005001D01*
X012059Y004986D01*
X012105Y004968D01*
X012150Y004946D01*
X012193Y004920D01*
X012234Y004891D01*
X012273Y004859D01*
X012309Y004824D01*
X012341Y004786D01*
X012371Y004746D01*
X012398Y004703D01*
X012421Y004659D01*
X012440Y004613D01*
X012456Y004565D01*
X012468Y004516D01*
X012476Y004467D01*
X012480Y004417D01*
X012480Y004367D01*
X012476Y004317D01*
X012468Y004268D01*
X012456Y004219D01*
X012440Y004171D01*
X012421Y004125D01*
X012398Y004081D01*
X012371Y004038D01*
X012341Y003998D01*
X012309Y003960D01*
X012273Y003925D01*
X012234Y003893D01*
X012193Y003864D01*
X012150Y003838D01*
X012105Y003816D01*
X012059Y003798D01*
X012011Y003783D01*
X011962Y003772D01*
X011913Y003765D01*
X011863Y003762D01*
X011812Y003763D01*
X011763Y003768D01*
X011713Y003777D01*
X011665Y003790D01*
X011618Y003806D01*
X011572Y003827D01*
X011528Y003851D01*
X011486Y003878D01*
X011446Y003908D01*
X011409Y003942D01*
X011375Y003979D01*
X011343Y004018D01*
X011315Y004059D01*
X011290Y004103D01*
X011269Y004148D01*
X011252Y004195D01*
X011238Y004243D01*
X011228Y004292D01*
X011222Y004342D01*
X011220Y004392D01*
X015720Y004392D02*
X015722Y004442D01*
X015728Y004492D01*
X015738Y004541D01*
X015752Y004589D01*
X015769Y004636D01*
X015790Y004681D01*
X015815Y004725D01*
X015843Y004766D01*
X015875Y004805D01*
X015909Y004842D01*
X015946Y004876D01*
X015986Y004906D01*
X016028Y004933D01*
X016072Y004957D01*
X016118Y004978D01*
X016165Y004994D01*
X016213Y005007D01*
X016263Y005016D01*
X016312Y005021D01*
X016363Y005022D01*
X016413Y005019D01*
X016462Y005012D01*
X016511Y005001D01*
X016559Y004986D01*
X016605Y004968D01*
X016650Y004946D01*
X016693Y004920D01*
X016734Y004891D01*
X016773Y004859D01*
X016809Y004824D01*
X016841Y004786D01*
X016871Y004746D01*
X016898Y004703D01*
X016921Y004659D01*
X016940Y004613D01*
X016956Y004565D01*
X016968Y004516D01*
X016976Y004467D01*
X016980Y004417D01*
X016980Y004367D01*
X016976Y004317D01*
X016968Y004268D01*
X016956Y004219D01*
X016940Y004171D01*
X016921Y004125D01*
X016898Y004081D01*
X016871Y004038D01*
X016841Y003998D01*
X016809Y003960D01*
X016773Y003925D01*
X016734Y003893D01*
X016693Y003864D01*
X016650Y003838D01*
X016605Y003816D01*
X016559Y003798D01*
X016511Y003783D01*
X016462Y003772D01*
X016413Y003765D01*
X016363Y003762D01*
X016312Y003763D01*
X016263Y003768D01*
X016213Y003777D01*
X016165Y003790D01*
X016118Y003806D01*
X016072Y003827D01*
X016028Y003851D01*
X015986Y003878D01*
X015946Y003908D01*
X015909Y003942D01*
X015875Y003979D01*
X015843Y004018D01*
X015815Y004059D01*
X015790Y004103D01*
X015769Y004148D01*
X015752Y004195D01*
X015738Y004243D01*
X015728Y004292D01*
X015722Y004342D01*
X015720Y004392D01*
D11*
X017100Y003211D02*
X017100Y008329D01*
X011100Y008329D01*
X011100Y003211D01*
X017100Y003211D01*
X009600Y003392D02*
X009600Y015392D01*
X008600Y015392D01*
X008600Y003392D01*
X009600Y003392D01*
X002600Y003392D02*
X002600Y015392D01*
X001600Y015392D01*
X001600Y003392D01*
X002600Y003392D01*
D12*
X008274Y003147D02*
X008274Y002772D01*
X008349Y002697D01*
X008499Y002697D01*
X008574Y002772D01*
X008574Y003147D01*
X008734Y003072D02*
X008809Y003147D01*
X008959Y003147D01*
X009034Y003072D01*
X009195Y003072D02*
X009270Y003147D01*
X009420Y003147D01*
X009495Y003072D01*
X009495Y002997D01*
X009195Y002697D01*
X009495Y002697D01*
X009034Y002772D02*
X009034Y002847D01*
X008959Y002922D01*
X008809Y002922D01*
X008734Y002997D01*
X008734Y003072D01*
X008884Y003222D02*
X008884Y002622D01*
X008809Y002697D02*
X008959Y002697D01*
X009034Y002772D01*
X008809Y002697D02*
X008734Y002772D01*
X011050Y010367D02*
X010975Y010442D01*
X010975Y010592D01*
X011050Y010667D01*
X011350Y010667D01*
X011425Y010592D01*
X011425Y010442D01*
X011350Y010367D01*
X011050Y010367D01*
X011050Y010827D02*
X010975Y010902D01*
X010975Y011053D01*
X011050Y011128D01*
X011350Y011128D02*
X011425Y011053D01*
X011425Y010902D01*
X011350Y010827D01*
X011050Y010827D01*
X011500Y011288D02*
X011500Y011588D01*
X011425Y011748D02*
X010975Y011748D01*
X010975Y012048D01*
X010975Y012209D02*
X011425Y012209D01*
X011425Y012509D01*
X011350Y012669D02*
X011425Y012744D01*
X011425Y012894D01*
X011350Y012969D01*
X011050Y012969D01*
X010975Y012894D01*
X010975Y012744D01*
X011050Y012669D01*
X011350Y012669D01*
X011200Y011898D02*
X011200Y011748D01*
X011050Y015867D02*
X011350Y015867D01*
X011425Y015942D01*
X011425Y016092D01*
X011350Y016167D01*
X011050Y016167D01*
X010975Y016092D01*
X010975Y015942D01*
X011050Y015867D01*
X011050Y016327D02*
X010975Y016402D01*
X010975Y016553D01*
X011050Y016628D01*
X011350Y016628D02*
X011425Y016553D01*
X011425Y016402D01*
X011350Y016327D01*
X011050Y016327D01*
X011500Y016788D02*
X011500Y017088D01*
X011425Y017248D02*
X010975Y017248D01*
X010975Y017548D01*
X010975Y017709D02*
X011125Y017859D01*
X010975Y018009D01*
X011425Y018009D01*
X011425Y018169D02*
X011425Y018469D01*
X011425Y018629D02*
X011425Y018855D01*
X011350Y018930D01*
X011050Y018930D01*
X010975Y018855D01*
X010975Y018629D01*
X011425Y018629D01*
X011200Y018319D02*
X011200Y018169D01*
X010975Y018169D02*
X011425Y018169D01*
X011425Y017709D02*
X010975Y017709D01*
X011200Y017398D02*
X011200Y017248D01*
X010975Y018169D02*
X010975Y018469D01*
X013375Y021067D02*
X013675Y021067D01*
X013835Y021067D02*
X013835Y021517D01*
X014136Y021517D01*
X014296Y021517D02*
X014296Y021067D01*
X014521Y021067D01*
X014596Y021142D01*
X014596Y021442D01*
X014521Y021517D01*
X014296Y021517D01*
X014136Y021067D02*
X013835Y021067D01*
X013835Y021292D02*
X013986Y021292D01*
X013375Y021517D02*
X013375Y021067D01*
X014756Y020992D02*
X015056Y020992D01*
X015217Y021067D02*
X015217Y021517D01*
X015517Y021517D01*
X015677Y021442D02*
X015677Y021142D01*
X015752Y021067D01*
X015902Y021067D01*
X015977Y021142D01*
X015977Y021442D01*
X015902Y021517D01*
X015752Y021517D01*
X015677Y021442D01*
X015367Y021292D02*
X015217Y021292D01*
X016137Y021292D02*
X016287Y021292D01*
X016137Y021067D02*
X016137Y021517D01*
X016438Y021517D01*
X016598Y021517D02*
X016598Y021067D01*
X016598Y021292D02*
X016748Y021292D01*
X016598Y021517D02*
X016898Y021517D01*
X016363Y023067D02*
X016212Y023067D01*
X016137Y023142D01*
X016137Y023442D01*
X016212Y023517D01*
X016363Y023517D01*
X016438Y023442D01*
X016438Y023142D01*
X016363Y023067D01*
X015977Y023067D02*
X015677Y023067D01*
X015677Y023517D01*
X015517Y023517D02*
X015217Y023517D01*
X015217Y023067D01*
X015056Y022992D02*
X014756Y022992D01*
X014596Y023142D02*
X014596Y023442D01*
X014521Y023517D01*
X014296Y023517D01*
X014296Y023067D01*
X014521Y023067D01*
X014596Y023142D01*
X014136Y023067D02*
X013835Y023067D01*
X013835Y023517D01*
X014136Y023517D01*
X013986Y023292D02*
X013835Y023292D01*
X013675Y023067D02*
X013375Y023067D01*
X013375Y023517D01*
X013375Y025067D02*
X013675Y025067D01*
X013835Y025067D02*
X014136Y025067D01*
X014296Y025067D02*
X014521Y025067D01*
X014596Y025142D01*
X014596Y025442D01*
X014521Y025517D01*
X014296Y025517D01*
X014296Y025067D01*
X013986Y025292D02*
X013835Y025292D01*
X013835Y025517D02*
X013835Y025067D01*
X013835Y025517D02*
X014136Y025517D01*
X014756Y024992D02*
X015056Y024992D01*
X015217Y025067D02*
X015217Y025517D01*
X015517Y025517D01*
X015677Y025517D02*
X015827Y025367D01*
X015977Y025517D01*
X015977Y025067D01*
X016137Y025067D02*
X016438Y025067D01*
X016598Y025067D02*
X016823Y025067D01*
X016898Y025142D01*
X016898Y025442D01*
X016823Y025517D01*
X016598Y025517D01*
X016598Y025067D01*
X016287Y025292D02*
X016137Y025292D01*
X016137Y025517D02*
X016137Y025067D01*
X016137Y025517D02*
X016438Y025517D01*
X015677Y025517D02*
X015677Y025067D01*
X015367Y025292D02*
X015217Y025292D01*
X015056Y026992D02*
X014756Y026992D01*
X014596Y027142D02*
X014596Y027442D01*
X014521Y027517D01*
X014296Y027517D01*
X014296Y027067D01*
X014521Y027067D01*
X014596Y027142D01*
X014136Y027067D02*
X013835Y027067D01*
X013835Y027517D01*
X014136Y027517D01*
X013986Y027292D02*
X013835Y027292D01*
X013675Y027067D02*
X013375Y027067D01*
X013375Y027517D01*
X013375Y025517D02*
X013375Y025067D01*
X015217Y023292D02*
X015367Y023292D01*
X015217Y027067D02*
X015217Y027517D01*
X015517Y027517D01*
X015677Y027517D02*
X015677Y027067D01*
X015677Y027292D02*
X015977Y027292D01*
X015977Y027517D02*
X015977Y027067D01*
X016137Y027067D02*
X016287Y027067D01*
X016212Y027067D02*
X016212Y027517D01*
X016137Y027517D02*
X016287Y027517D01*
X015367Y027292D02*
X015217Y027292D01*
X014925Y018319D02*
X014925Y018169D01*
X014925Y018244D02*
X014475Y018244D01*
X014475Y018169D02*
X014475Y018319D01*
X014475Y018009D02*
X014925Y018009D01*
X014700Y018009D02*
X014700Y017709D01*
X014925Y017709D02*
X014475Y017709D01*
X014475Y017548D02*
X014475Y017248D01*
X014925Y017248D01*
X015000Y017088D02*
X015000Y016788D01*
X014850Y016628D02*
X014925Y016553D01*
X014925Y016402D01*
X014850Y016327D01*
X014550Y016327D01*
X014475Y016402D01*
X014475Y016553D01*
X014550Y016628D01*
X014550Y016167D02*
X014475Y016092D01*
X014475Y015942D01*
X014550Y015867D01*
X014850Y015867D01*
X014925Y015942D01*
X014925Y016092D01*
X014850Y016167D01*
X014550Y016167D01*
X014700Y017248D02*
X014700Y017398D01*
X014475Y013430D02*
X014475Y013129D01*
X014925Y013129D01*
X014700Y013129D02*
X014700Y013279D01*
X014475Y012969D02*
X014475Y012669D01*
X014925Y012669D01*
X014850Y012509D02*
X014550Y012509D01*
X014475Y012434D01*
X014475Y012284D01*
X014550Y012209D01*
X014850Y012209D01*
X014925Y012284D01*
X014925Y012434D01*
X014850Y012509D01*
X014700Y012669D02*
X014700Y012819D01*
X014475Y012048D02*
X014475Y011748D01*
X014925Y011748D01*
X015000Y011588D02*
X015000Y011288D01*
X014850Y011128D02*
X014925Y011053D01*
X014925Y010902D01*
X014850Y010827D01*
X014550Y010827D01*
X014475Y010902D01*
X014475Y011053D01*
X014550Y011128D01*
X014550Y010667D02*
X014475Y010592D01*
X014475Y010442D01*
X014550Y010367D01*
X014850Y010367D01*
X014925Y010442D01*
X014925Y010592D01*
X014850Y010667D01*
X014550Y010667D01*
X014700Y011748D02*
X014700Y011898D01*
X008000Y019288D02*
X008000Y019588D01*
X007925Y019748D02*
X007925Y019973D01*
X007850Y020048D01*
X007550Y020048D01*
X007475Y019973D01*
X007475Y019748D01*
X007925Y019748D01*
X007925Y020209D02*
X007925Y020359D01*
X007925Y020284D02*
X007475Y020284D01*
X007475Y020209D02*
X007475Y020359D01*
X007475Y020515D02*
X007475Y020741D01*
X007550Y020816D01*
X007700Y020816D01*
X007775Y020741D01*
X007775Y020515D01*
X007925Y020515D02*
X007475Y020515D01*
X007625Y020976D02*
X007475Y021126D01*
X007925Y021126D01*
X007925Y020976D02*
X007925Y021276D01*
X007850Y019128D02*
X007925Y019053D01*
X007925Y018902D01*
X007850Y018827D01*
X007550Y018827D01*
X007475Y018902D01*
X007475Y019053D01*
X007550Y019128D01*
X007550Y018667D02*
X007475Y018592D01*
X007475Y018442D01*
X007550Y018367D01*
X007850Y018367D01*
X007925Y018442D01*
X007925Y018592D01*
X007850Y018667D01*
X007550Y018667D01*
X004500Y019288D02*
X004500Y019588D01*
X004425Y019748D02*
X004425Y019973D01*
X004350Y020048D01*
X004050Y020048D01*
X003975Y019973D01*
X003975Y019748D01*
X004425Y019748D01*
X004425Y020209D02*
X004425Y020359D01*
X004425Y020284D02*
X003975Y020284D01*
X003975Y020209D02*
X003975Y020359D01*
X003975Y020515D02*
X003975Y020741D01*
X004050Y020816D01*
X004200Y020816D01*
X004275Y020741D01*
X004275Y020515D01*
X004425Y020515D02*
X003975Y020515D01*
X004050Y020976D02*
X003975Y021051D01*
X003975Y021201D01*
X004050Y021276D01*
X004125Y021276D01*
X004425Y020976D01*
X004425Y021276D01*
X003640Y022267D02*
X003490Y022267D01*
X003415Y022342D01*
X003565Y022492D02*
X003640Y022492D01*
X003715Y022417D01*
X003715Y022342D01*
X003640Y022267D01*
X003640Y022492D02*
X003715Y022567D01*
X003715Y022642D01*
X003640Y022717D01*
X003490Y022717D01*
X003415Y022642D01*
X003254Y022642D02*
X003254Y022492D01*
X003179Y022417D01*
X002954Y022417D01*
X002954Y022267D02*
X002954Y022717D01*
X003179Y022717D01*
X003254Y022642D01*
X002797Y022717D02*
X002647Y022717D01*
X002722Y022717D02*
X002722Y022267D01*
X002647Y022267D02*
X002797Y022267D01*
X002487Y022342D02*
X002487Y022642D01*
X002412Y022717D01*
X002187Y022717D01*
X002187Y022267D01*
X002412Y022267D01*
X002487Y022342D01*
X002027Y022192D02*
X001726Y022192D01*
X001566Y022342D02*
X001566Y022642D01*
X001491Y022717D01*
X001266Y022717D01*
X001266Y022267D01*
X001491Y022267D01*
X001566Y022342D01*
X001106Y022267D02*
X000806Y022267D01*
X000806Y022717D01*
X001106Y022717D01*
X000956Y022492D02*
X000806Y022492D01*
X000646Y022267D02*
X000345Y022267D01*
X000345Y022717D01*
X000550Y021276D02*
X000625Y021276D01*
X000700Y021201D01*
X000775Y021276D01*
X000850Y021276D01*
X000925Y021201D01*
X000925Y021051D01*
X000850Y020976D01*
X000700Y021126D02*
X000700Y021201D01*
X000550Y021276D02*
X000475Y021201D01*
X000475Y021051D01*
X000550Y020976D01*
X000550Y020816D02*
X000700Y020816D01*
X000775Y020741D01*
X000775Y020515D01*
X000925Y020515D02*
X000475Y020515D01*
X000475Y020741D01*
X000550Y020816D01*
X000475Y020359D02*
X000475Y020209D01*
X000475Y020284D02*
X000925Y020284D01*
X000925Y020209D02*
X000925Y020359D01*
X000850Y020048D02*
X000550Y020048D01*
X000475Y019973D01*
X000475Y019748D01*
X000925Y019748D01*
X000925Y019973D01*
X000850Y020048D01*
X001000Y019588D02*
X001000Y019288D01*
X000850Y019128D02*
X000925Y019053D01*
X000925Y018902D01*
X000850Y018827D01*
X000550Y018827D01*
X000475Y018902D01*
X000475Y019053D01*
X000550Y019128D01*
X000550Y018667D02*
X000475Y018592D01*
X000475Y018442D01*
X000550Y018367D01*
X000850Y018367D01*
X000925Y018442D01*
X000925Y018592D01*
X000850Y018667D01*
X000550Y018667D01*
X003975Y018592D02*
X003975Y018442D01*
X004050Y018367D01*
X004350Y018367D01*
X004425Y018442D01*
X004425Y018592D01*
X004350Y018667D01*
X004050Y018667D01*
X003975Y018592D01*
X004050Y018827D02*
X003975Y018902D01*
X003975Y019053D01*
X004050Y019128D01*
X004050Y018827D02*
X004350Y018827D01*
X004425Y018902D01*
X004425Y019053D01*
X004350Y019128D01*
X003715Y024267D02*
X003415Y024267D01*
X003715Y024567D01*
X003715Y024642D01*
X003640Y024717D01*
X003490Y024717D01*
X003415Y024642D01*
X003254Y024642D02*
X003254Y024492D01*
X003179Y024417D01*
X002954Y024417D01*
X002954Y024267D02*
X002954Y024717D01*
X003179Y024717D01*
X003254Y024642D01*
X002797Y024717D02*
X002647Y024717D01*
X002722Y024717D02*
X002722Y024267D01*
X002647Y024267D02*
X002797Y024267D01*
X002487Y024342D02*
X002487Y024642D01*
X002412Y024717D01*
X002187Y024717D01*
X002187Y024267D01*
X002412Y024267D01*
X002487Y024342D01*
X002027Y024192D02*
X001726Y024192D01*
X001566Y024342D02*
X001566Y024642D01*
X001491Y024717D01*
X001266Y024717D01*
X001266Y024267D01*
X001491Y024267D01*
X001566Y024342D01*
X001106Y024267D02*
X000806Y024267D01*
X000806Y024717D01*
X001106Y024717D01*
X000956Y024492D02*
X000806Y024492D01*
X000646Y024267D02*
X000345Y024267D01*
X000345Y024717D01*
X000345Y026267D02*
X000646Y026267D01*
X000806Y026267D02*
X001106Y026267D01*
X001266Y026267D02*
X001491Y026267D01*
X001566Y026342D01*
X001566Y026642D01*
X001491Y026717D01*
X001266Y026717D01*
X001266Y026267D01*
X000956Y026492D02*
X000806Y026492D01*
X000806Y026717D02*
X000806Y026267D01*
X000806Y026717D02*
X001106Y026717D01*
X001726Y026192D02*
X002027Y026192D01*
X002187Y026267D02*
X002412Y026267D01*
X002487Y026342D01*
X002487Y026642D01*
X002412Y026717D01*
X002187Y026717D01*
X002187Y026267D01*
X002647Y026267D02*
X002797Y026267D01*
X002722Y026267D02*
X002722Y026717D01*
X002647Y026717D02*
X002797Y026717D01*
X002954Y026717D02*
X003179Y026717D01*
X003254Y026642D01*
X003254Y026492D01*
X003179Y026417D01*
X002954Y026417D01*
X002954Y026267D02*
X002954Y026717D01*
X003415Y026567D02*
X003565Y026717D01*
X003565Y026267D01*
X003415Y026267D02*
X003715Y026267D01*
X000345Y026267D02*
X000345Y026717D01*
D13*
X002600Y016392D02*
X001600Y015392D01*
X002600Y016392D02*
X008600Y016392D01*
X009600Y015392D01*
X009600Y003392D02*
X009600Y002392D01*
X007100Y002392D01*
X007100Y003392D01*
X004100Y003392D01*
X004100Y002392D01*
X001600Y002392D01*
X001600Y003392D01*
X004100Y002392D02*
X004100Y001892D01*
X007100Y001892D01*
X007100Y002392D01*
D14*
X011600Y010242D02*
X011600Y010992D01*
X011639Y010994D01*
X011678Y011000D01*
X011716Y011009D01*
X011753Y011022D01*
X011789Y011039D01*
X011822Y011059D01*
X011854Y011083D01*
X011883Y011109D01*
X011909Y011138D01*
X011933Y011170D01*
X011953Y011203D01*
X011970Y011239D01*
X011983Y011276D01*
X011992Y011314D01*
X011998Y011353D01*
X012000Y011392D01*
X011998Y011431D01*
X011992Y011470D01*
X011983Y011508D01*
X011970Y011545D01*
X011953Y011581D01*
X011933Y011614D01*
X011909Y011646D01*
X011883Y011675D01*
X011854Y011701D01*
X011822Y011725D01*
X011789Y011745D01*
X011753Y011762D01*
X011716Y011775D01*
X011678Y011784D01*
X011639Y011790D01*
X011600Y011792D01*
X011600Y012542D01*
X013600Y012542D01*
X013600Y010242D01*
X011600Y010242D01*
X015100Y010242D02*
X015100Y010992D01*
X015139Y010994D01*
X015178Y011000D01*
X015216Y011009D01*
X015253Y011022D01*
X015289Y011039D01*
X015322Y011059D01*
X015354Y011083D01*
X015383Y011109D01*
X015409Y011138D01*
X015433Y011170D01*
X015453Y011203D01*
X015470Y011239D01*
X015483Y011276D01*
X015492Y011314D01*
X015498Y011353D01*
X015500Y011392D01*
X015498Y011431D01*
X015492Y011470D01*
X015483Y011508D01*
X015470Y011545D01*
X015453Y011581D01*
X015433Y011614D01*
X015409Y011646D01*
X015383Y011675D01*
X015354Y011701D01*
X015322Y011725D01*
X015289Y011745D01*
X015253Y011762D01*
X015216Y011775D01*
X015178Y011784D01*
X015139Y011790D01*
X015100Y011792D01*
X015100Y012542D01*
X017100Y012542D01*
X017100Y010242D01*
X015100Y010242D01*
X015100Y015742D02*
X015100Y016492D01*
X015139Y016494D01*
X015178Y016500D01*
X015216Y016509D01*
X015253Y016522D01*
X015289Y016539D01*
X015322Y016559D01*
X015354Y016583D01*
X015383Y016609D01*
X015409Y016638D01*
X015433Y016670D01*
X015453Y016703D01*
X015470Y016739D01*
X015483Y016776D01*
X015492Y016814D01*
X015498Y016853D01*
X015500Y016892D01*
X015498Y016931D01*
X015492Y016970D01*
X015483Y017008D01*
X015470Y017045D01*
X015453Y017081D01*
X015433Y017114D01*
X015409Y017146D01*
X015383Y017175D01*
X015354Y017201D01*
X015322Y017225D01*
X015289Y017245D01*
X015253Y017262D01*
X015216Y017275D01*
X015178Y017284D01*
X015139Y017290D01*
X015100Y017292D01*
X015100Y018042D01*
X017100Y018042D01*
X017100Y015742D01*
X015100Y015742D01*
X013600Y015742D02*
X013600Y018042D01*
X011600Y018042D01*
X011600Y017292D01*
X011639Y017290D01*
X011678Y017284D01*
X011716Y017275D01*
X011753Y017262D01*
X011789Y017245D01*
X011822Y017225D01*
X011854Y017201D01*
X011883Y017175D01*
X011909Y017146D01*
X011933Y017114D01*
X011953Y017081D01*
X011970Y017045D01*
X011983Y017008D01*
X011992Y016970D01*
X011998Y016931D01*
X012000Y016892D01*
X011998Y016853D01*
X011992Y016814D01*
X011983Y016776D01*
X011970Y016739D01*
X011953Y016703D01*
X011933Y016670D01*
X011909Y016638D01*
X011883Y016609D01*
X011854Y016583D01*
X011822Y016559D01*
X011789Y016539D01*
X011753Y016522D01*
X011716Y016509D01*
X011678Y016500D01*
X011639Y016494D01*
X011600Y016492D01*
X011600Y015742D01*
X013600Y015742D01*
X010100Y018242D02*
X010100Y020542D01*
X008100Y020542D01*
X008100Y019792D01*
X008139Y019790D01*
X008178Y019784D01*
X008216Y019775D01*
X008253Y019762D01*
X008289Y019745D01*
X008322Y019725D01*
X008354Y019701D01*
X008383Y019675D01*
X008409Y019646D01*
X008433Y019614D01*
X008453Y019581D01*
X008470Y019545D01*
X008483Y019508D01*
X008492Y019470D01*
X008498Y019431D01*
X008500Y019392D01*
X008498Y019353D01*
X008492Y019314D01*
X008483Y019276D01*
X008470Y019239D01*
X008453Y019203D01*
X008433Y019170D01*
X008409Y019138D01*
X008383Y019109D01*
X008354Y019083D01*
X008322Y019059D01*
X008289Y019039D01*
X008253Y019022D01*
X008216Y019009D01*
X008178Y019000D01*
X008139Y018994D01*
X008100Y018992D01*
X008100Y018242D01*
X010100Y018242D01*
X006600Y018242D02*
X006600Y020542D01*
X004600Y020542D01*
X004600Y019792D01*
X004639Y019790D01*
X004678Y019784D01*
X004716Y019775D01*
X004753Y019762D01*
X004789Y019745D01*
X004822Y019725D01*
X004854Y019701D01*
X004883Y019675D01*
X004909Y019646D01*
X004933Y019614D01*
X004953Y019581D01*
X004970Y019545D01*
X004983Y019508D01*
X004992Y019470D01*
X004998Y019431D01*
X005000Y019392D01*
X004998Y019353D01*
X004992Y019314D01*
X004983Y019276D01*
X004970Y019239D01*
X004953Y019203D01*
X004933Y019170D01*
X004909Y019138D01*
X004883Y019109D01*
X004854Y019083D01*
X004822Y019059D01*
X004789Y019039D01*
X004753Y019022D01*
X004716Y019009D01*
X004678Y019000D01*
X004639Y018994D01*
X004600Y018992D01*
X004600Y018242D01*
X006600Y018242D01*
X003100Y018242D02*
X003100Y020542D01*
X001100Y020542D01*
X001100Y019792D01*
X001139Y019790D01*
X001178Y019784D01*
X001216Y019775D01*
X001253Y019762D01*
X001289Y019745D01*
X001322Y019725D01*
X001354Y019701D01*
X001383Y019675D01*
X001409Y019646D01*
X001433Y019614D01*
X001453Y019581D01*
X001470Y019545D01*
X001483Y019508D01*
X001492Y019470D01*
X001498Y019431D01*
X001500Y019392D01*
X001498Y019353D01*
X001492Y019314D01*
X001483Y019276D01*
X001470Y019239D01*
X001453Y019203D01*
X001433Y019170D01*
X001409Y019138D01*
X001383Y019109D01*
X001354Y019083D01*
X001322Y019059D01*
X001289Y019039D01*
X001253Y019022D01*
X001216Y019009D01*
X001178Y019000D01*
X001139Y018994D01*
X001100Y018992D01*
X001100Y018242D01*
X003100Y018242D01*
D15*
X004605Y022048D02*
X004605Y022138D01*
X004605Y022137D02*
X004659Y022139D01*
X004712Y022145D01*
X004765Y022155D01*
X004817Y022169D01*
X004868Y022186D01*
X004917Y022207D01*
X004965Y022231D01*
X005011Y022259D01*
X005055Y022290D01*
X005097Y022324D01*
X005136Y022360D01*
X005173Y022400D01*
X005206Y022442D01*
X005237Y022486D01*
X005264Y022532D01*
X005343Y022490D01*
X005315Y022441D01*
X005283Y022395D01*
X005248Y022350D01*
X005211Y022308D01*
X005170Y022268D01*
X005127Y022232D01*
X005082Y022198D01*
X005035Y022167D01*
X004985Y022140D01*
X004934Y022116D01*
X004882Y022095D01*
X004828Y022078D01*
X004773Y022065D01*
X004718Y022055D01*
X004661Y022049D01*
X004605Y022047D01*
X004605Y022056D01*
X004661Y022058D01*
X004716Y022064D01*
X004771Y022074D01*
X004826Y022087D01*
X004879Y022104D01*
X004931Y022124D01*
X004981Y022148D01*
X005030Y022175D01*
X005077Y022205D01*
X005122Y022239D01*
X005164Y022275D01*
X005204Y022314D01*
X005241Y022356D01*
X005276Y022400D01*
X005307Y022446D01*
X005335Y022494D01*
X005327Y022498D01*
X005299Y022451D01*
X005268Y022405D01*
X005234Y022362D01*
X005198Y022320D01*
X005158Y022282D01*
X005116Y022246D01*
X005072Y022213D01*
X005026Y022183D01*
X004977Y022156D01*
X004927Y022133D01*
X004876Y022112D01*
X004823Y022096D01*
X004770Y022083D01*
X004715Y022073D01*
X004660Y022067D01*
X004605Y022065D01*
X004605Y022074D01*
X004660Y022076D01*
X004714Y022082D01*
X004768Y022091D01*
X004821Y022104D01*
X004873Y022121D01*
X004924Y022141D01*
X004973Y022164D01*
X005021Y022191D01*
X005067Y022220D01*
X005111Y022253D01*
X005152Y022288D01*
X005191Y022327D01*
X005228Y022367D01*
X005261Y022410D01*
X005292Y022456D01*
X005319Y022503D01*
X005311Y022507D01*
X005284Y022460D01*
X005254Y022416D01*
X005221Y022373D01*
X005185Y022333D01*
X005146Y022295D01*
X005105Y022260D01*
X005062Y022228D01*
X005016Y022198D01*
X004969Y022172D01*
X004920Y022149D01*
X004870Y022129D01*
X004818Y022113D01*
X004766Y022100D01*
X004713Y022091D01*
X004659Y022085D01*
X004605Y022083D01*
X004605Y022092D01*
X004658Y022094D01*
X004711Y022100D01*
X004764Y022109D01*
X004816Y022122D01*
X004867Y022138D01*
X004917Y022157D01*
X004965Y022180D01*
X005012Y022206D01*
X005056Y022235D01*
X005099Y022267D01*
X005140Y022302D01*
X005178Y022339D01*
X005214Y022379D01*
X005247Y022421D01*
X005277Y022465D01*
X005304Y022511D01*
X005296Y022515D01*
X005269Y022470D01*
X005239Y022426D01*
X005207Y022385D01*
X005172Y022345D01*
X005134Y022308D01*
X005094Y022274D01*
X005051Y022242D01*
X005007Y022214D01*
X004961Y022188D01*
X004913Y022166D01*
X004864Y022146D01*
X004814Y022130D01*
X004762Y022118D01*
X004710Y022109D01*
X004658Y022103D01*
X004605Y022101D01*
X004605Y022110D01*
X004661Y022112D01*
X004716Y022119D01*
X004771Y022129D01*
X004825Y022143D01*
X004877Y022161D01*
X004929Y022182D01*
X004978Y022208D01*
X005026Y022236D01*
X005072Y022268D01*
X005115Y022303D01*
X005155Y022341D01*
X005193Y022382D01*
X005228Y022426D01*
X005259Y022472D01*
X005288Y022520D01*
X005280Y022524D01*
X005252Y022476D01*
X005221Y022431D01*
X005186Y022388D01*
X005149Y022348D01*
X005109Y022310D01*
X005066Y022275D01*
X005021Y022244D01*
X004974Y022215D01*
X004925Y022191D01*
X004874Y022169D01*
X004822Y022152D01*
X004769Y022138D01*
X004715Y022128D01*
X004660Y022121D01*
X004605Y022119D01*
X004605Y022128D01*
X004659Y022130D01*
X004713Y022136D01*
X004767Y022146D01*
X004819Y022160D01*
X004871Y022178D01*
X004921Y022199D01*
X004970Y022223D01*
X005016Y022251D01*
X005061Y022283D01*
X005103Y022317D01*
X005142Y022354D01*
X005179Y022394D01*
X005213Y022436D01*
X005244Y022481D01*
X005272Y022528D01*
X005331Y023315D02*
X005253Y023270D01*
X005253Y023271D02*
X005225Y023315D01*
X005194Y023357D01*
X005161Y023397D01*
X005125Y023435D01*
X005086Y023470D01*
X005045Y023502D01*
X005001Y023532D01*
X004956Y023558D01*
X004909Y023581D01*
X004861Y023601D01*
X004811Y023617D01*
X004761Y023630D01*
X004709Y023639D01*
X004657Y023645D01*
X004605Y023647D01*
X004604Y023736D01*
X004605Y023737D01*
X004660Y023735D01*
X004714Y023729D01*
X004769Y023720D01*
X004822Y023707D01*
X004874Y023691D01*
X004926Y023672D01*
X004976Y023649D01*
X005024Y023623D01*
X005071Y023594D01*
X005115Y023562D01*
X005158Y023527D01*
X005198Y023489D01*
X005235Y023449D01*
X005270Y023407D01*
X005302Y023362D01*
X005331Y023316D01*
X005323Y023311D01*
X005295Y023357D01*
X005263Y023401D01*
X005228Y023443D01*
X005191Y023483D01*
X005152Y023520D01*
X005110Y023555D01*
X005066Y023586D01*
X005020Y023615D01*
X004972Y023641D01*
X004922Y023663D01*
X004872Y023683D01*
X004820Y023699D01*
X004767Y023711D01*
X004713Y023720D01*
X004659Y023726D01*
X004605Y023728D01*
X004605Y023719D01*
X004659Y023717D01*
X004712Y023711D01*
X004765Y023702D01*
X004817Y023690D01*
X004869Y023674D01*
X004919Y023655D01*
X004968Y023633D01*
X005015Y023607D01*
X005061Y023579D01*
X005104Y023547D01*
X005146Y023513D01*
X005185Y023477D01*
X005222Y023437D01*
X005256Y023396D01*
X005287Y023352D01*
X005316Y023307D01*
X005308Y023302D01*
X005278Y023350D01*
X005244Y023396D01*
X005208Y023439D01*
X005168Y023480D01*
X005126Y023518D01*
X005082Y023553D01*
X005035Y023585D01*
X004986Y023613D01*
X004935Y023638D01*
X004882Y023660D01*
X004829Y023677D01*
X004774Y023691D01*
X004718Y023701D01*
X004662Y023708D01*
X004605Y023710D01*
X004605Y023701D01*
X004661Y023699D01*
X004717Y023693D01*
X004772Y023683D01*
X004826Y023669D01*
X004879Y023651D01*
X004931Y023630D01*
X004982Y023605D01*
X005030Y023577D01*
X005076Y023546D01*
X005121Y023511D01*
X005162Y023474D01*
X005201Y023433D01*
X005237Y023391D01*
X005270Y023345D01*
X005300Y023298D01*
X005292Y023293D01*
X005263Y023340D01*
X005230Y023385D01*
X005194Y023427D01*
X005156Y023467D01*
X005115Y023504D01*
X005071Y023539D01*
X005025Y023570D01*
X004977Y023597D01*
X004928Y023622D01*
X004876Y023643D01*
X004824Y023660D01*
X004770Y023674D01*
X004715Y023684D01*
X004660Y023690D01*
X004605Y023692D01*
X004605Y023683D01*
X004660Y023681D01*
X004714Y023675D01*
X004768Y023665D01*
X004821Y023651D01*
X004873Y023634D01*
X004924Y023614D01*
X004973Y023589D01*
X005020Y023562D01*
X005066Y023531D01*
X005109Y023498D01*
X005150Y023461D01*
X005188Y023421D01*
X005223Y023379D01*
X005255Y023335D01*
X005284Y023289D01*
X005276Y023284D01*
X005248Y023330D01*
X005216Y023374D01*
X005181Y023415D01*
X005143Y023454D01*
X005103Y023491D01*
X005061Y023524D01*
X005016Y023554D01*
X004969Y023582D01*
X004920Y023605D01*
X004870Y023626D01*
X004819Y023643D01*
X004766Y023656D01*
X004713Y023666D01*
X004659Y023672D01*
X004605Y023674D01*
X004605Y023665D01*
X004658Y023663D01*
X004712Y023657D01*
X004764Y023647D01*
X004816Y023634D01*
X004867Y023617D01*
X004917Y023597D01*
X004965Y023574D01*
X005011Y023547D01*
X005055Y023517D01*
X005097Y023484D01*
X005137Y023448D01*
X005174Y023409D01*
X005209Y023368D01*
X005240Y023325D01*
X005269Y023280D01*
X005261Y023275D01*
X005233Y023320D01*
X005202Y023363D01*
X005168Y023403D01*
X005131Y023441D01*
X005092Y023477D01*
X005050Y023509D01*
X005006Y023539D01*
X004960Y023566D01*
X004913Y023589D01*
X004864Y023609D01*
X004814Y023626D01*
X004762Y023639D01*
X004710Y023648D01*
X004658Y023654D01*
X004605Y023656D01*
X004596Y023736D02*
X004596Y023646D01*
X004595Y023647D02*
X004541Y023645D01*
X004488Y023639D01*
X004435Y023629D01*
X004383Y023615D01*
X004332Y023598D01*
X004282Y023577D01*
X004234Y023553D01*
X004188Y023525D01*
X004144Y023494D01*
X004103Y023460D01*
X004063Y023423D01*
X004027Y023384D01*
X003959Y023441D01*
X003958Y023442D01*
X003996Y023483D01*
X004036Y023521D01*
X004079Y023557D01*
X004124Y023590D01*
X004171Y023620D01*
X004219Y023646D01*
X004270Y023670D01*
X004322Y023690D01*
X004375Y023706D01*
X004429Y023720D01*
X004484Y023729D01*
X004539Y023735D01*
X004595Y023737D01*
X004595Y023728D01*
X004540Y023726D01*
X004485Y023720D01*
X004431Y023711D01*
X004377Y023698D01*
X004325Y023681D01*
X004273Y023662D01*
X004223Y023638D01*
X004175Y023612D01*
X004129Y023582D01*
X004084Y023550D01*
X004042Y023515D01*
X004002Y023476D01*
X003965Y023436D01*
X003972Y023430D01*
X004009Y023470D01*
X004048Y023508D01*
X004090Y023543D01*
X004134Y023575D01*
X004180Y023604D01*
X004228Y023630D01*
X004277Y023653D01*
X004328Y023673D01*
X004380Y023689D01*
X004433Y023702D01*
X004486Y023711D01*
X004541Y023717D01*
X004595Y023719D01*
X004595Y023710D01*
X004541Y023708D01*
X004488Y023702D01*
X004435Y023693D01*
X004382Y023680D01*
X004331Y023664D01*
X004280Y023645D01*
X004232Y023622D01*
X004184Y023597D01*
X004139Y023568D01*
X004095Y023536D01*
X004054Y023501D01*
X004015Y023464D01*
X003979Y023424D01*
X003986Y023418D01*
X004022Y023458D01*
X004060Y023495D01*
X004101Y023529D01*
X004144Y023560D01*
X004189Y023589D01*
X004236Y023614D01*
X004284Y023637D01*
X004334Y023656D01*
X004385Y023672D01*
X004436Y023684D01*
X004489Y023693D01*
X004542Y023699D01*
X004595Y023701D01*
X004595Y023692D01*
X004542Y023690D01*
X004490Y023684D01*
X004438Y023675D01*
X004387Y023663D01*
X004337Y023647D01*
X004287Y023628D01*
X004240Y023606D01*
X004193Y023581D01*
X004149Y023553D01*
X004107Y023522D01*
X004066Y023488D01*
X004028Y023451D01*
X003993Y023413D01*
X003999Y023407D01*
X004035Y023445D01*
X004072Y023481D01*
X004112Y023515D01*
X004154Y023545D01*
X004198Y023573D01*
X004244Y023598D01*
X004291Y023620D01*
X004340Y023639D01*
X004389Y023654D01*
X004440Y023667D01*
X004491Y023675D01*
X004543Y023681D01*
X004595Y023683D01*
X004595Y023674D01*
X004539Y023672D01*
X004484Y023665D01*
X004429Y023655D01*
X004375Y023641D01*
X004322Y023623D01*
X004271Y023601D01*
X004221Y023576D01*
X004173Y023547D01*
X004128Y023515D01*
X004085Y023480D01*
X004044Y023442D01*
X004006Y023401D01*
X004013Y023395D01*
X004050Y023436D01*
X004091Y023473D01*
X004133Y023508D01*
X004178Y023540D01*
X004226Y023568D01*
X004275Y023593D01*
X004326Y023615D01*
X004378Y023632D01*
X004431Y023646D01*
X004485Y023656D01*
X004540Y023663D01*
X004595Y023665D01*
X004595Y023656D01*
X004541Y023654D01*
X004487Y023648D01*
X004433Y023638D01*
X004380Y023624D01*
X004329Y023606D01*
X004279Y023585D01*
X004230Y023560D01*
X004183Y023532D01*
X004139Y023501D01*
X004097Y023467D01*
X004057Y023429D01*
X004020Y023389D01*
X003955Y022348D02*
X004024Y022405D01*
X004023Y022405D02*
X004060Y022365D01*
X004099Y022327D01*
X004141Y022293D01*
X004185Y022261D01*
X004231Y022233D01*
X004280Y022208D01*
X004330Y022187D01*
X004381Y022169D01*
X004434Y022156D01*
X004487Y022146D01*
X004541Y022139D01*
X004595Y022137D01*
X004596Y022048D01*
X004595Y022047D01*
X004539Y022049D01*
X004483Y022055D01*
X004428Y022065D01*
X004373Y022078D01*
X004320Y022095D01*
X004267Y022115D01*
X004216Y022139D01*
X004167Y022166D01*
X004120Y022197D01*
X004075Y022230D01*
X004032Y022266D01*
X003992Y022305D01*
X003954Y022347D01*
X003961Y022353D01*
X003998Y022312D01*
X004038Y022273D01*
X004080Y022237D01*
X004125Y022204D01*
X004172Y022174D01*
X004220Y022147D01*
X004271Y022124D01*
X004323Y022103D01*
X004376Y022087D01*
X004430Y022074D01*
X004484Y022064D01*
X004539Y022058D01*
X004595Y022056D01*
X004595Y022065D01*
X004540Y022067D01*
X004485Y022073D01*
X004431Y022082D01*
X004378Y022095D01*
X004326Y022112D01*
X004274Y022132D01*
X004225Y022155D01*
X004176Y022182D01*
X004130Y022211D01*
X004086Y022244D01*
X004044Y022280D01*
X004005Y022318D01*
X003968Y022359D01*
X003975Y022364D01*
X004011Y022324D01*
X004050Y022286D01*
X004092Y022251D01*
X004135Y022219D01*
X004181Y022189D01*
X004229Y022163D01*
X004278Y022140D01*
X004328Y022120D01*
X004380Y022104D01*
X004433Y022091D01*
X004487Y022082D01*
X004541Y022076D01*
X004595Y022074D01*
X004595Y022083D01*
X004541Y022085D01*
X004488Y022091D01*
X004435Y022100D01*
X004383Y022113D01*
X004331Y022129D01*
X004281Y022148D01*
X004233Y022171D01*
X004186Y022197D01*
X004140Y022226D01*
X004097Y022258D01*
X004056Y022293D01*
X004018Y022330D01*
X003982Y022370D01*
X003989Y022376D01*
X004024Y022337D01*
X004062Y022300D01*
X004103Y022265D01*
X004146Y022234D01*
X004190Y022205D01*
X004237Y022179D01*
X004285Y022157D01*
X004334Y022137D01*
X004385Y022121D01*
X004437Y022109D01*
X004489Y022100D01*
X004542Y022094D01*
X004595Y022092D01*
X004595Y022101D01*
X004543Y022103D01*
X004490Y022109D01*
X004439Y022118D01*
X004388Y022130D01*
X004337Y022146D01*
X004288Y022165D01*
X004241Y022187D01*
X004195Y022213D01*
X004151Y022241D01*
X004109Y022272D01*
X004068Y022306D01*
X004031Y022343D01*
X003996Y022382D01*
X004002Y022388D01*
X004037Y022349D01*
X004075Y022313D01*
X004114Y022279D01*
X004156Y022248D01*
X004200Y022220D01*
X004245Y022195D01*
X004292Y022173D01*
X004340Y022154D01*
X004390Y022139D01*
X004440Y022126D01*
X004492Y022118D01*
X004543Y022112D01*
X004595Y022110D01*
X004595Y022119D01*
X004544Y022121D01*
X004493Y022126D01*
X004442Y022135D01*
X004392Y022147D01*
X004343Y022163D01*
X004296Y022181D01*
X004249Y022203D01*
X004204Y022228D01*
X004161Y022256D01*
X004120Y022286D01*
X004081Y022319D01*
X004044Y022355D01*
X004009Y022393D01*
X004016Y022399D01*
X004053Y022358D01*
X004093Y022320D01*
X004135Y022286D01*
X004180Y022254D01*
X004227Y022225D01*
X004276Y022200D01*
X004327Y022179D01*
X004378Y022161D01*
X004432Y022147D01*
X004486Y022137D01*
X004540Y022130D01*
X004595Y022128D01*
X005331Y025315D02*
X005253Y025270D01*
X005253Y025271D02*
X005225Y025315D01*
X005194Y025357D01*
X005161Y025397D01*
X005125Y025435D01*
X005086Y025470D01*
X005045Y025502D01*
X005001Y025532D01*
X004956Y025558D01*
X004909Y025581D01*
X004861Y025601D01*
X004811Y025617D01*
X004761Y025630D01*
X004709Y025639D01*
X004657Y025645D01*
X004605Y025647D01*
X004604Y025736D01*
X004605Y025737D01*
X004660Y025735D01*
X004714Y025729D01*
X004769Y025720D01*
X004822Y025707D01*
X004874Y025691D01*
X004926Y025672D01*
X004976Y025649D01*
X005024Y025623D01*
X005071Y025594D01*
X005115Y025562D01*
X005158Y025527D01*
X005198Y025489D01*
X005235Y025449D01*
X005270Y025407D01*
X005302Y025362D01*
X005331Y025316D01*
X005323Y025311D01*
X005295Y025357D01*
X005263Y025401D01*
X005228Y025443D01*
X005191Y025483D01*
X005152Y025520D01*
X005110Y025555D01*
X005066Y025586D01*
X005020Y025615D01*
X004972Y025641D01*
X004922Y025663D01*
X004872Y025683D01*
X004820Y025699D01*
X004767Y025711D01*
X004713Y025720D01*
X004659Y025726D01*
X004605Y025728D01*
X004605Y025719D01*
X004659Y025717D01*
X004712Y025711D01*
X004765Y025702D01*
X004817Y025690D01*
X004869Y025674D01*
X004919Y025655D01*
X004968Y025633D01*
X005015Y025607D01*
X005061Y025579D01*
X005104Y025547D01*
X005146Y025513D01*
X005185Y025477D01*
X005222Y025437D01*
X005256Y025396D01*
X005287Y025352D01*
X005316Y025307D01*
X005308Y025302D01*
X005278Y025350D01*
X005244Y025396D01*
X005208Y025439D01*
X005168Y025480D01*
X005126Y025518D01*
X005082Y025553D01*
X005035Y025585D01*
X004986Y025613D01*
X004935Y025638D01*
X004882Y025660D01*
X004829Y025677D01*
X004774Y025691D01*
X004718Y025701D01*
X004662Y025708D01*
X004605Y025710D01*
X004605Y025701D01*
X004661Y025699D01*
X004717Y025693D01*
X004772Y025683D01*
X004826Y025669D01*
X004879Y025651D01*
X004931Y025630D01*
X004982Y025605D01*
X005030Y025577D01*
X005076Y025546D01*
X005121Y025511D01*
X005162Y025474D01*
X005201Y025433D01*
X005237Y025391D01*
X005270Y025345D01*
X005300Y025298D01*
X005292Y025293D01*
X005263Y025340D01*
X005230Y025385D01*
X005194Y025427D01*
X005156Y025467D01*
X005115Y025504D01*
X005071Y025539D01*
X005025Y025570D01*
X004977Y025597D01*
X004928Y025622D01*
X004876Y025643D01*
X004824Y025660D01*
X004770Y025674D01*
X004715Y025684D01*
X004660Y025690D01*
X004605Y025692D01*
X004605Y025683D01*
X004660Y025681D01*
X004714Y025675D01*
X004768Y025665D01*
X004821Y025651D01*
X004873Y025634D01*
X004924Y025614D01*
X004973Y025589D01*
X005020Y025562D01*
X005066Y025531D01*
X005109Y025498D01*
X005150Y025461D01*
X005188Y025421D01*
X005223Y025379D01*
X005255Y025335D01*
X005284Y025289D01*
X005276Y025284D01*
X005248Y025330D01*
X005216Y025374D01*
X005181Y025415D01*
X005143Y025454D01*
X005103Y025491D01*
X005061Y025524D01*
X005016Y025554D01*
X004969Y025582D01*
X004920Y025605D01*
X004870Y025626D01*
X004819Y025643D01*
X004766Y025656D01*
X004713Y025666D01*
X004659Y025672D01*
X004605Y025674D01*
X004605Y025665D01*
X004658Y025663D01*
X004712Y025657D01*
X004764Y025647D01*
X004816Y025634D01*
X004867Y025617D01*
X004917Y025597D01*
X004965Y025574D01*
X005011Y025547D01*
X005055Y025517D01*
X005097Y025484D01*
X005137Y025448D01*
X005174Y025409D01*
X005209Y025368D01*
X005240Y025325D01*
X005269Y025280D01*
X005261Y025275D01*
X005233Y025320D01*
X005202Y025363D01*
X005168Y025403D01*
X005131Y025441D01*
X005092Y025477D01*
X005050Y025509D01*
X005006Y025539D01*
X004960Y025566D01*
X004913Y025589D01*
X004864Y025609D01*
X004814Y025626D01*
X004762Y025639D01*
X004710Y025648D01*
X004658Y025654D01*
X004605Y025656D01*
X004605Y024048D02*
X004605Y024138D01*
X004605Y024137D02*
X004659Y024139D01*
X004712Y024145D01*
X004765Y024155D01*
X004817Y024169D01*
X004868Y024186D01*
X004917Y024207D01*
X004965Y024231D01*
X005011Y024259D01*
X005055Y024290D01*
X005097Y024324D01*
X005136Y024360D01*
X005173Y024400D01*
X005206Y024442D01*
X005237Y024486D01*
X005264Y024532D01*
X005343Y024490D01*
X005315Y024441D01*
X005283Y024395D01*
X005248Y024350D01*
X005211Y024308D01*
X005170Y024268D01*
X005127Y024232D01*
X005082Y024198D01*
X005035Y024167D01*
X004985Y024140D01*
X004934Y024116D01*
X004882Y024095D01*
X004828Y024078D01*
X004773Y024065D01*
X004718Y024055D01*
X004661Y024049D01*
X004605Y024047D01*
X004605Y024056D01*
X004661Y024058D01*
X004716Y024064D01*
X004771Y024074D01*
X004826Y024087D01*
X004879Y024104D01*
X004931Y024124D01*
X004981Y024148D01*
X005030Y024175D01*
X005077Y024205D01*
X005122Y024239D01*
X005164Y024275D01*
X005204Y024314D01*
X005241Y024356D01*
X005276Y024400D01*
X005307Y024446D01*
X005335Y024494D01*
X005327Y024498D01*
X005299Y024451D01*
X005268Y024405D01*
X005234Y024362D01*
X005198Y024320D01*
X005158Y024282D01*
X005116Y024246D01*
X005072Y024213D01*
X005026Y024183D01*
X004977Y024156D01*
X004927Y024133D01*
X004876Y024112D01*
X004823Y024096D01*
X004770Y024083D01*
X004715Y024073D01*
X004660Y024067D01*
X004605Y024065D01*
X004605Y024074D01*
X004660Y024076D01*
X004714Y024082D01*
X004768Y024091D01*
X004821Y024104D01*
X004873Y024121D01*
X004924Y024141D01*
X004973Y024164D01*
X005021Y024191D01*
X005067Y024220D01*
X005111Y024253D01*
X005152Y024288D01*
X005191Y024327D01*
X005228Y024367D01*
X005261Y024410D01*
X005292Y024456D01*
X005319Y024503D01*
X005311Y024507D01*
X005284Y024460D01*
X005254Y024416D01*
X005221Y024373D01*
X005185Y024333D01*
X005146Y024295D01*
X005105Y024260D01*
X005062Y024228D01*
X005016Y024198D01*
X004969Y024172D01*
X004920Y024149D01*
X004870Y024129D01*
X004818Y024113D01*
X004766Y024100D01*
X004713Y024091D01*
X004659Y024085D01*
X004605Y024083D01*
X004605Y024092D01*
X004658Y024094D01*
X004711Y024100D01*
X004764Y024109D01*
X004816Y024122D01*
X004867Y024138D01*
X004917Y024157D01*
X004965Y024180D01*
X005012Y024206D01*
X005056Y024235D01*
X005099Y024267D01*
X005140Y024302D01*
X005178Y024339D01*
X005214Y024379D01*
X005247Y024421D01*
X005277Y024465D01*
X005304Y024511D01*
X005296Y024515D01*
X005269Y024470D01*
X005239Y024426D01*
X005207Y024385D01*
X005172Y024345D01*
X005134Y024308D01*
X005094Y024274D01*
X005051Y024242D01*
X005007Y024214D01*
X004961Y024188D01*
X004913Y024166D01*
X004864Y024146D01*
X004814Y024130D01*
X004762Y024118D01*
X004710Y024109D01*
X004658Y024103D01*
X004605Y024101D01*
X004605Y024110D01*
X004661Y024112D01*
X004716Y024119D01*
X004771Y024129D01*
X004825Y024143D01*
X004877Y024161D01*
X004929Y024182D01*
X004978Y024208D01*
X005026Y024236D01*
X005072Y024268D01*
X005115Y024303D01*
X005155Y024341D01*
X005193Y024382D01*
X005228Y024426D01*
X005259Y024472D01*
X005288Y024520D01*
X005280Y024524D01*
X005252Y024476D01*
X005221Y024431D01*
X005186Y024388D01*
X005149Y024348D01*
X005109Y024310D01*
X005066Y024275D01*
X005021Y024244D01*
X004974Y024215D01*
X004925Y024191D01*
X004874Y024169D01*
X004822Y024152D01*
X004769Y024138D01*
X004715Y024128D01*
X004660Y024121D01*
X004605Y024119D01*
X004605Y024128D01*
X004659Y024130D01*
X004713Y024136D01*
X004767Y024146D01*
X004819Y024160D01*
X004871Y024178D01*
X004921Y024199D01*
X004970Y024223D01*
X005016Y024251D01*
X005061Y024283D01*
X005103Y024317D01*
X005142Y024354D01*
X005179Y024394D01*
X005213Y024436D01*
X005244Y024481D01*
X005272Y024528D01*
X003955Y024348D02*
X004024Y024405D01*
X004023Y024405D02*
X004060Y024365D01*
X004099Y024327D01*
X004141Y024293D01*
X004185Y024261D01*
X004231Y024233D01*
X004280Y024208D01*
X004330Y024187D01*
X004381Y024169D01*
X004434Y024156D01*
X004487Y024146D01*
X004541Y024139D01*
X004595Y024137D01*
X004596Y024048D01*
X004595Y024047D01*
X004539Y024049D01*
X004483Y024055D01*
X004428Y024065D01*
X004373Y024078D01*
X004320Y024095D01*
X004267Y024115D01*
X004216Y024139D01*
X004167Y024166D01*
X004120Y024197D01*
X004075Y024230D01*
X004032Y024266D01*
X003992Y024305D01*
X003954Y024347D01*
X003961Y024353D01*
X003998Y024312D01*
X004038Y024273D01*
X004080Y024237D01*
X004125Y024204D01*
X004172Y024174D01*
X004220Y024147D01*
X004271Y024124D01*
X004323Y024103D01*
X004376Y024087D01*
X004430Y024074D01*
X004484Y024064D01*
X004539Y024058D01*
X004595Y024056D01*
X004595Y024065D01*
X004540Y024067D01*
X004485Y024073D01*
X004431Y024082D01*
X004378Y024095D01*
X004326Y024112D01*
X004274Y024132D01*
X004225Y024155D01*
X004176Y024182D01*
X004130Y024211D01*
X004086Y024244D01*
X004044Y024280D01*
X004005Y024318D01*
X003968Y024359D01*
X003975Y024364D01*
X004011Y024324D01*
X004050Y024286D01*
X004092Y024251D01*
X004135Y024219D01*
X004181Y024189D01*
X004229Y024163D01*
X004278Y024140D01*
X004328Y024120D01*
X004380Y024104D01*
X004433Y024091D01*
X004487Y024082D01*
X004541Y024076D01*
X004595Y024074D01*
X004595Y024083D01*
X004541Y024085D01*
X004488Y024091D01*
X004435Y024100D01*
X004383Y024113D01*
X004331Y024129D01*
X004281Y024148D01*
X004233Y024171D01*
X004186Y024197D01*
X004140Y024226D01*
X004097Y024258D01*
X004056Y024293D01*
X004018Y024330D01*
X003982Y024370D01*
X003989Y024376D01*
X004024Y024337D01*
X004062Y024300D01*
X004103Y024265D01*
X004146Y024234D01*
X004190Y024205D01*
X004237Y024179D01*
X004285Y024157D01*
X004334Y024137D01*
X004385Y024121D01*
X004437Y024109D01*
X004489Y024100D01*
X004542Y024094D01*
X004595Y024092D01*
X004595Y024101D01*
X004543Y024103D01*
X004490Y024109D01*
X004439Y024118D01*
X004388Y024130D01*
X004337Y024146D01*
X004288Y024165D01*
X004241Y024187D01*
X004195Y024213D01*
X004151Y024241D01*
X004109Y024272D01*
X004068Y024306D01*
X004031Y024343D01*
X003996Y024382D01*
X004002Y024388D01*
X004037Y024349D01*
X004075Y024313D01*
X004114Y024279D01*
X004156Y024248D01*
X004200Y024220D01*
X004245Y024195D01*
X004292Y024173D01*
X004340Y024154D01*
X004390Y024139D01*
X004440Y024126D01*
X004492Y024118D01*
X004543Y024112D01*
X004595Y024110D01*
X004595Y024119D01*
X004544Y024121D01*
X004493Y024126D01*
X004442Y024135D01*
X004392Y024147D01*
X004343Y024163D01*
X004296Y024181D01*
X004249Y024203D01*
X004204Y024228D01*
X004161Y024256D01*
X004120Y024286D01*
X004081Y024319D01*
X004044Y024355D01*
X004009Y024393D01*
X004016Y024399D01*
X004053Y024358D01*
X004093Y024320D01*
X004135Y024286D01*
X004180Y024254D01*
X004227Y024225D01*
X004276Y024200D01*
X004327Y024179D01*
X004378Y024161D01*
X004432Y024147D01*
X004486Y024137D01*
X004540Y024130D01*
X004595Y024128D01*
X004596Y025736D02*
X004596Y025646D01*
X004595Y025647D02*
X004541Y025645D01*
X004488Y025639D01*
X004435Y025629D01*
X004383Y025615D01*
X004332Y025598D01*
X004282Y025577D01*
X004234Y025553D01*
X004188Y025525D01*
X004144Y025494D01*
X004103Y025460D01*
X004063Y025423D01*
X004027Y025384D01*
X003959Y025441D01*
X003958Y025442D01*
X003996Y025483D01*
X004036Y025521D01*
X004079Y025557D01*
X004124Y025590D01*
X004171Y025620D01*
X004219Y025646D01*
X004270Y025670D01*
X004322Y025690D01*
X004375Y025706D01*
X004429Y025720D01*
X004484Y025729D01*
X004539Y025735D01*
X004595Y025737D01*
X004595Y025728D01*
X004540Y025726D01*
X004485Y025720D01*
X004431Y025711D01*
X004377Y025698D01*
X004325Y025681D01*
X004273Y025662D01*
X004223Y025638D01*
X004175Y025612D01*
X004129Y025582D01*
X004084Y025550D01*
X004042Y025515D01*
X004002Y025476D01*
X003965Y025436D01*
X003972Y025430D01*
X004009Y025470D01*
X004048Y025508D01*
X004090Y025543D01*
X004134Y025575D01*
X004180Y025604D01*
X004228Y025630D01*
X004277Y025653D01*
X004328Y025673D01*
X004380Y025689D01*
X004433Y025702D01*
X004486Y025711D01*
X004541Y025717D01*
X004595Y025719D01*
X004595Y025710D01*
X004541Y025708D01*
X004488Y025702D01*
X004435Y025693D01*
X004382Y025680D01*
X004331Y025664D01*
X004280Y025645D01*
X004232Y025622D01*
X004184Y025597D01*
X004139Y025568D01*
X004095Y025536D01*
X004054Y025501D01*
X004015Y025464D01*
X003979Y025424D01*
X003986Y025418D01*
X004022Y025458D01*
X004060Y025495D01*
X004101Y025529D01*
X004144Y025560D01*
X004189Y025589D01*
X004236Y025614D01*
X004284Y025637D01*
X004334Y025656D01*
X004385Y025672D01*
X004436Y025684D01*
X004489Y025693D01*
X004542Y025699D01*
X004595Y025701D01*
X004595Y025692D01*
X004542Y025690D01*
X004490Y025684D01*
X004438Y025675D01*
X004387Y025663D01*
X004337Y025647D01*
X004287Y025628D01*
X004240Y025606D01*
X004193Y025581D01*
X004149Y025553D01*
X004107Y025522D01*
X004066Y025488D01*
X004028Y025451D01*
X003993Y025413D01*
X003999Y025407D01*
X004035Y025445D01*
X004072Y025481D01*
X004112Y025515D01*
X004154Y025545D01*
X004198Y025573D01*
X004244Y025598D01*
X004291Y025620D01*
X004340Y025639D01*
X004389Y025654D01*
X004440Y025667D01*
X004491Y025675D01*
X004543Y025681D01*
X004595Y025683D01*
X004595Y025674D01*
X004539Y025672D01*
X004484Y025665D01*
X004429Y025655D01*
X004375Y025641D01*
X004322Y025623D01*
X004271Y025601D01*
X004221Y025576D01*
X004173Y025547D01*
X004128Y025515D01*
X004085Y025480D01*
X004044Y025442D01*
X004006Y025401D01*
X004013Y025395D01*
X004050Y025436D01*
X004091Y025473D01*
X004133Y025508D01*
X004178Y025540D01*
X004226Y025568D01*
X004275Y025593D01*
X004326Y025615D01*
X004378Y025632D01*
X004431Y025646D01*
X004485Y025656D01*
X004540Y025663D01*
X004595Y025665D01*
X004595Y025656D01*
X004541Y025654D01*
X004487Y025648D01*
X004433Y025638D01*
X004380Y025624D01*
X004329Y025606D01*
X004279Y025585D01*
X004230Y025560D01*
X004183Y025532D01*
X004139Y025501D01*
X004097Y025467D01*
X004057Y025429D01*
X004020Y025389D01*
X004605Y026048D02*
X004605Y026138D01*
X004605Y026137D02*
X004659Y026139D01*
X004712Y026145D01*
X004765Y026155D01*
X004817Y026169D01*
X004868Y026186D01*
X004917Y026207D01*
X004965Y026231D01*
X005011Y026259D01*
X005055Y026290D01*
X005097Y026324D01*
X005136Y026360D01*
X005173Y026400D01*
X005206Y026442D01*
X005237Y026486D01*
X005264Y026532D01*
X005343Y026490D01*
X005315Y026441D01*
X005283Y026395D01*
X005248Y026350D01*
X005211Y026308D01*
X005170Y026268D01*
X005127Y026232D01*
X005082Y026198D01*
X005035Y026167D01*
X004985Y026140D01*
X004934Y026116D01*
X004882Y026095D01*
X004828Y026078D01*
X004773Y026065D01*
X004718Y026055D01*
X004661Y026049D01*
X004605Y026047D01*
X004605Y026056D01*
X004661Y026058D01*
X004716Y026064D01*
X004771Y026074D01*
X004826Y026087D01*
X004879Y026104D01*
X004931Y026124D01*
X004981Y026148D01*
X005030Y026175D01*
X005077Y026205D01*
X005122Y026239D01*
X005164Y026275D01*
X005204Y026314D01*
X005241Y026356D01*
X005276Y026400D01*
X005307Y026446D01*
X005335Y026494D01*
X005327Y026498D01*
X005299Y026451D01*
X005268Y026405D01*
X005234Y026362D01*
X005198Y026320D01*
X005158Y026282D01*
X005116Y026246D01*
X005072Y026213D01*
X005026Y026183D01*
X004977Y026156D01*
X004927Y026133D01*
X004876Y026112D01*
X004823Y026096D01*
X004770Y026083D01*
X004715Y026073D01*
X004660Y026067D01*
X004605Y026065D01*
X004605Y026074D01*
X004660Y026076D01*
X004714Y026082D01*
X004768Y026091D01*
X004821Y026104D01*
X004873Y026121D01*
X004924Y026141D01*
X004973Y026164D01*
X005021Y026191D01*
X005067Y026220D01*
X005111Y026253D01*
X005152Y026288D01*
X005191Y026327D01*
X005228Y026367D01*
X005261Y026410D01*
X005292Y026456D01*
X005319Y026503D01*
X005311Y026507D01*
X005284Y026460D01*
X005254Y026416D01*
X005221Y026373D01*
X005185Y026333D01*
X005146Y026295D01*
X005105Y026260D01*
X005062Y026228D01*
X005016Y026198D01*
X004969Y026172D01*
X004920Y026149D01*
X004870Y026129D01*
X004818Y026113D01*
X004766Y026100D01*
X004713Y026091D01*
X004659Y026085D01*
X004605Y026083D01*
X004605Y026092D01*
X004658Y026094D01*
X004711Y026100D01*
X004764Y026109D01*
X004816Y026122D01*
X004867Y026138D01*
X004917Y026157D01*
X004965Y026180D01*
X005012Y026206D01*
X005056Y026235D01*
X005099Y026267D01*
X005140Y026302D01*
X005178Y026339D01*
X005214Y026379D01*
X005247Y026421D01*
X005277Y026465D01*
X005304Y026511D01*
X005296Y026515D01*
X005269Y026470D01*
X005239Y026426D01*
X005207Y026385D01*
X005172Y026345D01*
X005134Y026308D01*
X005094Y026274D01*
X005051Y026242D01*
X005007Y026214D01*
X004961Y026188D01*
X004913Y026166D01*
X004864Y026146D01*
X004814Y026130D01*
X004762Y026118D01*
X004710Y026109D01*
X004658Y026103D01*
X004605Y026101D01*
X004605Y026110D01*
X004661Y026112D01*
X004716Y026119D01*
X004771Y026129D01*
X004825Y026143D01*
X004877Y026161D01*
X004929Y026182D01*
X004978Y026208D01*
X005026Y026236D01*
X005072Y026268D01*
X005115Y026303D01*
X005155Y026341D01*
X005193Y026382D01*
X005228Y026426D01*
X005259Y026472D01*
X005288Y026520D01*
X005280Y026524D01*
X005252Y026476D01*
X005221Y026431D01*
X005186Y026388D01*
X005149Y026348D01*
X005109Y026310D01*
X005066Y026275D01*
X005021Y026244D01*
X004974Y026215D01*
X004925Y026191D01*
X004874Y026169D01*
X004822Y026152D01*
X004769Y026138D01*
X004715Y026128D01*
X004660Y026121D01*
X004605Y026119D01*
X004605Y026128D01*
X004659Y026130D01*
X004713Y026136D01*
X004767Y026146D01*
X004819Y026160D01*
X004871Y026178D01*
X004921Y026199D01*
X004970Y026223D01*
X005016Y026251D01*
X005061Y026283D01*
X005103Y026317D01*
X005142Y026354D01*
X005179Y026394D01*
X005213Y026436D01*
X005244Y026481D01*
X005272Y026528D01*
X005331Y027315D02*
X005253Y027270D01*
X005253Y027271D02*
X005225Y027315D01*
X005194Y027357D01*
X005161Y027397D01*
X005125Y027435D01*
X005086Y027470D01*
X005045Y027502D01*
X005001Y027532D01*
X004956Y027558D01*
X004909Y027581D01*
X004861Y027601D01*
X004811Y027617D01*
X004761Y027630D01*
X004709Y027639D01*
X004657Y027645D01*
X004605Y027647D01*
X004604Y027736D01*
X004605Y027737D01*
X004660Y027735D01*
X004714Y027729D01*
X004769Y027720D01*
X004822Y027707D01*
X004874Y027691D01*
X004926Y027672D01*
X004976Y027649D01*
X005024Y027623D01*
X005071Y027594D01*
X005115Y027562D01*
X005158Y027527D01*
X005198Y027489D01*
X005235Y027449D01*
X005270Y027407D01*
X005302Y027362D01*
X005331Y027316D01*
X005323Y027311D01*
X005295Y027357D01*
X005263Y027401D01*
X005228Y027443D01*
X005191Y027483D01*
X005152Y027520D01*
X005110Y027555D01*
X005066Y027586D01*
X005020Y027615D01*
X004972Y027641D01*
X004922Y027663D01*
X004872Y027683D01*
X004820Y027699D01*
X004767Y027711D01*
X004713Y027720D01*
X004659Y027726D01*
X004605Y027728D01*
X004605Y027719D01*
X004659Y027717D01*
X004712Y027711D01*
X004765Y027702D01*
X004817Y027690D01*
X004869Y027674D01*
X004919Y027655D01*
X004968Y027633D01*
X005015Y027607D01*
X005061Y027579D01*
X005104Y027547D01*
X005146Y027513D01*
X005185Y027477D01*
X005222Y027437D01*
X005256Y027396D01*
X005287Y027352D01*
X005316Y027307D01*
X005308Y027302D01*
X005278Y027350D01*
X005244Y027396D01*
X005208Y027439D01*
X005168Y027480D01*
X005126Y027518D01*
X005082Y027553D01*
X005035Y027585D01*
X004986Y027613D01*
X004935Y027638D01*
X004882Y027660D01*
X004829Y027677D01*
X004774Y027691D01*
X004718Y027701D01*
X004662Y027708D01*
X004605Y027710D01*
X004605Y027701D01*
X004661Y027699D01*
X004717Y027693D01*
X004772Y027683D01*
X004826Y027669D01*
X004879Y027651D01*
X004931Y027630D01*
X004982Y027605D01*
X005030Y027577D01*
X005076Y027546D01*
X005121Y027511D01*
X005162Y027474D01*
X005201Y027433D01*
X005237Y027391D01*
X005270Y027345D01*
X005300Y027298D01*
X005292Y027293D01*
X005263Y027340D01*
X005230Y027385D01*
X005194Y027427D01*
X005156Y027467D01*
X005115Y027504D01*
X005071Y027539D01*
X005025Y027570D01*
X004977Y027597D01*
X004928Y027622D01*
X004876Y027643D01*
X004824Y027660D01*
X004770Y027674D01*
X004715Y027684D01*
X004660Y027690D01*
X004605Y027692D01*
X004605Y027683D01*
X004660Y027681D01*
X004714Y027675D01*
X004768Y027665D01*
X004821Y027651D01*
X004873Y027634D01*
X004924Y027614D01*
X004973Y027589D01*
X005020Y027562D01*
X005066Y027531D01*
X005109Y027498D01*
X005150Y027461D01*
X005188Y027421D01*
X005223Y027379D01*
X005255Y027335D01*
X005284Y027289D01*
X005276Y027284D01*
X005248Y027330D01*
X005216Y027374D01*
X005181Y027415D01*
X005143Y027454D01*
X005103Y027491D01*
X005061Y027524D01*
X005016Y027554D01*
X004969Y027582D01*
X004920Y027605D01*
X004870Y027626D01*
X004819Y027643D01*
X004766Y027656D01*
X004713Y027666D01*
X004659Y027672D01*
X004605Y027674D01*
X004605Y027665D01*
X004658Y027663D01*
X004712Y027657D01*
X004764Y027647D01*
X004816Y027634D01*
X004867Y027617D01*
X004917Y027597D01*
X004965Y027574D01*
X005011Y027547D01*
X005055Y027517D01*
X005097Y027484D01*
X005137Y027448D01*
X005174Y027409D01*
X005209Y027368D01*
X005240Y027325D01*
X005269Y027280D01*
X005261Y027275D01*
X005233Y027320D01*
X005202Y027363D01*
X005168Y027403D01*
X005131Y027441D01*
X005092Y027477D01*
X005050Y027509D01*
X005006Y027539D01*
X004960Y027566D01*
X004913Y027589D01*
X004864Y027609D01*
X004814Y027626D01*
X004762Y027639D01*
X004710Y027648D01*
X004658Y027654D01*
X004605Y027656D01*
X004596Y027736D02*
X004596Y027646D01*
X004595Y027647D02*
X004541Y027645D01*
X004488Y027639D01*
X004435Y027629D01*
X004383Y027615D01*
X004332Y027598D01*
X004282Y027577D01*
X004234Y027553D01*
X004188Y027525D01*
X004144Y027494D01*
X004103Y027460D01*
X004063Y027423D01*
X004027Y027384D01*
X003959Y027441D01*
X003958Y027442D01*
X003996Y027483D01*
X004036Y027521D01*
X004079Y027557D01*
X004124Y027590D01*
X004171Y027620D01*
X004219Y027646D01*
X004270Y027670D01*
X004322Y027690D01*
X004375Y027706D01*
X004429Y027720D01*
X004484Y027729D01*
X004539Y027735D01*
X004595Y027737D01*
X004595Y027728D01*
X004540Y027726D01*
X004485Y027720D01*
X004431Y027711D01*
X004377Y027698D01*
X004325Y027681D01*
X004273Y027662D01*
X004223Y027638D01*
X004175Y027612D01*
X004129Y027582D01*
X004084Y027550D01*
X004042Y027515D01*
X004002Y027476D01*
X003965Y027436D01*
X003972Y027430D01*
X004009Y027470D01*
X004048Y027508D01*
X004090Y027543D01*
X004134Y027575D01*
X004180Y027604D01*
X004228Y027630D01*
X004277Y027653D01*
X004328Y027673D01*
X004380Y027689D01*
X004433Y027702D01*
X004486Y027711D01*
X004541Y027717D01*
X004595Y027719D01*
X004595Y027710D01*
X004541Y027708D01*
X004488Y027702D01*
X004435Y027693D01*
X004382Y027680D01*
X004331Y027664D01*
X004280Y027645D01*
X004232Y027622D01*
X004184Y027597D01*
X004139Y027568D01*
X004095Y027536D01*
X004054Y027501D01*
X004015Y027464D01*
X003979Y027424D01*
X003986Y027418D01*
X004022Y027458D01*
X004060Y027495D01*
X004101Y027529D01*
X004144Y027560D01*
X004189Y027589D01*
X004236Y027614D01*
X004284Y027637D01*
X004334Y027656D01*
X004385Y027672D01*
X004436Y027684D01*
X004489Y027693D01*
X004542Y027699D01*
X004595Y027701D01*
X004595Y027692D01*
X004542Y027690D01*
X004490Y027684D01*
X004438Y027675D01*
X004387Y027663D01*
X004337Y027647D01*
X004287Y027628D01*
X004240Y027606D01*
X004193Y027581D01*
X004149Y027553D01*
X004107Y027522D01*
X004066Y027488D01*
X004028Y027451D01*
X003993Y027413D01*
X003999Y027407D01*
X004035Y027445D01*
X004072Y027481D01*
X004112Y027515D01*
X004154Y027545D01*
X004198Y027573D01*
X004244Y027598D01*
X004291Y027620D01*
X004340Y027639D01*
X004389Y027654D01*
X004440Y027667D01*
X004491Y027675D01*
X004543Y027681D01*
X004595Y027683D01*
X004595Y027674D01*
X004539Y027672D01*
X004484Y027665D01*
X004429Y027655D01*
X004375Y027641D01*
X004322Y027623D01*
X004271Y027601D01*
X004221Y027576D01*
X004173Y027547D01*
X004128Y027515D01*
X004085Y027480D01*
X004044Y027442D01*
X004006Y027401D01*
X004013Y027395D01*
X004050Y027436D01*
X004091Y027473D01*
X004133Y027508D01*
X004178Y027540D01*
X004226Y027568D01*
X004275Y027593D01*
X004326Y027615D01*
X004378Y027632D01*
X004431Y027646D01*
X004485Y027656D01*
X004540Y027663D01*
X004595Y027665D01*
X004595Y027656D01*
X004541Y027654D01*
X004487Y027648D01*
X004433Y027638D01*
X004380Y027624D01*
X004329Y027606D01*
X004279Y027585D01*
X004230Y027560D01*
X004183Y027532D01*
X004139Y027501D01*
X004097Y027467D01*
X004057Y027429D01*
X004020Y027389D01*
X003955Y026348D02*
X004024Y026405D01*
X004023Y026405D02*
X004060Y026365D01*
X004099Y026327D01*
X004141Y026293D01*
X004185Y026261D01*
X004231Y026233D01*
X004280Y026208D01*
X004330Y026187D01*
X004381Y026169D01*
X004434Y026156D01*
X004487Y026146D01*
X004541Y026139D01*
X004595Y026137D01*
X004596Y026048D01*
X004595Y026047D01*
X004539Y026049D01*
X004483Y026055D01*
X004428Y026065D01*
X004373Y026078D01*
X004320Y026095D01*
X004267Y026115D01*
X004216Y026139D01*
X004167Y026166D01*
X004120Y026197D01*
X004075Y026230D01*
X004032Y026266D01*
X003992Y026305D01*
X003954Y026347D01*
X003961Y026353D01*
X003998Y026312D01*
X004038Y026273D01*
X004080Y026237D01*
X004125Y026204D01*
X004172Y026174D01*
X004220Y026147D01*
X004271Y026124D01*
X004323Y026103D01*
X004376Y026087D01*
X004430Y026074D01*
X004484Y026064D01*
X004539Y026058D01*
X004595Y026056D01*
X004595Y026065D01*
X004540Y026067D01*
X004485Y026073D01*
X004431Y026082D01*
X004378Y026095D01*
X004326Y026112D01*
X004274Y026132D01*
X004225Y026155D01*
X004176Y026182D01*
X004130Y026211D01*
X004086Y026244D01*
X004044Y026280D01*
X004005Y026318D01*
X003968Y026359D01*
X003975Y026364D01*
X004011Y026324D01*
X004050Y026286D01*
X004092Y026251D01*
X004135Y026219D01*
X004181Y026189D01*
X004229Y026163D01*
X004278Y026140D01*
X004328Y026120D01*
X004380Y026104D01*
X004433Y026091D01*
X004487Y026082D01*
X004541Y026076D01*
X004595Y026074D01*
X004595Y026083D01*
X004541Y026085D01*
X004488Y026091D01*
X004435Y026100D01*
X004383Y026113D01*
X004331Y026129D01*
X004281Y026148D01*
X004233Y026171D01*
X004186Y026197D01*
X004140Y026226D01*
X004097Y026258D01*
X004056Y026293D01*
X004018Y026330D01*
X003982Y026370D01*
X003989Y026376D01*
X004024Y026337D01*
X004062Y026300D01*
X004103Y026265D01*
X004146Y026234D01*
X004190Y026205D01*
X004237Y026179D01*
X004285Y026157D01*
X004334Y026137D01*
X004385Y026121D01*
X004437Y026109D01*
X004489Y026100D01*
X004542Y026094D01*
X004595Y026092D01*
X004595Y026101D01*
X004543Y026103D01*
X004490Y026109D01*
X004439Y026118D01*
X004388Y026130D01*
X004337Y026146D01*
X004288Y026165D01*
X004241Y026187D01*
X004195Y026213D01*
X004151Y026241D01*
X004109Y026272D01*
X004068Y026306D01*
X004031Y026343D01*
X003996Y026382D01*
X004002Y026388D01*
X004037Y026349D01*
X004075Y026313D01*
X004114Y026279D01*
X004156Y026248D01*
X004200Y026220D01*
X004245Y026195D01*
X004292Y026173D01*
X004340Y026154D01*
X004390Y026139D01*
X004440Y026126D01*
X004492Y026118D01*
X004543Y026112D01*
X004595Y026110D01*
X004595Y026119D01*
X004544Y026121D01*
X004493Y026126D01*
X004442Y026135D01*
X004392Y026147D01*
X004343Y026163D01*
X004296Y026181D01*
X004249Y026203D01*
X004204Y026228D01*
X004161Y026256D01*
X004120Y026286D01*
X004081Y026319D01*
X004044Y026355D01*
X004009Y026393D01*
X004016Y026399D01*
X004053Y026358D01*
X004093Y026320D01*
X004135Y026286D01*
X004180Y026254D01*
X004227Y026225D01*
X004276Y026200D01*
X004327Y026179D01*
X004378Y026161D01*
X004432Y026147D01*
X004486Y026137D01*
X004540Y026130D01*
X004595Y026128D01*
X011869Y026469D02*
X011947Y026514D01*
X011947Y026513D02*
X011975Y026469D01*
X012006Y026427D01*
X012039Y026387D01*
X012075Y026349D01*
X012114Y026314D01*
X012155Y026282D01*
X012199Y026252D01*
X012244Y026226D01*
X012291Y026203D01*
X012339Y026183D01*
X012389Y026167D01*
X012439Y026154D01*
X012491Y026145D01*
X012543Y026139D01*
X012595Y026137D01*
X012596Y026048D01*
X012595Y026047D01*
X012540Y026049D01*
X012486Y026055D01*
X012431Y026064D01*
X012378Y026077D01*
X012326Y026093D01*
X012274Y026112D01*
X012224Y026135D01*
X012176Y026161D01*
X012129Y026190D01*
X012085Y026222D01*
X012042Y026257D01*
X012002Y026295D01*
X011965Y026335D01*
X011930Y026377D01*
X011898Y026422D01*
X011869Y026468D01*
X011877Y026473D01*
X011905Y026427D01*
X011937Y026383D01*
X011972Y026341D01*
X012009Y026301D01*
X012048Y026264D01*
X012090Y026229D01*
X012134Y026198D01*
X012180Y026169D01*
X012228Y026143D01*
X012278Y026121D01*
X012328Y026101D01*
X012380Y026085D01*
X012433Y026073D01*
X012487Y026064D01*
X012541Y026058D01*
X012595Y026056D01*
X012595Y026065D01*
X012541Y026067D01*
X012488Y026073D01*
X012435Y026082D01*
X012383Y026094D01*
X012331Y026110D01*
X012281Y026129D01*
X012232Y026151D01*
X012185Y026177D01*
X012139Y026205D01*
X012096Y026237D01*
X012054Y026271D01*
X012015Y026307D01*
X011978Y026347D01*
X011944Y026388D01*
X011913Y026432D01*
X011884Y026477D01*
X011892Y026482D01*
X011922Y026434D01*
X011956Y026388D01*
X011992Y026345D01*
X012032Y026304D01*
X012074Y026266D01*
X012118Y026231D01*
X012165Y026199D01*
X012214Y026171D01*
X012265Y026146D01*
X012318Y026124D01*
X012371Y026107D01*
X012426Y026093D01*
X012482Y026083D01*
X012538Y026076D01*
X012595Y026074D01*
X012595Y026083D01*
X012539Y026085D01*
X012483Y026091D01*
X012428Y026101D01*
X012374Y026115D01*
X012321Y026133D01*
X012269Y026154D01*
X012218Y026179D01*
X012170Y026207D01*
X012124Y026238D01*
X012079Y026273D01*
X012038Y026310D01*
X011999Y026351D01*
X011963Y026393D01*
X011930Y026439D01*
X011900Y026486D01*
X011908Y026491D01*
X011937Y026444D01*
X011970Y026399D01*
X012006Y026357D01*
X012044Y026317D01*
X012085Y026280D01*
X012129Y026245D01*
X012175Y026214D01*
X012223Y026187D01*
X012272Y026162D01*
X012324Y026141D01*
X012376Y026124D01*
X012430Y026110D01*
X012485Y026100D01*
X012540Y026094D01*
X012595Y026092D01*
X012595Y026101D01*
X012540Y026103D01*
X012486Y026109D01*
X012432Y026119D01*
X012379Y026133D01*
X012327Y026150D01*
X012276Y026170D01*
X012227Y026195D01*
X012180Y026222D01*
X012134Y026253D01*
X012091Y026286D01*
X012050Y026323D01*
X012012Y026363D01*
X011977Y026405D01*
X011945Y026449D01*
X011916Y026495D01*
X011924Y026500D01*
X011952Y026454D01*
X011984Y026410D01*
X012019Y026369D01*
X012057Y026330D01*
X012097Y026293D01*
X012139Y026260D01*
X012184Y026230D01*
X012231Y026202D01*
X012280Y026179D01*
X012330Y026158D01*
X012381Y026141D01*
X012434Y026128D01*
X012487Y026118D01*
X012541Y026112D01*
X012595Y026110D01*
X012595Y026119D01*
X012542Y026121D01*
X012488Y026127D01*
X012436Y026137D01*
X012384Y026150D01*
X012333Y026167D01*
X012283Y026187D01*
X012235Y026210D01*
X012189Y026237D01*
X012145Y026267D01*
X012103Y026300D01*
X012063Y026336D01*
X012026Y026375D01*
X011991Y026416D01*
X011960Y026459D01*
X011931Y026504D01*
X011939Y026509D01*
X011967Y026464D01*
X011998Y026421D01*
X012032Y026381D01*
X012069Y026343D01*
X012108Y026307D01*
X012150Y026275D01*
X012194Y026245D01*
X012240Y026218D01*
X012287Y026195D01*
X012336Y026175D01*
X012386Y026158D01*
X012438Y026145D01*
X012490Y026136D01*
X012542Y026130D01*
X012595Y026128D01*
X012595Y027736D02*
X012595Y027646D01*
X012595Y027647D02*
X012541Y027645D01*
X012488Y027639D01*
X012435Y027629D01*
X012383Y027615D01*
X012332Y027598D01*
X012283Y027577D01*
X012235Y027553D01*
X012189Y027525D01*
X012145Y027494D01*
X012103Y027460D01*
X012064Y027424D01*
X012027Y027384D01*
X011994Y027342D01*
X011963Y027298D01*
X011936Y027252D01*
X011857Y027294D01*
X011885Y027343D01*
X011917Y027389D01*
X011952Y027434D01*
X011989Y027476D01*
X012030Y027516D01*
X012073Y027552D01*
X012118Y027586D01*
X012165Y027617D01*
X012215Y027644D01*
X012266Y027668D01*
X012318Y027689D01*
X012372Y027706D01*
X012427Y027719D01*
X012482Y027729D01*
X012539Y027735D01*
X012595Y027737D01*
X012595Y027728D01*
X012539Y027726D01*
X012484Y027720D01*
X012429Y027710D01*
X012374Y027697D01*
X012321Y027680D01*
X012269Y027660D01*
X012219Y027636D01*
X012170Y027609D01*
X012123Y027579D01*
X012078Y027545D01*
X012036Y027509D01*
X011996Y027470D01*
X011959Y027428D01*
X011924Y027384D01*
X011893Y027338D01*
X011865Y027290D01*
X011873Y027286D01*
X011901Y027333D01*
X011932Y027379D01*
X011966Y027422D01*
X012002Y027464D01*
X012042Y027502D01*
X012084Y027538D01*
X012128Y027571D01*
X012174Y027601D01*
X012223Y027628D01*
X012273Y027651D01*
X012324Y027672D01*
X012377Y027688D01*
X012430Y027701D01*
X012485Y027711D01*
X012540Y027717D01*
X012595Y027719D01*
X012595Y027710D01*
X012540Y027708D01*
X012486Y027702D01*
X012432Y027693D01*
X012379Y027680D01*
X012327Y027663D01*
X012276Y027643D01*
X012227Y027620D01*
X012179Y027593D01*
X012133Y027564D01*
X012089Y027531D01*
X012048Y027496D01*
X012009Y027457D01*
X011972Y027417D01*
X011939Y027374D01*
X011908Y027328D01*
X011881Y027281D01*
X011889Y027277D01*
X011916Y027324D01*
X011946Y027368D01*
X011979Y027411D01*
X012015Y027451D01*
X012054Y027489D01*
X012095Y027524D01*
X012138Y027556D01*
X012184Y027586D01*
X012231Y027612D01*
X012280Y027635D01*
X012330Y027655D01*
X012382Y027671D01*
X012434Y027684D01*
X012487Y027693D01*
X012541Y027699D01*
X012595Y027701D01*
X012595Y027692D01*
X012542Y027690D01*
X012489Y027684D01*
X012436Y027675D01*
X012384Y027662D01*
X012333Y027646D01*
X012283Y027627D01*
X012235Y027604D01*
X012188Y027578D01*
X012144Y027549D01*
X012101Y027517D01*
X012060Y027482D01*
X012022Y027445D01*
X011986Y027405D01*
X011953Y027363D01*
X011923Y027319D01*
X011896Y027273D01*
X011904Y027269D01*
X011931Y027314D01*
X011961Y027358D01*
X011993Y027399D01*
X012028Y027439D01*
X012066Y027476D01*
X012106Y027510D01*
X012149Y027542D01*
X012193Y027570D01*
X012239Y027596D01*
X012287Y027618D01*
X012336Y027638D01*
X012386Y027654D01*
X012438Y027666D01*
X012490Y027675D01*
X012542Y027681D01*
X012595Y027683D01*
X012595Y027674D01*
X012539Y027672D01*
X012484Y027665D01*
X012429Y027655D01*
X012375Y027641D01*
X012323Y027623D01*
X012271Y027602D01*
X012222Y027576D01*
X012174Y027548D01*
X012128Y027516D01*
X012085Y027481D01*
X012045Y027443D01*
X012007Y027402D01*
X011972Y027358D01*
X011941Y027312D01*
X011912Y027264D01*
X011920Y027260D01*
X011948Y027308D01*
X011979Y027353D01*
X012014Y027396D01*
X012051Y027436D01*
X012091Y027474D01*
X012134Y027509D01*
X012179Y027540D01*
X012226Y027569D01*
X012275Y027593D01*
X012326Y027615D01*
X012378Y027632D01*
X012431Y027646D01*
X012485Y027656D01*
X012540Y027663D01*
X012595Y027665D01*
X012595Y027656D01*
X012541Y027654D01*
X012487Y027648D01*
X012433Y027638D01*
X012381Y027624D01*
X012329Y027606D01*
X012279Y027585D01*
X012230Y027561D01*
X012184Y027533D01*
X012139Y027501D01*
X012097Y027467D01*
X012058Y027430D01*
X012021Y027390D01*
X011987Y027348D01*
X011956Y027303D01*
X011928Y027256D01*
X013245Y027436D02*
X013176Y027379D01*
X013177Y027379D02*
X013140Y027419D01*
X013101Y027457D01*
X013059Y027491D01*
X013015Y027523D01*
X012969Y027551D01*
X012920Y027576D01*
X012870Y027597D01*
X012819Y027615D01*
X012766Y027628D01*
X012713Y027638D01*
X012659Y027645D01*
X012605Y027647D01*
X012604Y027736D01*
X012605Y027737D01*
X012661Y027735D01*
X012717Y027729D01*
X012772Y027719D01*
X012827Y027706D01*
X012880Y027689D01*
X012933Y027669D01*
X012984Y027645D01*
X013033Y027618D01*
X013080Y027587D01*
X013125Y027554D01*
X013168Y027518D01*
X013208Y027479D01*
X013246Y027437D01*
X013239Y027431D01*
X013202Y027472D01*
X013162Y027511D01*
X013120Y027547D01*
X013075Y027580D01*
X013028Y027610D01*
X012980Y027637D01*
X012929Y027660D01*
X012877Y027681D01*
X012824Y027697D01*
X012770Y027710D01*
X012716Y027720D01*
X012661Y027726D01*
X012605Y027728D01*
X012605Y027719D01*
X012660Y027717D01*
X012715Y027711D01*
X012769Y027702D01*
X012822Y027689D01*
X012874Y027672D01*
X012926Y027652D01*
X012975Y027629D01*
X013024Y027602D01*
X013070Y027573D01*
X013114Y027540D01*
X013156Y027504D01*
X013195Y027466D01*
X013232Y027425D01*
X013225Y027420D01*
X013189Y027460D01*
X013150Y027498D01*
X013108Y027533D01*
X013065Y027565D01*
X013019Y027595D01*
X012971Y027621D01*
X012922Y027644D01*
X012872Y027664D01*
X012820Y027680D01*
X012767Y027693D01*
X012713Y027702D01*
X012659Y027708D01*
X012605Y027710D01*
X012605Y027701D01*
X012659Y027699D01*
X012712Y027693D01*
X012765Y027684D01*
X012817Y027671D01*
X012869Y027655D01*
X012919Y027636D01*
X012967Y027613D01*
X013014Y027587D01*
X013060Y027558D01*
X013103Y027526D01*
X013144Y027491D01*
X013182Y027454D01*
X013218Y027414D01*
X013211Y027408D01*
X013176Y027447D01*
X013138Y027484D01*
X013097Y027519D01*
X013054Y027550D01*
X013010Y027579D01*
X012963Y027605D01*
X012915Y027627D01*
X012866Y027647D01*
X012815Y027663D01*
X012763Y027675D01*
X012711Y027684D01*
X012658Y027690D01*
X012605Y027692D01*
X012605Y027683D01*
X012657Y027681D01*
X012710Y027675D01*
X012761Y027666D01*
X012812Y027654D01*
X012863Y027638D01*
X012912Y027619D01*
X012959Y027597D01*
X013005Y027571D01*
X013049Y027543D01*
X013091Y027512D01*
X013132Y027478D01*
X013169Y027441D01*
X013204Y027402D01*
X013198Y027396D01*
X013163Y027435D01*
X013125Y027471D01*
X013086Y027505D01*
X013044Y027536D01*
X013000Y027564D01*
X012955Y027589D01*
X012908Y027611D01*
X012860Y027630D01*
X012810Y027645D01*
X012760Y027658D01*
X012708Y027666D01*
X012657Y027672D01*
X012605Y027674D01*
X012605Y027665D01*
X012656Y027663D01*
X012707Y027658D01*
X012758Y027649D01*
X012808Y027637D01*
X012857Y027621D01*
X012904Y027603D01*
X012951Y027581D01*
X012996Y027556D01*
X013039Y027528D01*
X013080Y027498D01*
X013119Y027465D01*
X013156Y027429D01*
X013191Y027391D01*
X013184Y027385D01*
X013147Y027426D01*
X013107Y027464D01*
X013065Y027498D01*
X013020Y027530D01*
X012973Y027559D01*
X012924Y027584D01*
X012873Y027605D01*
X012822Y027623D01*
X012768Y027637D01*
X012714Y027647D01*
X012660Y027654D01*
X012605Y027656D01*
X012604Y026048D02*
X012604Y026138D01*
X012605Y026137D02*
X012659Y026139D01*
X012712Y026145D01*
X012765Y026155D01*
X012817Y026169D01*
X012868Y026186D01*
X012918Y026207D01*
X012966Y026231D01*
X013012Y026259D01*
X013056Y026290D01*
X013097Y026324D01*
X013137Y026361D01*
X013173Y026400D01*
X013241Y026343D01*
X013242Y026342D01*
X013204Y026301D01*
X013164Y026263D01*
X013121Y026227D01*
X013076Y026194D01*
X013029Y026164D01*
X012981Y026138D01*
X012930Y026114D01*
X012878Y026094D01*
X012825Y026078D01*
X012771Y026064D01*
X012716Y026055D01*
X012661Y026049D01*
X012605Y026047D01*
X012605Y026056D01*
X012660Y026058D01*
X012715Y026064D01*
X012769Y026073D01*
X012823Y026086D01*
X012875Y026103D01*
X012927Y026122D01*
X012977Y026146D01*
X013025Y026172D01*
X013071Y026202D01*
X013116Y026234D01*
X013158Y026269D01*
X013198Y026308D01*
X013235Y026348D01*
X013228Y026354D01*
X013191Y026314D01*
X013152Y026276D01*
X013110Y026241D01*
X013066Y026209D01*
X013020Y026180D01*
X012972Y026154D01*
X012923Y026131D01*
X012872Y026111D01*
X012820Y026095D01*
X012767Y026082D01*
X012714Y026073D01*
X012659Y026067D01*
X012605Y026065D01*
X012605Y026074D01*
X012659Y026076D01*
X012712Y026082D01*
X012765Y026091D01*
X012818Y026104D01*
X012869Y026120D01*
X012920Y026139D01*
X012968Y026162D01*
X013016Y026187D01*
X013061Y026216D01*
X013105Y026248D01*
X013146Y026283D01*
X013185Y026320D01*
X013221Y026360D01*
X013214Y026366D01*
X013178Y026326D01*
X013140Y026289D01*
X013099Y026255D01*
X013056Y026224D01*
X013011Y026195D01*
X012964Y026170D01*
X012916Y026147D01*
X012866Y026128D01*
X012815Y026112D01*
X012764Y026100D01*
X012711Y026091D01*
X012658Y026085D01*
X012605Y026083D01*
X012605Y026092D01*
X012658Y026094D01*
X012710Y026100D01*
X012762Y026109D01*
X012813Y026121D01*
X012863Y026137D01*
X012913Y026156D01*
X012960Y026178D01*
X013007Y026203D01*
X013051Y026231D01*
X013093Y026262D01*
X013134Y026296D01*
X013172Y026333D01*
X013207Y026371D01*
X013201Y026377D01*
X013165Y026339D01*
X013128Y026303D01*
X013088Y026269D01*
X013046Y026239D01*
X013002Y026211D01*
X012956Y026186D01*
X012909Y026164D01*
X012860Y026145D01*
X012811Y026130D01*
X012760Y026117D01*
X012709Y026109D01*
X012657Y026103D01*
X012605Y026101D01*
X012605Y026110D01*
X012661Y026112D01*
X012716Y026119D01*
X012771Y026129D01*
X012825Y026143D01*
X012878Y026161D01*
X012929Y026183D01*
X012979Y026208D01*
X013027Y026237D01*
X013072Y026269D01*
X013115Y026304D01*
X013156Y026342D01*
X013194Y026383D01*
X013187Y026389D01*
X013150Y026348D01*
X013109Y026311D01*
X013067Y026276D01*
X013022Y026244D01*
X012974Y026216D01*
X012925Y026191D01*
X012874Y026169D01*
X012822Y026152D01*
X012769Y026138D01*
X012715Y026128D01*
X012660Y026121D01*
X012605Y026119D01*
X012605Y026128D01*
X012659Y026130D01*
X012713Y026136D01*
X012767Y026146D01*
X012820Y026160D01*
X012871Y026178D01*
X012921Y026199D01*
X012970Y026224D01*
X013017Y026252D01*
X013061Y026283D01*
X013103Y026317D01*
X013143Y026355D01*
X013180Y026395D01*
X012595Y025736D02*
X012595Y025646D01*
X012595Y025647D02*
X012541Y025645D01*
X012488Y025639D01*
X012435Y025629D01*
X012383Y025615D01*
X012332Y025598D01*
X012283Y025577D01*
X012235Y025553D01*
X012189Y025525D01*
X012145Y025494D01*
X012103Y025460D01*
X012064Y025424D01*
X012027Y025384D01*
X011994Y025342D01*
X011963Y025298D01*
X011936Y025252D01*
X011857Y025294D01*
X011885Y025343D01*
X011917Y025389D01*
X011952Y025434D01*
X011989Y025476D01*
X012030Y025516D01*
X012073Y025552D01*
X012118Y025586D01*
X012165Y025617D01*
X012215Y025644D01*
X012266Y025668D01*
X012318Y025689D01*
X012372Y025706D01*
X012427Y025719D01*
X012482Y025729D01*
X012539Y025735D01*
X012595Y025737D01*
X012595Y025728D01*
X012539Y025726D01*
X012484Y025720D01*
X012429Y025710D01*
X012374Y025697D01*
X012321Y025680D01*
X012269Y025660D01*
X012219Y025636D01*
X012170Y025609D01*
X012123Y025579D01*
X012078Y025545D01*
X012036Y025509D01*
X011996Y025470D01*
X011959Y025428D01*
X011924Y025384D01*
X011893Y025338D01*
X011865Y025290D01*
X011873Y025286D01*
X011901Y025333D01*
X011932Y025379D01*
X011966Y025422D01*
X012002Y025464D01*
X012042Y025502D01*
X012084Y025538D01*
X012128Y025571D01*
X012174Y025601D01*
X012223Y025628D01*
X012273Y025651D01*
X012324Y025672D01*
X012377Y025688D01*
X012430Y025701D01*
X012485Y025711D01*
X012540Y025717D01*
X012595Y025719D01*
X012595Y025710D01*
X012540Y025708D01*
X012486Y025702D01*
X012432Y025693D01*
X012379Y025680D01*
X012327Y025663D01*
X012276Y025643D01*
X012227Y025620D01*
X012179Y025593D01*
X012133Y025564D01*
X012089Y025531D01*
X012048Y025496D01*
X012009Y025457D01*
X011972Y025417D01*
X011939Y025374D01*
X011908Y025328D01*
X011881Y025281D01*
X011889Y025277D01*
X011916Y025324D01*
X011946Y025368D01*
X011979Y025411D01*
X012015Y025451D01*
X012054Y025489D01*
X012095Y025524D01*
X012138Y025556D01*
X012184Y025586D01*
X012231Y025612D01*
X012280Y025635D01*
X012330Y025655D01*
X012382Y025671D01*
X012434Y025684D01*
X012487Y025693D01*
X012541Y025699D01*
X012595Y025701D01*
X012595Y025692D01*
X012542Y025690D01*
X012489Y025684D01*
X012436Y025675D01*
X012384Y025662D01*
X012333Y025646D01*
X012283Y025627D01*
X012235Y025604D01*
X012188Y025578D01*
X012144Y025549D01*
X012101Y025517D01*
X012060Y025482D01*
X012022Y025445D01*
X011986Y025405D01*
X011953Y025363D01*
X011923Y025319D01*
X011896Y025273D01*
X011904Y025269D01*
X011931Y025314D01*
X011961Y025358D01*
X011993Y025399D01*
X012028Y025439D01*
X012066Y025476D01*
X012106Y025510D01*
X012149Y025542D01*
X012193Y025570D01*
X012239Y025596D01*
X012287Y025618D01*
X012336Y025638D01*
X012386Y025654D01*
X012438Y025666D01*
X012490Y025675D01*
X012542Y025681D01*
X012595Y025683D01*
X012595Y025674D01*
X012539Y025672D01*
X012484Y025665D01*
X012429Y025655D01*
X012375Y025641D01*
X012323Y025623D01*
X012271Y025602D01*
X012222Y025576D01*
X012174Y025548D01*
X012128Y025516D01*
X012085Y025481D01*
X012045Y025443D01*
X012007Y025402D01*
X011972Y025358D01*
X011941Y025312D01*
X011912Y025264D01*
X011920Y025260D01*
X011948Y025308D01*
X011979Y025353D01*
X012014Y025396D01*
X012051Y025436D01*
X012091Y025474D01*
X012134Y025509D01*
X012179Y025540D01*
X012226Y025569D01*
X012275Y025593D01*
X012326Y025615D01*
X012378Y025632D01*
X012431Y025646D01*
X012485Y025656D01*
X012540Y025663D01*
X012595Y025665D01*
X012595Y025656D01*
X012541Y025654D01*
X012487Y025648D01*
X012433Y025638D01*
X012381Y025624D01*
X012329Y025606D01*
X012279Y025585D01*
X012230Y025561D01*
X012184Y025533D01*
X012139Y025501D01*
X012097Y025467D01*
X012058Y025430D01*
X012021Y025390D01*
X011987Y025348D01*
X011956Y025303D01*
X011928Y025256D01*
X011869Y024469D02*
X011947Y024514D01*
X011947Y024513D02*
X011975Y024469D01*
X012006Y024427D01*
X012039Y024387D01*
X012075Y024349D01*
X012114Y024314D01*
X012155Y024282D01*
X012199Y024252D01*
X012244Y024226D01*
X012291Y024203D01*
X012339Y024183D01*
X012389Y024167D01*
X012439Y024154D01*
X012491Y024145D01*
X012543Y024139D01*
X012595Y024137D01*
X012596Y024048D01*
X012595Y024047D01*
X012540Y024049D01*
X012486Y024055D01*
X012431Y024064D01*
X012378Y024077D01*
X012326Y024093D01*
X012274Y024112D01*
X012224Y024135D01*
X012176Y024161D01*
X012129Y024190D01*
X012085Y024222D01*
X012042Y024257D01*
X012002Y024295D01*
X011965Y024335D01*
X011930Y024377D01*
X011898Y024422D01*
X011869Y024468D01*
X011877Y024473D01*
X011905Y024427D01*
X011937Y024383D01*
X011972Y024341D01*
X012009Y024301D01*
X012048Y024264D01*
X012090Y024229D01*
X012134Y024198D01*
X012180Y024169D01*
X012228Y024143D01*
X012278Y024121D01*
X012328Y024101D01*
X012380Y024085D01*
X012433Y024073D01*
X012487Y024064D01*
X012541Y024058D01*
X012595Y024056D01*
X012595Y024065D01*
X012541Y024067D01*
X012488Y024073D01*
X012435Y024082D01*
X012383Y024094D01*
X012331Y024110D01*
X012281Y024129D01*
X012232Y024151D01*
X012185Y024177D01*
X012139Y024205D01*
X012096Y024237D01*
X012054Y024271D01*
X012015Y024307D01*
X011978Y024347D01*
X011944Y024388D01*
X011913Y024432D01*
X011884Y024477D01*
X011892Y024482D01*
X011922Y024434D01*
X011956Y024388D01*
X011992Y024345D01*
X012032Y024304D01*
X012074Y024266D01*
X012118Y024231D01*
X012165Y024199D01*
X012214Y024171D01*
X012265Y024146D01*
X012318Y024124D01*
X012371Y024107D01*
X012426Y024093D01*
X012482Y024083D01*
X012538Y024076D01*
X012595Y024074D01*
X012595Y024083D01*
X012539Y024085D01*
X012483Y024091D01*
X012428Y024101D01*
X012374Y024115D01*
X012321Y024133D01*
X012269Y024154D01*
X012218Y024179D01*
X012170Y024207D01*
X012124Y024238D01*
X012079Y024273D01*
X012038Y024310D01*
X011999Y024351D01*
X011963Y024393D01*
X011930Y024439D01*
X011900Y024486D01*
X011908Y024491D01*
X011937Y024444D01*
X011970Y024399D01*
X012006Y024357D01*
X012044Y024317D01*
X012085Y024280D01*
X012129Y024245D01*
X012175Y024214D01*
X012223Y024187D01*
X012272Y024162D01*
X012324Y024141D01*
X012376Y024124D01*
X012430Y024110D01*
X012485Y024100D01*
X012540Y024094D01*
X012595Y024092D01*
X012595Y024101D01*
X012540Y024103D01*
X012486Y024109D01*
X012432Y024119D01*
X012379Y024133D01*
X012327Y024150D01*
X012276Y024170D01*
X012227Y024195D01*
X012180Y024222D01*
X012134Y024253D01*
X012091Y024286D01*
X012050Y024323D01*
X012012Y024363D01*
X011977Y024405D01*
X011945Y024449D01*
X011916Y024495D01*
X011924Y024500D01*
X011952Y024454D01*
X011984Y024410D01*
X012019Y024369D01*
X012057Y024330D01*
X012097Y024293D01*
X012139Y024260D01*
X012184Y024230D01*
X012231Y024202D01*
X012280Y024179D01*
X012330Y024158D01*
X012381Y024141D01*
X012434Y024128D01*
X012487Y024118D01*
X012541Y024112D01*
X012595Y024110D01*
X012595Y024119D01*
X012542Y024121D01*
X012488Y024127D01*
X012436Y024137D01*
X012384Y024150D01*
X012333Y024167D01*
X012283Y024187D01*
X012235Y024210D01*
X012189Y024237D01*
X012145Y024267D01*
X012103Y024300D01*
X012063Y024336D01*
X012026Y024375D01*
X011991Y024416D01*
X011960Y024459D01*
X011931Y024504D01*
X011939Y024509D01*
X011967Y024464D01*
X011998Y024421D01*
X012032Y024381D01*
X012069Y024343D01*
X012108Y024307D01*
X012150Y024275D01*
X012194Y024245D01*
X012240Y024218D01*
X012287Y024195D01*
X012336Y024175D01*
X012386Y024158D01*
X012438Y024145D01*
X012490Y024136D01*
X012542Y024130D01*
X012595Y024128D01*
X012604Y024048D02*
X012604Y024138D01*
X012605Y024137D02*
X012659Y024139D01*
X012712Y024145D01*
X012765Y024155D01*
X012817Y024169D01*
X012868Y024186D01*
X012918Y024207D01*
X012966Y024231D01*
X013012Y024259D01*
X013056Y024290D01*
X013097Y024324D01*
X013137Y024361D01*
X013173Y024400D01*
X013241Y024343D01*
X013242Y024342D01*
X013204Y024301D01*
X013164Y024263D01*
X013121Y024227D01*
X013076Y024194D01*
X013029Y024164D01*
X012981Y024138D01*
X012930Y024114D01*
X012878Y024094D01*
X012825Y024078D01*
X012771Y024064D01*
X012716Y024055D01*
X012661Y024049D01*
X012605Y024047D01*
X012605Y024056D01*
X012660Y024058D01*
X012715Y024064D01*
X012769Y024073D01*
X012823Y024086D01*
X012875Y024103D01*
X012927Y024122D01*
X012977Y024146D01*
X013025Y024172D01*
X013071Y024202D01*
X013116Y024234D01*
X013158Y024269D01*
X013198Y024308D01*
X013235Y024348D01*
X013228Y024354D01*
X013191Y024314D01*
X013152Y024276D01*
X013110Y024241D01*
X013066Y024209D01*
X013020Y024180D01*
X012972Y024154D01*
X012923Y024131D01*
X012872Y024111D01*
X012820Y024095D01*
X012767Y024082D01*
X012714Y024073D01*
X012659Y024067D01*
X012605Y024065D01*
X012605Y024074D01*
X012659Y024076D01*
X012712Y024082D01*
X012765Y024091D01*
X012818Y024104D01*
X012869Y024120D01*
X012920Y024139D01*
X012968Y024162D01*
X013016Y024187D01*
X013061Y024216D01*
X013105Y024248D01*
X013146Y024283D01*
X013185Y024320D01*
X013221Y024360D01*
X013214Y024366D01*
X013178Y024326D01*
X013140Y024289D01*
X013099Y024255D01*
X013056Y024224D01*
X013011Y024195D01*
X012964Y024170D01*
X012916Y024147D01*
X012866Y024128D01*
X012815Y024112D01*
X012764Y024100D01*
X012711Y024091D01*
X012658Y024085D01*
X012605Y024083D01*
X012605Y024092D01*
X012658Y024094D01*
X012710Y024100D01*
X012762Y024109D01*
X012813Y024121D01*
X012863Y024137D01*
X012913Y024156D01*
X012960Y024178D01*
X013007Y024203D01*
X013051Y024231D01*
X013093Y024262D01*
X013134Y024296D01*
X013172Y024333D01*
X013207Y024371D01*
X013201Y024377D01*
X013165Y024339D01*
X013128Y024303D01*
X013088Y024269D01*
X013046Y024239D01*
X013002Y024211D01*
X012956Y024186D01*
X012909Y024164D01*
X012860Y024145D01*
X012811Y024130D01*
X012760Y024117D01*
X012709Y024109D01*
X012657Y024103D01*
X012605Y024101D01*
X012605Y024110D01*
X012661Y024112D01*
X012716Y024119D01*
X012771Y024129D01*
X012825Y024143D01*
X012878Y024161D01*
X012929Y024183D01*
X012979Y024208D01*
X013027Y024237D01*
X013072Y024269D01*
X013115Y024304D01*
X013156Y024342D01*
X013194Y024383D01*
X013187Y024389D01*
X013150Y024348D01*
X013109Y024311D01*
X013067Y024276D01*
X013022Y024244D01*
X012974Y024216D01*
X012925Y024191D01*
X012874Y024169D01*
X012822Y024152D01*
X012769Y024138D01*
X012715Y024128D01*
X012660Y024121D01*
X012605Y024119D01*
X012605Y024128D01*
X012659Y024130D01*
X012713Y024136D01*
X012767Y024146D01*
X012820Y024160D01*
X012871Y024178D01*
X012921Y024199D01*
X012970Y024224D01*
X013017Y024252D01*
X013061Y024283D01*
X013103Y024317D01*
X013143Y024355D01*
X013180Y024395D01*
X013245Y025436D02*
X013176Y025379D01*
X013177Y025379D02*
X013140Y025419D01*
X013101Y025457D01*
X013059Y025491D01*
X013015Y025523D01*
X012969Y025551D01*
X012920Y025576D01*
X012870Y025597D01*
X012819Y025615D01*
X012766Y025628D01*
X012713Y025638D01*
X012659Y025645D01*
X012605Y025647D01*
X012604Y025736D01*
X012605Y025737D01*
X012661Y025735D01*
X012717Y025729D01*
X012772Y025719D01*
X012827Y025706D01*
X012880Y025689D01*
X012933Y025669D01*
X012984Y025645D01*
X013033Y025618D01*
X013080Y025587D01*
X013125Y025554D01*
X013168Y025518D01*
X013208Y025479D01*
X013246Y025437D01*
X013239Y025431D01*
X013202Y025472D01*
X013162Y025511D01*
X013120Y025547D01*
X013075Y025580D01*
X013028Y025610D01*
X012980Y025637D01*
X012929Y025660D01*
X012877Y025681D01*
X012824Y025697D01*
X012770Y025710D01*
X012716Y025720D01*
X012661Y025726D01*
X012605Y025728D01*
X012605Y025719D01*
X012660Y025717D01*
X012715Y025711D01*
X012769Y025702D01*
X012822Y025689D01*
X012874Y025672D01*
X012926Y025652D01*
X012975Y025629D01*
X013024Y025602D01*
X013070Y025573D01*
X013114Y025540D01*
X013156Y025504D01*
X013195Y025466D01*
X013232Y025425D01*
X013225Y025420D01*
X013189Y025460D01*
X013150Y025498D01*
X013108Y025533D01*
X013065Y025565D01*
X013019Y025595D01*
X012971Y025621D01*
X012922Y025644D01*
X012872Y025664D01*
X012820Y025680D01*
X012767Y025693D01*
X012713Y025702D01*
X012659Y025708D01*
X012605Y025710D01*
X012605Y025701D01*
X012659Y025699D01*
X012712Y025693D01*
X012765Y025684D01*
X012817Y025671D01*
X012869Y025655D01*
X012919Y025636D01*
X012967Y025613D01*
X013014Y025587D01*
X013060Y025558D01*
X013103Y025526D01*
X013144Y025491D01*
X013182Y025454D01*
X013218Y025414D01*
X013211Y025408D01*
X013176Y025447D01*
X013138Y025484D01*
X013097Y025519D01*
X013054Y025550D01*
X013010Y025579D01*
X012963Y025605D01*
X012915Y025627D01*
X012866Y025647D01*
X012815Y025663D01*
X012763Y025675D01*
X012711Y025684D01*
X012658Y025690D01*
X012605Y025692D01*
X012605Y025683D01*
X012657Y025681D01*
X012710Y025675D01*
X012761Y025666D01*
X012812Y025654D01*
X012863Y025638D01*
X012912Y025619D01*
X012959Y025597D01*
X013005Y025571D01*
X013049Y025543D01*
X013091Y025512D01*
X013132Y025478D01*
X013169Y025441D01*
X013204Y025402D01*
X013198Y025396D01*
X013163Y025435D01*
X013125Y025471D01*
X013086Y025505D01*
X013044Y025536D01*
X013000Y025564D01*
X012955Y025589D01*
X012908Y025611D01*
X012860Y025630D01*
X012810Y025645D01*
X012760Y025658D01*
X012708Y025666D01*
X012657Y025672D01*
X012605Y025674D01*
X012605Y025665D01*
X012656Y025663D01*
X012707Y025658D01*
X012758Y025649D01*
X012808Y025637D01*
X012857Y025621D01*
X012904Y025603D01*
X012951Y025581D01*
X012996Y025556D01*
X013039Y025528D01*
X013080Y025498D01*
X013119Y025465D01*
X013156Y025429D01*
X013191Y025391D01*
X013184Y025385D01*
X013147Y025426D01*
X013107Y025464D01*
X013065Y025498D01*
X013020Y025530D01*
X012973Y025559D01*
X012924Y025584D01*
X012873Y025605D01*
X012822Y025623D01*
X012768Y025637D01*
X012714Y025647D01*
X012660Y025654D01*
X012605Y025656D01*
X011869Y022469D02*
X011947Y022514D01*
X011947Y022513D02*
X011975Y022469D01*
X012006Y022427D01*
X012039Y022387D01*
X012075Y022349D01*
X012114Y022314D01*
X012155Y022282D01*
X012199Y022252D01*
X012244Y022226D01*
X012291Y022203D01*
X012339Y022183D01*
X012389Y022167D01*
X012439Y022154D01*
X012491Y022145D01*
X012543Y022139D01*
X012595Y022137D01*
X012596Y022048D01*
X012595Y022047D01*
X012540Y022049D01*
X012486Y022055D01*
X012431Y022064D01*
X012378Y022077D01*
X012326Y022093D01*
X012274Y022112D01*
X012224Y022135D01*
X012176Y022161D01*
X012129Y022190D01*
X012085Y022222D01*
X012042Y022257D01*
X012002Y022295D01*
X011965Y022335D01*
X011930Y022377D01*
X011898Y022422D01*
X011869Y022468D01*
X011877Y022473D01*
X011905Y022427D01*
X011937Y022383D01*
X011972Y022341D01*
X012009Y022301D01*
X012048Y022264D01*
X012090Y022229D01*
X012134Y022198D01*
X012180Y022169D01*
X012228Y022143D01*
X012278Y022121D01*
X012328Y022101D01*
X012380Y022085D01*
X012433Y022073D01*
X012487Y022064D01*
X012541Y022058D01*
X012595Y022056D01*
X012595Y022065D01*
X012541Y022067D01*
X012488Y022073D01*
X012435Y022082D01*
X012383Y022094D01*
X012331Y022110D01*
X012281Y022129D01*
X012232Y022151D01*
X012185Y022177D01*
X012139Y022205D01*
X012096Y022237D01*
X012054Y022271D01*
X012015Y022307D01*
X011978Y022347D01*
X011944Y022388D01*
X011913Y022432D01*
X011884Y022477D01*
X011892Y022482D01*
X011922Y022434D01*
X011956Y022388D01*
X011992Y022345D01*
X012032Y022304D01*
X012074Y022266D01*
X012118Y022231D01*
X012165Y022199D01*
X012214Y022171D01*
X012265Y022146D01*
X012318Y022124D01*
X012371Y022107D01*
X012426Y022093D01*
X012482Y022083D01*
X012538Y022076D01*
X012595Y022074D01*
X012595Y022083D01*
X012539Y022085D01*
X012483Y022091D01*
X012428Y022101D01*
X012374Y022115D01*
X012321Y022133D01*
X012269Y022154D01*
X012218Y022179D01*
X012170Y022207D01*
X012124Y022238D01*
X012079Y022273D01*
X012038Y022310D01*
X011999Y022351D01*
X011963Y022393D01*
X011930Y022439D01*
X011900Y022486D01*
X011908Y022491D01*
X011937Y022444D01*
X011970Y022399D01*
X012006Y022357D01*
X012044Y022317D01*
X012085Y022280D01*
X012129Y022245D01*
X012175Y022214D01*
X012223Y022187D01*
X012272Y022162D01*
X012324Y022141D01*
X012376Y022124D01*
X012430Y022110D01*
X012485Y022100D01*
X012540Y022094D01*
X012595Y022092D01*
X012595Y022101D01*
X012540Y022103D01*
X012486Y022109D01*
X012432Y022119D01*
X012379Y022133D01*
X012327Y022150D01*
X012276Y022170D01*
X012227Y022195D01*
X012180Y022222D01*
X012134Y022253D01*
X012091Y022286D01*
X012050Y022323D01*
X012012Y022363D01*
X011977Y022405D01*
X011945Y022449D01*
X011916Y022495D01*
X011924Y022500D01*
X011952Y022454D01*
X011984Y022410D01*
X012019Y022369D01*
X012057Y022330D01*
X012097Y022293D01*
X012139Y022260D01*
X012184Y022230D01*
X012231Y022202D01*
X012280Y022179D01*
X012330Y022158D01*
X012381Y022141D01*
X012434Y022128D01*
X012487Y022118D01*
X012541Y022112D01*
X012595Y022110D01*
X012595Y022119D01*
X012542Y022121D01*
X012488Y022127D01*
X012436Y022137D01*
X012384Y022150D01*
X012333Y022167D01*
X012283Y022187D01*
X012235Y022210D01*
X012189Y022237D01*
X012145Y022267D01*
X012103Y022300D01*
X012063Y022336D01*
X012026Y022375D01*
X011991Y022416D01*
X011960Y022459D01*
X011931Y022504D01*
X011939Y022509D01*
X011967Y022464D01*
X011998Y022421D01*
X012032Y022381D01*
X012069Y022343D01*
X012108Y022307D01*
X012150Y022275D01*
X012194Y022245D01*
X012240Y022218D01*
X012287Y022195D01*
X012336Y022175D01*
X012386Y022158D01*
X012438Y022145D01*
X012490Y022136D01*
X012542Y022130D01*
X012595Y022128D01*
X012595Y023736D02*
X012595Y023646D01*
X012595Y023647D02*
X012541Y023645D01*
X012488Y023639D01*
X012435Y023629D01*
X012383Y023615D01*
X012332Y023598D01*
X012283Y023577D01*
X012235Y023553D01*
X012189Y023525D01*
X012145Y023494D01*
X012103Y023460D01*
X012064Y023424D01*
X012027Y023384D01*
X011994Y023342D01*
X011963Y023298D01*
X011936Y023252D01*
X011857Y023294D01*
X011885Y023343D01*
X011917Y023389D01*
X011952Y023434D01*
X011989Y023476D01*
X012030Y023516D01*
X012073Y023552D01*
X012118Y023586D01*
X012165Y023617D01*
X012215Y023644D01*
X012266Y023668D01*
X012318Y023689D01*
X012372Y023706D01*
X012427Y023719D01*
X012482Y023729D01*
X012539Y023735D01*
X012595Y023737D01*
X012595Y023728D01*
X012539Y023726D01*
X012484Y023720D01*
X012429Y023710D01*
X012374Y023697D01*
X012321Y023680D01*
X012269Y023660D01*
X012219Y023636D01*
X012170Y023609D01*
X012123Y023579D01*
X012078Y023545D01*
X012036Y023509D01*
X011996Y023470D01*
X011959Y023428D01*
X011924Y023384D01*
X011893Y023338D01*
X011865Y023290D01*
X011873Y023286D01*
X011901Y023333D01*
X011932Y023379D01*
X011966Y023422D01*
X012002Y023464D01*
X012042Y023502D01*
X012084Y023538D01*
X012128Y023571D01*
X012174Y023601D01*
X012223Y023628D01*
X012273Y023651D01*
X012324Y023672D01*
X012377Y023688D01*
X012430Y023701D01*
X012485Y023711D01*
X012540Y023717D01*
X012595Y023719D01*
X012595Y023710D01*
X012540Y023708D01*
X012486Y023702D01*
X012432Y023693D01*
X012379Y023680D01*
X012327Y023663D01*
X012276Y023643D01*
X012227Y023620D01*
X012179Y023593D01*
X012133Y023564D01*
X012089Y023531D01*
X012048Y023496D01*
X012009Y023457D01*
X011972Y023417D01*
X011939Y023374D01*
X011908Y023328D01*
X011881Y023281D01*
X011889Y023277D01*
X011916Y023324D01*
X011946Y023368D01*
X011979Y023411D01*
X012015Y023451D01*
X012054Y023489D01*
X012095Y023524D01*
X012138Y023556D01*
X012184Y023586D01*
X012231Y023612D01*
X012280Y023635D01*
X012330Y023655D01*
X012382Y023671D01*
X012434Y023684D01*
X012487Y023693D01*
X012541Y023699D01*
X012595Y023701D01*
X012595Y023692D01*
X012542Y023690D01*
X012489Y023684D01*
X012436Y023675D01*
X012384Y023662D01*
X012333Y023646D01*
X012283Y023627D01*
X012235Y023604D01*
X012188Y023578D01*
X012144Y023549D01*
X012101Y023517D01*
X012060Y023482D01*
X012022Y023445D01*
X011986Y023405D01*
X011953Y023363D01*
X011923Y023319D01*
X011896Y023273D01*
X011904Y023269D01*
X011931Y023314D01*
X011961Y023358D01*
X011993Y023399D01*
X012028Y023439D01*
X012066Y023476D01*
X012106Y023510D01*
X012149Y023542D01*
X012193Y023570D01*
X012239Y023596D01*
X012287Y023618D01*
X012336Y023638D01*
X012386Y023654D01*
X012438Y023666D01*
X012490Y023675D01*
X012542Y023681D01*
X012595Y023683D01*
X012595Y023674D01*
X012539Y023672D01*
X012484Y023665D01*
X012429Y023655D01*
X012375Y023641D01*
X012323Y023623D01*
X012271Y023602D01*
X012222Y023576D01*
X012174Y023548D01*
X012128Y023516D01*
X012085Y023481D01*
X012045Y023443D01*
X012007Y023402D01*
X011972Y023358D01*
X011941Y023312D01*
X011912Y023264D01*
X011920Y023260D01*
X011948Y023308D01*
X011979Y023353D01*
X012014Y023396D01*
X012051Y023436D01*
X012091Y023474D01*
X012134Y023509D01*
X012179Y023540D01*
X012226Y023569D01*
X012275Y023593D01*
X012326Y023615D01*
X012378Y023632D01*
X012431Y023646D01*
X012485Y023656D01*
X012540Y023663D01*
X012595Y023665D01*
X012595Y023656D01*
X012541Y023654D01*
X012487Y023648D01*
X012433Y023638D01*
X012381Y023624D01*
X012329Y023606D01*
X012279Y023585D01*
X012230Y023561D01*
X012184Y023533D01*
X012139Y023501D01*
X012097Y023467D01*
X012058Y023430D01*
X012021Y023390D01*
X011987Y023348D01*
X011956Y023303D01*
X011928Y023256D01*
X013245Y023436D02*
X013176Y023379D01*
X013177Y023379D02*
X013140Y023419D01*
X013101Y023457D01*
X013059Y023491D01*
X013015Y023523D01*
X012969Y023551D01*
X012920Y023576D01*
X012870Y023597D01*
X012819Y023615D01*
X012766Y023628D01*
X012713Y023638D01*
X012659Y023645D01*
X012605Y023647D01*
X012604Y023736D01*
X012605Y023737D01*
X012661Y023735D01*
X012717Y023729D01*
X012772Y023719D01*
X012827Y023706D01*
X012880Y023689D01*
X012933Y023669D01*
X012984Y023645D01*
X013033Y023618D01*
X013080Y023587D01*
X013125Y023554D01*
X013168Y023518D01*
X013208Y023479D01*
X013246Y023437D01*
X013239Y023431D01*
X013202Y023472D01*
X013162Y023511D01*
X013120Y023547D01*
X013075Y023580D01*
X013028Y023610D01*
X012980Y023637D01*
X012929Y023660D01*
X012877Y023681D01*
X012824Y023697D01*
X012770Y023710D01*
X012716Y023720D01*
X012661Y023726D01*
X012605Y023728D01*
X012605Y023719D01*
X012660Y023717D01*
X012715Y023711D01*
X012769Y023702D01*
X012822Y023689D01*
X012874Y023672D01*
X012926Y023652D01*
X012975Y023629D01*
X013024Y023602D01*
X013070Y023573D01*
X013114Y023540D01*
X013156Y023504D01*
X013195Y023466D01*
X013232Y023425D01*
X013225Y023420D01*
X013189Y023460D01*
X013150Y023498D01*
X013108Y023533D01*
X013065Y023565D01*
X013019Y023595D01*
X012971Y023621D01*
X012922Y023644D01*
X012872Y023664D01*
X012820Y023680D01*
X012767Y023693D01*
X012713Y023702D01*
X012659Y023708D01*
X012605Y023710D01*
X012605Y023701D01*
X012659Y023699D01*
X012712Y023693D01*
X012765Y023684D01*
X012817Y023671D01*
X012869Y023655D01*
X012919Y023636D01*
X012967Y023613D01*
X013014Y023587D01*
X013060Y023558D01*
X013103Y023526D01*
X013144Y023491D01*
X013182Y023454D01*
X013218Y023414D01*
X013211Y023408D01*
X013176Y023447D01*
X013138Y023484D01*
X013097Y023519D01*
X013054Y023550D01*
X013010Y023579D01*
X012963Y023605D01*
X012915Y023627D01*
X012866Y023647D01*
X012815Y023663D01*
X012763Y023675D01*
X012711Y023684D01*
X012658Y023690D01*
X012605Y023692D01*
X012605Y023683D01*
X012657Y023681D01*
X012710Y023675D01*
X012761Y023666D01*
X012812Y023654D01*
X012863Y023638D01*
X012912Y023619D01*
X012959Y023597D01*
X013005Y023571D01*
X013049Y023543D01*
X013091Y023512D01*
X013132Y023478D01*
X013169Y023441D01*
X013204Y023402D01*
X013198Y023396D01*
X013163Y023435D01*
X013125Y023471D01*
X013086Y023505D01*
X013044Y023536D01*
X013000Y023564D01*
X012955Y023589D01*
X012908Y023611D01*
X012860Y023630D01*
X012810Y023645D01*
X012760Y023658D01*
X012708Y023666D01*
X012657Y023672D01*
X012605Y023674D01*
X012605Y023665D01*
X012656Y023663D01*
X012707Y023658D01*
X012758Y023649D01*
X012808Y023637D01*
X012857Y023621D01*
X012904Y023603D01*
X012951Y023581D01*
X012996Y023556D01*
X013039Y023528D01*
X013080Y023498D01*
X013119Y023465D01*
X013156Y023429D01*
X013191Y023391D01*
X013184Y023385D01*
X013147Y023426D01*
X013107Y023464D01*
X013065Y023498D01*
X013020Y023530D01*
X012973Y023559D01*
X012924Y023584D01*
X012873Y023605D01*
X012822Y023623D01*
X012768Y023637D01*
X012714Y023647D01*
X012660Y023654D01*
X012605Y023656D01*
X012604Y022048D02*
X012604Y022138D01*
X012605Y022137D02*
X012659Y022139D01*
X012712Y022145D01*
X012765Y022155D01*
X012817Y022169D01*
X012868Y022186D01*
X012918Y022207D01*
X012966Y022231D01*
X013012Y022259D01*
X013056Y022290D01*
X013097Y022324D01*
X013137Y022361D01*
X013173Y022400D01*
X013241Y022343D01*
X013242Y022342D01*
X013204Y022301D01*
X013164Y022263D01*
X013121Y022227D01*
X013076Y022194D01*
X013029Y022164D01*
X012981Y022138D01*
X012930Y022114D01*
X012878Y022094D01*
X012825Y022078D01*
X012771Y022064D01*
X012716Y022055D01*
X012661Y022049D01*
X012605Y022047D01*
X012605Y022056D01*
X012660Y022058D01*
X012715Y022064D01*
X012769Y022073D01*
X012823Y022086D01*
X012875Y022103D01*
X012927Y022122D01*
X012977Y022146D01*
X013025Y022172D01*
X013071Y022202D01*
X013116Y022234D01*
X013158Y022269D01*
X013198Y022308D01*
X013235Y022348D01*
X013228Y022354D01*
X013191Y022314D01*
X013152Y022276D01*
X013110Y022241D01*
X013066Y022209D01*
X013020Y022180D01*
X012972Y022154D01*
X012923Y022131D01*
X012872Y022111D01*
X012820Y022095D01*
X012767Y022082D01*
X012714Y022073D01*
X012659Y022067D01*
X012605Y022065D01*
X012605Y022074D01*
X012659Y022076D01*
X012712Y022082D01*
X012765Y022091D01*
X012818Y022104D01*
X012869Y022120D01*
X012920Y022139D01*
X012968Y022162D01*
X013016Y022187D01*
X013061Y022216D01*
X013105Y022248D01*
X013146Y022283D01*
X013185Y022320D01*
X013221Y022360D01*
X013214Y022366D01*
X013178Y022326D01*
X013140Y022289D01*
X013099Y022255D01*
X013056Y022224D01*
X013011Y022195D01*
X012964Y022170D01*
X012916Y022147D01*
X012866Y022128D01*
X012815Y022112D01*
X012764Y022100D01*
X012711Y022091D01*
X012658Y022085D01*
X012605Y022083D01*
X012605Y022092D01*
X012658Y022094D01*
X012710Y022100D01*
X012762Y022109D01*
X012813Y022121D01*
X012863Y022137D01*
X012913Y022156D01*
X012960Y022178D01*
X013007Y022203D01*
X013051Y022231D01*
X013093Y022262D01*
X013134Y022296D01*
X013172Y022333D01*
X013207Y022371D01*
X013201Y022377D01*
X013165Y022339D01*
X013128Y022303D01*
X013088Y022269D01*
X013046Y022239D01*
X013002Y022211D01*
X012956Y022186D01*
X012909Y022164D01*
X012860Y022145D01*
X012811Y022130D01*
X012760Y022117D01*
X012709Y022109D01*
X012657Y022103D01*
X012605Y022101D01*
X012605Y022110D01*
X012661Y022112D01*
X012716Y022119D01*
X012771Y022129D01*
X012825Y022143D01*
X012878Y022161D01*
X012929Y022183D01*
X012979Y022208D01*
X013027Y022237D01*
X013072Y022269D01*
X013115Y022304D01*
X013156Y022342D01*
X013194Y022383D01*
X013187Y022389D01*
X013150Y022348D01*
X013109Y022311D01*
X013067Y022276D01*
X013022Y022244D01*
X012974Y022216D01*
X012925Y022191D01*
X012874Y022169D01*
X012822Y022152D01*
X012769Y022138D01*
X012715Y022128D01*
X012660Y022121D01*
X012605Y022119D01*
X012605Y022128D01*
X012659Y022130D01*
X012713Y022136D01*
X012767Y022146D01*
X012820Y022160D01*
X012871Y022178D01*
X012921Y022199D01*
X012970Y022224D01*
X013017Y022252D01*
X013061Y022283D01*
X013103Y022317D01*
X013143Y022355D01*
X013180Y022395D01*
X012595Y021736D02*
X012595Y021646D01*
X012595Y021647D02*
X012541Y021645D01*
X012488Y021639D01*
X012435Y021629D01*
X012383Y021615D01*
X012332Y021598D01*
X012283Y021577D01*
X012235Y021553D01*
X012189Y021525D01*
X012145Y021494D01*
X012103Y021460D01*
X012064Y021424D01*
X012027Y021384D01*
X011994Y021342D01*
X011963Y021298D01*
X011936Y021252D01*
X011857Y021294D01*
X011885Y021343D01*
X011917Y021389D01*
X011952Y021434D01*
X011989Y021476D01*
X012030Y021516D01*
X012073Y021552D01*
X012118Y021586D01*
X012165Y021617D01*
X012215Y021644D01*
X012266Y021668D01*
X012318Y021689D01*
X012372Y021706D01*
X012427Y021719D01*
X012482Y021729D01*
X012539Y021735D01*
X012595Y021737D01*
X012595Y021728D01*
X012539Y021726D01*
X012484Y021720D01*
X012429Y021710D01*
X012374Y021697D01*
X012321Y021680D01*
X012269Y021660D01*
X012219Y021636D01*
X012170Y021609D01*
X012123Y021579D01*
X012078Y021545D01*
X012036Y021509D01*
X011996Y021470D01*
X011959Y021428D01*
X011924Y021384D01*
X011893Y021338D01*
X011865Y021290D01*
X011873Y021286D01*
X011901Y021333D01*
X011932Y021379D01*
X011966Y021422D01*
X012002Y021464D01*
X012042Y021502D01*
X012084Y021538D01*
X012128Y021571D01*
X012174Y021601D01*
X012223Y021628D01*
X012273Y021651D01*
X012324Y021672D01*
X012377Y021688D01*
X012430Y021701D01*
X012485Y021711D01*
X012540Y021717D01*
X012595Y021719D01*
X012595Y021710D01*
X012540Y021708D01*
X012486Y021702D01*
X012432Y021693D01*
X012379Y021680D01*
X012327Y021663D01*
X012276Y021643D01*
X012227Y021620D01*
X012179Y021593D01*
X012133Y021564D01*
X012089Y021531D01*
X012048Y021496D01*
X012009Y021457D01*
X011972Y021417D01*
X011939Y021374D01*
X011908Y021328D01*
X011881Y021281D01*
X011889Y021277D01*
X011916Y021324D01*
X011946Y021368D01*
X011979Y021411D01*
X012015Y021451D01*
X012054Y021489D01*
X012095Y021524D01*
X012138Y021556D01*
X012184Y021586D01*
X012231Y021612D01*
X012280Y021635D01*
X012330Y021655D01*
X012382Y021671D01*
X012434Y021684D01*
X012487Y021693D01*
X012541Y021699D01*
X012595Y021701D01*
X012595Y021692D01*
X012542Y021690D01*
X012489Y021684D01*
X012436Y021675D01*
X012384Y021662D01*
X012333Y021646D01*
X012283Y021627D01*
X012235Y021604D01*
X012188Y021578D01*
X012144Y021549D01*
X012101Y021517D01*
X012060Y021482D01*
X012022Y021445D01*
X011986Y021405D01*
X011953Y021363D01*
X011923Y021319D01*
X011896Y021273D01*
X011904Y021269D01*
X011931Y021314D01*
X011961Y021358D01*
X011993Y021399D01*
X012028Y021439D01*
X012066Y021476D01*
X012106Y021510D01*
X012149Y021542D01*
X012193Y021570D01*
X012239Y021596D01*
X012287Y021618D01*
X012336Y021638D01*
X012386Y021654D01*
X012438Y021666D01*
X012490Y021675D01*
X012542Y021681D01*
X012595Y021683D01*
X012595Y021674D01*
X012539Y021672D01*
X012484Y021665D01*
X012429Y021655D01*
X012375Y021641D01*
X012323Y021623D01*
X012271Y021602D01*
X012222Y021576D01*
X012174Y021548D01*
X012128Y021516D01*
X012085Y021481D01*
X012045Y021443D01*
X012007Y021402D01*
X011972Y021358D01*
X011941Y021312D01*
X011912Y021264D01*
X011920Y021260D01*
X011948Y021308D01*
X011979Y021353D01*
X012014Y021396D01*
X012051Y021436D01*
X012091Y021474D01*
X012134Y021509D01*
X012179Y021540D01*
X012226Y021569D01*
X012275Y021593D01*
X012326Y021615D01*
X012378Y021632D01*
X012431Y021646D01*
X012485Y021656D01*
X012540Y021663D01*
X012595Y021665D01*
X012595Y021656D01*
X012541Y021654D01*
X012487Y021648D01*
X012433Y021638D01*
X012381Y021624D01*
X012329Y021606D01*
X012279Y021585D01*
X012230Y021561D01*
X012184Y021533D01*
X012139Y021501D01*
X012097Y021467D01*
X012058Y021430D01*
X012021Y021390D01*
X011987Y021348D01*
X011956Y021303D01*
X011928Y021256D01*
X011869Y020469D02*
X011947Y020514D01*
X011947Y020513D02*
X011975Y020469D01*
X012006Y020427D01*
X012039Y020387D01*
X012075Y020349D01*
X012114Y020314D01*
X012155Y020282D01*
X012199Y020252D01*
X012244Y020226D01*
X012291Y020203D01*
X012339Y020183D01*
X012389Y020167D01*
X012439Y020154D01*
X012491Y020145D01*
X012543Y020139D01*
X012595Y020137D01*
X012596Y020048D01*
X012595Y020047D01*
X012540Y020049D01*
X012486Y020055D01*
X012431Y020064D01*
X012378Y020077D01*
X012326Y020093D01*
X012274Y020112D01*
X012224Y020135D01*
X012176Y020161D01*
X012129Y020190D01*
X012085Y020222D01*
X012042Y020257D01*
X012002Y020295D01*
X011965Y020335D01*
X011930Y020377D01*
X011898Y020422D01*
X011869Y020468D01*
X011877Y020473D01*
X011905Y020427D01*
X011937Y020383D01*
X011972Y020341D01*
X012009Y020301D01*
X012048Y020264D01*
X012090Y020229D01*
X012134Y020198D01*
X012180Y020169D01*
X012228Y020143D01*
X012278Y020121D01*
X012328Y020101D01*
X012380Y020085D01*
X012433Y020073D01*
X012487Y020064D01*
X012541Y020058D01*
X012595Y020056D01*
X012595Y020065D01*
X012541Y020067D01*
X012488Y020073D01*
X012435Y020082D01*
X012383Y020094D01*
X012331Y020110D01*
X012281Y020129D01*
X012232Y020151D01*
X012185Y020177D01*
X012139Y020205D01*
X012096Y020237D01*
X012054Y020271D01*
X012015Y020307D01*
X011978Y020347D01*
X011944Y020388D01*
X011913Y020432D01*
X011884Y020477D01*
X011892Y020482D01*
X011922Y020434D01*
X011956Y020388D01*
X011992Y020345D01*
X012032Y020304D01*
X012074Y020266D01*
X012118Y020231D01*
X012165Y020199D01*
X012214Y020171D01*
X012265Y020146D01*
X012318Y020124D01*
X012371Y020107D01*
X012426Y020093D01*
X012482Y020083D01*
X012538Y020076D01*
X012595Y020074D01*
X012595Y020083D01*
X012539Y020085D01*
X012483Y020091D01*
X012428Y020101D01*
X012374Y020115D01*
X012321Y020133D01*
X012269Y020154D01*
X012218Y020179D01*
X012170Y020207D01*
X012124Y020238D01*
X012079Y020273D01*
X012038Y020310D01*
X011999Y020351D01*
X011963Y020393D01*
X011930Y020439D01*
X011900Y020486D01*
X011908Y020491D01*
X011937Y020444D01*
X011970Y020399D01*
X012006Y020357D01*
X012044Y020317D01*
X012085Y020280D01*
X012129Y020245D01*
X012175Y020214D01*
X012223Y020187D01*
X012272Y020162D01*
X012324Y020141D01*
X012376Y020124D01*
X012430Y020110D01*
X012485Y020100D01*
X012540Y020094D01*
X012595Y020092D01*
X012595Y020101D01*
X012540Y020103D01*
X012486Y020109D01*
X012432Y020119D01*
X012379Y020133D01*
X012327Y020150D01*
X012276Y020170D01*
X012227Y020195D01*
X012180Y020222D01*
X012134Y020253D01*
X012091Y020286D01*
X012050Y020323D01*
X012012Y020363D01*
X011977Y020405D01*
X011945Y020449D01*
X011916Y020495D01*
X011924Y020500D01*
X011952Y020454D01*
X011984Y020410D01*
X012019Y020369D01*
X012057Y020330D01*
X012097Y020293D01*
X012139Y020260D01*
X012184Y020230D01*
X012231Y020202D01*
X012280Y020179D01*
X012330Y020158D01*
X012381Y020141D01*
X012434Y020128D01*
X012487Y020118D01*
X012541Y020112D01*
X012595Y020110D01*
X012595Y020119D01*
X012542Y020121D01*
X012488Y020127D01*
X012436Y020137D01*
X012384Y020150D01*
X012333Y020167D01*
X012283Y020187D01*
X012235Y020210D01*
X012189Y020237D01*
X012145Y020267D01*
X012103Y020300D01*
X012063Y020336D01*
X012026Y020375D01*
X011991Y020416D01*
X011960Y020459D01*
X011931Y020504D01*
X011939Y020509D01*
X011967Y020464D01*
X011998Y020421D01*
X012032Y020381D01*
X012069Y020343D01*
X012108Y020307D01*
X012150Y020275D01*
X012194Y020245D01*
X012240Y020218D01*
X012287Y020195D01*
X012336Y020175D01*
X012386Y020158D01*
X012438Y020145D01*
X012490Y020136D01*
X012542Y020130D01*
X012595Y020128D01*
X012604Y020048D02*
X012604Y020138D01*
X012605Y020137D02*
X012659Y020139D01*
X012712Y020145D01*
X012765Y020155D01*
X012817Y020169D01*
X012868Y020186D01*
X012918Y020207D01*
X012966Y020231D01*
X013012Y020259D01*
X013056Y020290D01*
X013097Y020324D01*
X013137Y020361D01*
X013173Y020400D01*
X013241Y020343D01*
X013242Y020342D01*
X013204Y020301D01*
X013164Y020263D01*
X013121Y020227D01*
X013076Y020194D01*
X013029Y020164D01*
X012981Y020138D01*
X012930Y020114D01*
X012878Y020094D01*
X012825Y020078D01*
X012771Y020064D01*
X012716Y020055D01*
X012661Y020049D01*
X012605Y020047D01*
X012605Y020056D01*
X012660Y020058D01*
X012715Y020064D01*
X012769Y020073D01*
X012823Y020086D01*
X012875Y020103D01*
X012927Y020122D01*
X012977Y020146D01*
X013025Y020172D01*
X013071Y020202D01*
X013116Y020234D01*
X013158Y020269D01*
X013198Y020308D01*
X013235Y020348D01*
X013228Y020354D01*
X013191Y020314D01*
X013152Y020276D01*
X013110Y020241D01*
X013066Y020209D01*
X013020Y020180D01*
X012972Y020154D01*
X012923Y020131D01*
X012872Y020111D01*
X012820Y020095D01*
X012767Y020082D01*
X012714Y020073D01*
X012659Y020067D01*
X012605Y020065D01*
X012605Y020074D01*
X012659Y020076D01*
X012712Y020082D01*
X012765Y020091D01*
X012818Y020104D01*
X012869Y020120D01*
X012920Y020139D01*
X012968Y020162D01*
X013016Y020187D01*
X013061Y020216D01*
X013105Y020248D01*
X013146Y020283D01*
X013185Y020320D01*
X013221Y020360D01*
X013214Y020366D01*
X013178Y020326D01*
X013140Y020289D01*
X013099Y020255D01*
X013056Y020224D01*
X013011Y020195D01*
X012964Y020170D01*
X012916Y020147D01*
X012866Y020128D01*
X012815Y020112D01*
X012764Y020100D01*
X012711Y020091D01*
X012658Y020085D01*
X012605Y020083D01*
X012605Y020092D01*
X012658Y020094D01*
X012710Y020100D01*
X012762Y020109D01*
X012813Y020121D01*
X012863Y020137D01*
X012913Y020156D01*
X012960Y020178D01*
X013007Y020203D01*
X013051Y020231D01*
X013093Y020262D01*
X013134Y020296D01*
X013172Y020333D01*
X013207Y020371D01*
X013201Y020377D01*
X013165Y020339D01*
X013128Y020303D01*
X013088Y020269D01*
X013046Y020239D01*
X013002Y020211D01*
X012956Y020186D01*
X012909Y020164D01*
X012860Y020145D01*
X012811Y020130D01*
X012760Y020117D01*
X012709Y020109D01*
X012657Y020103D01*
X012605Y020101D01*
X012605Y020110D01*
X012661Y020112D01*
X012716Y020119D01*
X012771Y020129D01*
X012825Y020143D01*
X012878Y020161D01*
X012929Y020183D01*
X012979Y020208D01*
X013027Y020237D01*
X013072Y020269D01*
X013115Y020304D01*
X013156Y020342D01*
X013194Y020383D01*
X013187Y020389D01*
X013150Y020348D01*
X013109Y020311D01*
X013067Y020276D01*
X013022Y020244D01*
X012974Y020216D01*
X012925Y020191D01*
X012874Y020169D01*
X012822Y020152D01*
X012769Y020138D01*
X012715Y020128D01*
X012660Y020121D01*
X012605Y020119D01*
X012605Y020128D01*
X012659Y020130D01*
X012713Y020136D01*
X012767Y020146D01*
X012820Y020160D01*
X012871Y020178D01*
X012921Y020199D01*
X012970Y020224D01*
X013017Y020252D01*
X013061Y020283D01*
X013103Y020317D01*
X013143Y020355D01*
X013180Y020395D01*
X013245Y021436D02*
X013176Y021379D01*
X013177Y021379D02*
X013140Y021419D01*
X013101Y021457D01*
X013059Y021491D01*
X013015Y021523D01*
X012969Y021551D01*
X012920Y021576D01*
X012870Y021597D01*
X012819Y021615D01*
X012766Y021628D01*
X012713Y021638D01*
X012659Y021645D01*
X012605Y021647D01*
X012604Y021736D01*
X012605Y021737D01*
X012661Y021735D01*
X012717Y021729D01*
X012772Y021719D01*
X012827Y021706D01*
X012880Y021689D01*
X012933Y021669D01*
X012984Y021645D01*
X013033Y021618D01*
X013080Y021587D01*
X013125Y021554D01*
X013168Y021518D01*
X013208Y021479D01*
X013246Y021437D01*
X013239Y021431D01*
X013202Y021472D01*
X013162Y021511D01*
X013120Y021547D01*
X013075Y021580D01*
X013028Y021610D01*
X012980Y021637D01*
X012929Y021660D01*
X012877Y021681D01*
X012824Y021697D01*
X012770Y021710D01*
X012716Y021720D01*
X012661Y021726D01*
X012605Y021728D01*
X012605Y021719D01*
X012660Y021717D01*
X012715Y021711D01*
X012769Y021702D01*
X012822Y021689D01*
X012874Y021672D01*
X012926Y021652D01*
X012975Y021629D01*
X013024Y021602D01*
X013070Y021573D01*
X013114Y021540D01*
X013156Y021504D01*
X013195Y021466D01*
X013232Y021425D01*
X013225Y021420D01*
X013189Y021460D01*
X013150Y021498D01*
X013108Y021533D01*
X013065Y021565D01*
X013019Y021595D01*
X012971Y021621D01*
X012922Y021644D01*
X012872Y021664D01*
X012820Y021680D01*
X012767Y021693D01*
X012713Y021702D01*
X012659Y021708D01*
X012605Y021710D01*
X012605Y021701D01*
X012659Y021699D01*
X012712Y021693D01*
X012765Y021684D01*
X012817Y021671D01*
X012869Y021655D01*
X012919Y021636D01*
X012967Y021613D01*
X013014Y021587D01*
X013060Y021558D01*
X013103Y021526D01*
X013144Y021491D01*
X013182Y021454D01*
X013218Y021414D01*
X013211Y021408D01*
X013176Y021447D01*
X013138Y021484D01*
X013097Y021519D01*
X013054Y021550D01*
X013010Y021579D01*
X012963Y021605D01*
X012915Y021627D01*
X012866Y021647D01*
X012815Y021663D01*
X012763Y021675D01*
X012711Y021684D01*
X012658Y021690D01*
X012605Y021692D01*
X012605Y021683D01*
X012657Y021681D01*
X012710Y021675D01*
X012761Y021666D01*
X012812Y021654D01*
X012863Y021638D01*
X012912Y021619D01*
X012959Y021597D01*
X013005Y021571D01*
X013049Y021543D01*
X013091Y021512D01*
X013132Y021478D01*
X013169Y021441D01*
X013204Y021402D01*
X013198Y021396D01*
X013163Y021435D01*
X013125Y021471D01*
X013086Y021505D01*
X013044Y021536D01*
X013000Y021564D01*
X012955Y021589D01*
X012908Y021611D01*
X012860Y021630D01*
X012810Y021645D01*
X012760Y021658D01*
X012708Y021666D01*
X012657Y021672D01*
X012605Y021674D01*
X012605Y021665D01*
X012656Y021663D01*
X012707Y021658D01*
X012758Y021649D01*
X012808Y021637D01*
X012857Y021621D01*
X012904Y021603D01*
X012951Y021581D01*
X012996Y021556D01*
X013039Y021528D01*
X013080Y021498D01*
X013119Y021465D01*
X013156Y021429D01*
X013191Y021391D01*
X013184Y021385D01*
X013147Y021426D01*
X013107Y021464D01*
X013065Y021498D01*
X013020Y021530D01*
X012973Y021559D01*
X012924Y021584D01*
X012873Y021605D01*
X012822Y021623D01*
X012768Y021637D01*
X012714Y021647D01*
X012660Y021654D01*
X012605Y021656D01*
D16*
X013220Y021402D02*
X013220Y021202D01*
X013220Y020562D02*
X013220Y020382D01*
X013220Y022382D02*
X013220Y022562D01*
X013220Y023202D02*
X013220Y023402D01*
X013220Y024382D02*
X013220Y024562D01*
X013220Y025202D02*
X013220Y025402D01*
X013220Y026382D02*
X013220Y026562D01*
X013220Y027202D02*
X013220Y027402D01*
X003980Y027402D02*
X003980Y027222D01*
X003980Y026582D02*
X003980Y026382D01*
X003980Y025402D02*
X003980Y025222D01*
X003980Y024582D02*
X003980Y024382D01*
X003980Y023402D02*
X003980Y023222D01*
X003980Y022582D02*
X003980Y022382D01*
M02*
