%
M48
M72
T01C0.0130
T02C0.0320
T03C0.0394
T04C0.0400
T05C0.1260
%
T01
X3600Y13392
X6600Y14892
X4100Y19392
X1100Y22892
T02
X1600Y20892
X2600Y20892
X4100Y22892
X5100Y22892
X5100Y24892
X4100Y24892
X4100Y26892
X5100Y26892
X5100Y20892
X6100Y20892
X6100Y17892
X5100Y17892
X2600Y17892
X1600Y17892
X8600Y17892
X9600Y17892
X9600Y20892
X8600Y20892
X12100Y20892
X13100Y20892
X13100Y22892
X12100Y22892
X12100Y24892
X13100Y24892
X13100Y26892
X12100Y26892
X12100Y18392
X13100Y18392
X13100Y15392
X12100Y15392
X12100Y12892
X13100Y12892
X13100Y9892
X12100Y9892
X15600Y9892
X16600Y9892
X16600Y12892
X15600Y12892
X15600Y15392
X16600Y15392
X16600Y18392
X15600Y18392
T03
X15850Y7892
X15350Y6892
X14850Y7892
X14350Y6892
X13850Y7892
X13350Y6892
X12850Y7892
X12350Y6892
T04
X1100Y3892
X1100Y4892
X1100Y5892
X1100Y6892
X1100Y7892
X1100Y8892
X1100Y9892
X1100Y10892
X1100Y11892
X1100Y12892
X1100Y13892
X1100Y14892
X2100Y14892
X2100Y13892
X2100Y12892
X2100Y11892
X2100Y10892
X2100Y9892
X2100Y8892
X2100Y7892
X2100Y6892
X2100Y5892
X2100Y4892
X2100Y3892
X3100Y3892
X3100Y4892
X3100Y5892
X3100Y6892
X3100Y7892
X3100Y8892
X3100Y9892
X3100Y10892
X3100Y11892
X3100Y12892
X3100Y13892
X3100Y14892
X8100Y14892
X8100Y13892
X8100Y12892
X8100Y11892
X8100Y10892
X8100Y9892
X8100Y8892
X8100Y7892
X8100Y6892
X8100Y5892
X8100Y4892
X8100Y3892
X9100Y3892
X9100Y4892
X9100Y5892
X9100Y6892
X9100Y7892
X9100Y8892
X9100Y9892
X9100Y10892
X9100Y11892
X9100Y12892
X9100Y13892
X9100Y14892
X10100Y14892
X10100Y13892
X10100Y12892
X10100Y11892
X10100Y10892
X10100Y9892
X10100Y8892
X10100Y7892
X10100Y6892
X10100Y5892
X10100Y4892
X10100Y3892
T05
X11850Y4392
X16350Y4392
M30
